<?xml version="1.0" encoding="utf-8" standalone="no"?>
<!DOCTYPE svg PUBLIC "-//W3C//DTD SVG 1.1//EN"
  "http://www.w3.org/Graphics/SVG/1.1/DTD/svg11.dtd">
<svg xmlns:xlink="http://www.w3.org/1999/xlink" width="254.000312pt" height="227.794656pt" viewBox="0 0 254.000312 227.794656" xmlns="http://www.w3.org/2000/svg" version="1.1">
 <metadata>
  <rdf:RDF xmlns:dc="http://purl.org/dc/elements/1.1/" xmlns:cc="http://creativecommons.org/ns#" xmlns:rdf="http://www.w3.org/1999/02/22-rdf-syntax-ns#">
   <cc:Work>
    <dc:type rdf:resource="http://purl.org/dc/dcmitype/StillImage"/>
    <dc:date>2024-06-27T00:58:20.116561</dc:date>
    <dc:format>image/svg+xml</dc:format>
    <dc:creator>
     <cc:Agent>
      <dc:title>Matplotlib v3.8.1, https://matplotlib.org/</dc:title>
     </cc:Agent>
    </dc:creator>
   </cc:Work>
  </rdf:RDF>
 </metadata>
 <defs>
  <style type="text/css">*{stroke-linejoin: round; stroke-linecap: butt}</style>
 </defs>
 <g id="figure_1">
  <g id="patch_1">
   <path d="M 0 227.794656 
L 254.000312 227.794656 
L 254.000312 0 
L 0 0 
z
" style="fill: #ffffff"/>
  </g>
  <g id="axes_1">
   <g id="patch_2">
    <path d="M 19.910313 197.806312 
L 243.110312 197.806312 
L 243.110312 31.486312 
L 19.910313 31.486312 
z
" style="fill: #ffffff"/>
   </g>
   <g id="PolyCollection_1">
    <defs>
     <path id="m77e7f23d68" d="M 44.710313 -29.988344 
L 44.710313 -97.923243 
L 46.964858 -93.477522 
L 49.219403 -89.378893 
L 51.473949 -85.593146 
L 53.728494 -82.090413 
L 55.98304 -78.844479 
L 58.237585 -75.832218 
L 60.492131 -73.033142 
L 62.746676 -70.429018 
L 65.001222 -68.003564 
L 67.255767 -65.742185 
L 69.510312 -63.631758 
L 71.764858 -61.660448 
L 74.019403 -59.81755 
L 76.273949 -58.093358 
L 78.528494 -56.47905 
L 80.78304 -54.96659 
L 83.037585 -53.548642 
L 85.292131 -52.218496 
L 87.546676 -50.970004 
L 89.801222 -49.797522 
L 92.055767 -48.695864 
L 94.310312 -47.660252 
L 96.564858 -46.686283 
L 98.819403 -45.76989 
L 101.073949 -44.907316 
L 103.328494 -44.09508 
L 105.58304 -43.329961 
L 107.837585 -42.608968 
L 110.092131 -41.929327 
L 112.346676 -41.288459 
L 114.601222 -40.683963 
L 116.855767 -40.113607 
L 119.110312 -39.57531 
L 121.364858 -39.067132 
L 123.619403 -38.587262 
L 125.873949 -38.134009 
L 128.128494 -37.705795 
L 130.38304 -37.301143 
L 132.637585 -36.91867 
L 134.892131 -36.557084 
L 137.146676 -36.215174 
L 139.401222 -35.891804 
L 141.655767 -35.585911 
L 143.910312 -35.296496 
L 146.164858 -35.022622 
L 148.419403 -34.763412 
L 150.673949 -34.518037 
L 152.928494 -34.285723 
L 155.18304 -34.065739 
L 157.437585 -33.857401 
L 159.692131 -33.660061 
L 161.946676 -33.473114 
L 164.201222 -33.295988 
L 166.455767 -33.128143 
L 168.710312 -32.969074 
L 170.964858 -32.818303 
L 173.219403 -32.675378 
L 175.473949 -32.539876 
L 177.728494 -32.411397 
L 179.98304 -32.289562 
L 182.237585 -32.174016 
L 184.492131 -32.064423 
L 186.746676 -31.960464 
L 189.001222 -31.86184 
L 191.255767 -31.768269 
L 193.510312 -31.679483 
L 195.764858 -31.59523 
L 198.019403 -31.515271 
L 200.273949 -31.43938 
L 202.528494 -31.367344 
L 204.78304 -31.298962 
L 207.037585 -31.234042 
L 209.292131 -31.172406 
L 211.546676 -31.113881 
L 213.801222 -31.058307 
L 216.055767 -31.005532 
L 218.310313 -30.955409 
L 220.564858 -30.907804 
L 222.819403 -30.862586 
L 225.073949 -30.819632 
L 227.328494 -30.778826 
L 229.58304 -30.740059 
L 231.837585 -30.703227 
L 234.092131 -30.66823 
L 236.346676 -30.634975 
L 238.601222 -30.603373 
L 240.855767 -30.573341 
L 243.110312 -30.544799 
L 243.110312 -29.988344 
L 243.110312 -29.988344 
L 240.855767 -29.988344 
L 238.601222 -29.988344 
L 236.346676 -29.988344 
L 234.092131 -29.988344 
L 231.837585 -29.988344 
L 229.58304 -29.988344 
L 227.328494 -29.988344 
L 225.073949 -29.988344 
L 222.819403 -29.988344 
L 220.564858 -29.988344 
L 218.310313 -29.988344 
L 216.055767 -29.988344 
L 213.801222 -29.988344 
L 211.546676 -29.988344 
L 209.292131 -29.988344 
L 207.037585 -29.988344 
L 204.78304 -29.988344 
L 202.528494 -29.988344 
L 200.273949 -29.988344 
L 198.019403 -29.988344 
L 195.764858 -29.988344 
L 193.510312 -29.988344 
L 191.255767 -29.988344 
L 189.001222 -29.988344 
L 186.746676 -29.988344 
L 184.492131 -29.988344 
L 182.237585 -29.988344 
L 179.98304 -29.988344 
L 177.728494 -29.988344 
L 175.473949 -29.988344 
L 173.219403 -29.988344 
L 170.964858 -29.988344 
L 168.710312 -29.988344 
L 166.455767 -29.988344 
L 164.201222 -29.988344 
L 161.946676 -29.988344 
L 159.692131 -29.988344 
L 157.437585 -29.988344 
L 155.18304 -29.988344 
L 152.928494 -29.988344 
L 150.673949 -29.988344 
L 148.419403 -29.988344 
L 146.164858 -29.988344 
L 143.910312 -29.988344 
L 141.655767 -29.988344 
L 139.401222 -29.988344 
L 137.146676 -29.988344 
L 134.892131 -29.988344 
L 132.637585 -29.988344 
L 130.38304 -29.988344 
L 128.128494 -29.988344 
L 125.873949 -29.988344 
L 123.619403 -29.988344 
L 121.364858 -29.988344 
L 119.110312 -29.988344 
L 116.855767 -29.988344 
L 114.601222 -29.988344 
L 112.346676 -29.988344 
L 110.092131 -29.988344 
L 107.837585 -29.988344 
L 105.58304 -29.988344 
L 103.328494 -29.988344 
L 101.073949 -29.988344 
L 98.819403 -29.988344 
L 96.564858 -29.988344 
L 94.310312 -29.988344 
L 92.055767 -29.988344 
L 89.801222 -29.988344 
L 87.546676 -29.988344 
L 85.292131 -29.988344 
L 83.037585 -29.988344 
L 80.78304 -29.988344 
L 78.528494 -29.988344 
L 76.273949 -29.988344 
L 74.019403 -29.988344 
L 71.764858 -29.988344 
L 69.510312 -29.988344 
L 67.255767 -29.988344 
L 65.001222 -29.988344 
L 62.746676 -29.988344 
L 60.492131 -29.988344 
L 58.237585 -29.988344 
L 55.98304 -29.988344 
L 53.728494 -29.988344 
L 51.473949 -29.988344 
L 49.219403 -29.988344 
L 46.964858 -29.988344 
L 44.710313 -29.988344 
z
" style="stroke: #ff6347; stroke-opacity: 0.5"/>
    </defs>
    <g clip-path="url(#p9c91561a10)">
     <use xlink:href="#m77e7f23d68" x="0" y="227.794656" style="fill: #ff6347; fill-opacity: 0.5; stroke: #ff6347; stroke-opacity: 0.5"/>
    </g>
   </g>
   <g id="matplotlib.axis_1">
    <g id="text_1">
     <!--  -->
     <g transform="translate(131.510312 208.644906) scale(0.09 -0.09)"/>
     <!-- Test Statistic -->
     <g transform="translate(102.993672 218.722938) scale(0.09 -0.09)">
      <defs>
       <path id="DejaVuSans-54" d="M -19 4666 
L 3928 4666 
L 3928 4134 
L 2272 4134 
L 2272 0 
L 1638 0 
L 1638 4134 
L -19 4134 
L -19 4666 
z
" transform="scale(0.015625)"/>
       <path id="DejaVuSans-65" d="M 3597 1894 
L 3597 1613 
L 953 1613 
Q 991 1019 1311 708 
Q 1631 397 2203 397 
Q 2534 397 2845 478 
Q 3156 559 3463 722 
L 3463 178 
Q 3153 47 2828 -22 
Q 2503 -91 2169 -91 
Q 1331 -91 842 396 
Q 353 884 353 1716 
Q 353 2575 817 3079 
Q 1281 3584 2069 3584 
Q 2775 3584 3186 3129 
Q 3597 2675 3597 1894 
z
M 3022 2063 
Q 3016 2534 2758 2815 
Q 2500 3097 2075 3097 
Q 1594 3097 1305 2825 
Q 1016 2553 972 2059 
L 3022 2063 
z
" transform="scale(0.015625)"/>
       <path id="DejaVuSans-73" d="M 2834 3397 
L 2834 2853 
Q 2591 2978 2328 3040 
Q 2066 3103 1784 3103 
Q 1356 3103 1142 2972 
Q 928 2841 928 2578 
Q 928 2378 1081 2264 
Q 1234 2150 1697 2047 
L 1894 2003 
Q 2506 1872 2764 1633 
Q 3022 1394 3022 966 
Q 3022 478 2636 193 
Q 2250 -91 1575 -91 
Q 1294 -91 989 -36 
Q 684 19 347 128 
L 347 722 
Q 666 556 975 473 
Q 1284 391 1588 391 
Q 1994 391 2212 530 
Q 2431 669 2431 922 
Q 2431 1156 2273 1281 
Q 2116 1406 1581 1522 
L 1381 1569 
Q 847 1681 609 1914 
Q 372 2147 372 2553 
Q 372 3047 722 3315 
Q 1072 3584 1716 3584 
Q 2034 3584 2315 3537 
Q 2597 3491 2834 3397 
z
" transform="scale(0.015625)"/>
       <path id="DejaVuSans-74" d="M 1172 4494 
L 1172 3500 
L 2356 3500 
L 2356 3053 
L 1172 3053 
L 1172 1153 
Q 1172 725 1289 603 
Q 1406 481 1766 481 
L 2356 481 
L 2356 0 
L 1766 0 
Q 1100 0 847 248 
Q 594 497 594 1153 
L 594 3053 
L 172 3053 
L 172 3500 
L 594 3500 
L 594 4494 
L 1172 4494 
z
" transform="scale(0.015625)"/>
       <path id="DejaVuSans-20" transform="scale(0.015625)"/>
       <path id="DejaVuSans-53" d="M 3425 4513 
L 3425 3897 
Q 3066 4069 2747 4153 
Q 2428 4238 2131 4238 
Q 1616 4238 1336 4038 
Q 1056 3838 1056 3469 
Q 1056 3159 1242 3001 
Q 1428 2844 1947 2747 
L 2328 2669 
Q 3034 2534 3370 2195 
Q 3706 1856 3706 1288 
Q 3706 609 3251 259 
Q 2797 -91 1919 -91 
Q 1588 -91 1214 -16 
Q 841 59 441 206 
L 441 856 
Q 825 641 1194 531 
Q 1563 422 1919 422 
Q 2459 422 2753 634 
Q 3047 847 3047 1241 
Q 3047 1584 2836 1778 
Q 2625 1972 2144 2069 
L 1759 2144 
Q 1053 2284 737 2584 
Q 422 2884 422 3419 
Q 422 4038 858 4394 
Q 1294 4750 2059 4750 
Q 2388 4750 2728 4690 
Q 3069 4631 3425 4513 
z
" transform="scale(0.015625)"/>
       <path id="DejaVuSans-61" d="M 2194 1759 
Q 1497 1759 1228 1600 
Q 959 1441 959 1056 
Q 959 750 1161 570 
Q 1363 391 1709 391 
Q 2188 391 2477 730 
Q 2766 1069 2766 1631 
L 2766 1759 
L 2194 1759 
z
M 3341 1997 
L 3341 0 
L 2766 0 
L 2766 531 
Q 2569 213 2275 61 
Q 1981 -91 1556 -91 
Q 1019 -91 701 211 
Q 384 513 384 1019 
Q 384 1609 779 1909 
Q 1175 2209 1959 2209 
L 2766 2209 
L 2766 2266 
Q 2766 2663 2505 2880 
Q 2244 3097 1772 3097 
Q 1472 3097 1187 3025 
Q 903 2953 641 2809 
L 641 3341 
Q 956 3463 1253 3523 
Q 1550 3584 1831 3584 
Q 2591 3584 2966 3190 
Q 3341 2797 3341 1997 
z
" transform="scale(0.015625)"/>
       <path id="DejaVuSans-69" d="M 603 3500 
L 1178 3500 
L 1178 0 
L 603 0 
L 603 3500 
z
M 603 4863 
L 1178 4863 
L 1178 4134 
L 603 4134 
L 603 4863 
z
" transform="scale(0.015625)"/>
       <path id="DejaVuSans-63" d="M 3122 3366 
L 3122 2828 
Q 2878 2963 2633 3030 
Q 2388 3097 2138 3097 
Q 1578 3097 1268 2742 
Q 959 2388 959 1747 
Q 959 1106 1268 751 
Q 1578 397 2138 397 
Q 2388 397 2633 464 
Q 2878 531 3122 666 
L 3122 134 
Q 2881 22 2623 -34 
Q 2366 -91 2075 -91 
Q 1284 -91 818 406 
Q 353 903 353 1747 
Q 353 2603 823 3093 
Q 1294 3584 2113 3584 
Q 2378 3584 2631 3529 
Q 2884 3475 3122 3366 
z
" transform="scale(0.015625)"/>
      </defs>
      <use xlink:href="#DejaVuSans-54"/>
      <use xlink:href="#DejaVuSans-65" x="44.083984"/>
      <use xlink:href="#DejaVuSans-73" x="105.607422"/>
      <use xlink:href="#DejaVuSans-74" x="157.707031"/>
      <use xlink:href="#DejaVuSans-20" x="196.916016"/>
      <use xlink:href="#DejaVuSans-53" x="228.703125"/>
      <use xlink:href="#DejaVuSans-74" x="292.179688"/>
      <use xlink:href="#DejaVuSans-61" x="331.388672"/>
      <use xlink:href="#DejaVuSans-74" x="392.667969"/>
      <use xlink:href="#DejaVuSans-69" x="431.876953"/>
      <use xlink:href="#DejaVuSans-73" x="459.660156"/>
      <use xlink:href="#DejaVuSans-74" x="511.759766"/>
      <use xlink:href="#DejaVuSans-69" x="550.96875"/>
      <use xlink:href="#DejaVuSans-63" x="578.751953"/>
     </g>
    </g>
   </g>
   <g id="matplotlib.axis_2">
    <g id="text_2">
     <!-- Probability Density -->
     <g transform="translate(14.038594 156.970219) rotate(-90) scale(0.09 -0.09)">
      <defs>
       <path id="DejaVuSans-50" d="M 1259 4147 
L 1259 2394 
L 2053 2394 
Q 2494 2394 2734 2622 
Q 2975 2850 2975 3272 
Q 2975 3691 2734 3919 
Q 2494 4147 2053 4147 
L 1259 4147 
z
M 628 4666 
L 2053 4666 
Q 2838 4666 3239 4311 
Q 3641 3956 3641 3272 
Q 3641 2581 3239 2228 
Q 2838 1875 2053 1875 
L 1259 1875 
L 1259 0 
L 628 0 
L 628 4666 
z
" transform="scale(0.015625)"/>
       <path id="DejaVuSans-72" d="M 2631 2963 
Q 2534 3019 2420 3045 
Q 2306 3072 2169 3072 
Q 1681 3072 1420 2755 
Q 1159 2438 1159 1844 
L 1159 0 
L 581 0 
L 581 3500 
L 1159 3500 
L 1159 2956 
Q 1341 3275 1631 3429 
Q 1922 3584 2338 3584 
Q 2397 3584 2469 3576 
Q 2541 3569 2628 3553 
L 2631 2963 
z
" transform="scale(0.015625)"/>
       <path id="DejaVuSans-6f" d="M 1959 3097 
Q 1497 3097 1228 2736 
Q 959 2375 959 1747 
Q 959 1119 1226 758 
Q 1494 397 1959 397 
Q 2419 397 2687 759 
Q 2956 1122 2956 1747 
Q 2956 2369 2687 2733 
Q 2419 3097 1959 3097 
z
M 1959 3584 
Q 2709 3584 3137 3096 
Q 3566 2609 3566 1747 
Q 3566 888 3137 398 
Q 2709 -91 1959 -91 
Q 1206 -91 779 398 
Q 353 888 353 1747 
Q 353 2609 779 3096 
Q 1206 3584 1959 3584 
z
" transform="scale(0.015625)"/>
       <path id="DejaVuSans-62" d="M 3116 1747 
Q 3116 2381 2855 2742 
Q 2594 3103 2138 3103 
Q 1681 3103 1420 2742 
Q 1159 2381 1159 1747 
Q 1159 1113 1420 752 
Q 1681 391 2138 391 
Q 2594 391 2855 752 
Q 3116 1113 3116 1747 
z
M 1159 2969 
Q 1341 3281 1617 3432 
Q 1894 3584 2278 3584 
Q 2916 3584 3314 3078 
Q 3713 2572 3713 1747 
Q 3713 922 3314 415 
Q 2916 -91 2278 -91 
Q 1894 -91 1617 61 
Q 1341 213 1159 525 
L 1159 0 
L 581 0 
L 581 4863 
L 1159 4863 
L 1159 2969 
z
" transform="scale(0.015625)"/>
       <path id="DejaVuSans-6c" d="M 603 4863 
L 1178 4863 
L 1178 0 
L 603 0 
L 603 4863 
z
" transform="scale(0.015625)"/>
       <path id="DejaVuSans-79" d="M 2059 -325 
Q 1816 -950 1584 -1140 
Q 1353 -1331 966 -1331 
L 506 -1331 
L 506 -850 
L 844 -850 
Q 1081 -850 1212 -737 
Q 1344 -625 1503 -206 
L 1606 56 
L 191 3500 
L 800 3500 
L 1894 763 
L 2988 3500 
L 3597 3500 
L 2059 -325 
z
" transform="scale(0.015625)"/>
       <path id="DejaVuSans-44" d="M 1259 4147 
L 1259 519 
L 2022 519 
Q 2988 519 3436 956 
Q 3884 1394 3884 2338 
Q 3884 3275 3436 3711 
Q 2988 4147 2022 4147 
L 1259 4147 
z
M 628 4666 
L 1925 4666 
Q 3281 4666 3915 4102 
Q 4550 3538 4550 2338 
Q 4550 1131 3912 565 
Q 3275 0 1925 0 
L 628 0 
L 628 4666 
z
" transform="scale(0.015625)"/>
       <path id="DejaVuSans-6e" d="M 3513 2113 
L 3513 0 
L 2938 0 
L 2938 2094 
Q 2938 2591 2744 2837 
Q 2550 3084 2163 3084 
Q 1697 3084 1428 2787 
Q 1159 2491 1159 1978 
L 1159 0 
L 581 0 
L 581 3500 
L 1159 3500 
L 1159 2956 
Q 1366 3272 1645 3428 
Q 1925 3584 2291 3584 
Q 2894 3584 3203 3211 
Q 3513 2838 3513 2113 
z
" transform="scale(0.015625)"/>
      </defs>
      <use xlink:href="#DejaVuSans-50"/>
      <use xlink:href="#DejaVuSans-72" x="58.552734"/>
      <use xlink:href="#DejaVuSans-6f" x="97.416016"/>
      <use xlink:href="#DejaVuSans-62" x="158.597656"/>
      <use xlink:href="#DejaVuSans-61" x="222.074219"/>
      <use xlink:href="#DejaVuSans-62" x="283.353516"/>
      <use xlink:href="#DejaVuSans-69" x="346.830078"/>
      <use xlink:href="#DejaVuSans-6c" x="374.613281"/>
      <use xlink:href="#DejaVuSans-69" x="402.396484"/>
      <use xlink:href="#DejaVuSans-74" x="430.179688"/>
      <use xlink:href="#DejaVuSans-79" x="469.388672"/>
      <use xlink:href="#DejaVuSans-20" x="528.568359"/>
      <use xlink:href="#DejaVuSans-44" x="560.355469"/>
      <use xlink:href="#DejaVuSans-65" x="637.357422"/>
      <use xlink:href="#DejaVuSans-6e" x="698.880859"/>
      <use xlink:href="#DejaVuSans-73" x="762.259766"/>
      <use xlink:href="#DejaVuSans-69" x="814.359375"/>
      <use xlink:href="#DejaVuSans-74" x="842.142578"/>
      <use xlink:href="#DejaVuSans-79" x="881.351562"/>
     </g>
    </g>
   </g>
   <g id="line2d_1">
    <path d="M 19.910313 39.406313 
L 22.164858 52.889011 
L 24.419403 64.761322 
L 26.673949 75.298009 
L 28.928494 84.711351 
L 31.18304 93.1686 
L 33.437585 100.803772 
L 35.692131 107.725839 
L 37.946676 114.024558 
L 40.201222 119.774697 
L 42.455767 125.039175 
L 44.710313 129.871413 
L 46.964858 134.317135 
L 49.219403 138.415763 
L 51.473949 142.20151 
L 53.728494 145.704243 
L 55.98304 148.950178 
L 58.237585 151.962438 
L 60.492131 154.761515 
L 62.746676 157.365638 
L 65.001222 159.791093 
L 67.255767 162.052471 
L 69.510312 164.162898 
L 71.764858 166.134208 
L 74.019403 167.977106 
L 76.273949 169.701298 
L 78.528494 171.315606 
L 80.78304 172.828066 
L 83.037585 174.246014 
L 85.292131 175.57616 
L 87.546676 176.824653 
L 89.801222 177.997134 
L 92.055767 179.098792 
L 94.310312 180.134404 
L 96.564858 181.108373 
L 98.819403 182.024766 
L 101.073949 182.887341 
L 103.328494 183.699576 
L 105.58304 184.464696 
L 107.837585 185.185688 
L 110.092131 185.865329 
L 112.346676 186.506198 
L 114.601222 187.110693 
L 116.855767 187.681049 
L 119.110312 188.219346 
L 121.364858 188.727524 
L 123.619403 189.207394 
L 125.873949 189.660647 
L 128.128494 190.088861 
L 130.38304 190.493513 
L 132.637585 190.875986 
L 134.892131 191.237572 
L 137.146676 191.579482 
L 139.401222 191.902852 
L 141.655767 192.208746 
L 143.910312 192.498161 
L 146.164858 192.772034 
L 148.419403 193.031245 
L 150.673949 193.276619 
L 152.928494 193.508933 
L 155.18304 193.728917 
L 157.437585 193.937256 
L 159.692131 194.134595 
L 161.946676 194.321542 
L 164.201222 194.498669 
L 166.455767 194.666513 
L 168.710312 194.825582 
L 170.964858 194.976354 
L 173.219403 195.119278 
L 175.473949 195.25478 
L 177.728494 195.383259 
L 179.98304 195.505094 
L 182.237585 195.62064 
L 184.492131 195.730234 
L 186.746676 195.834192 
L 189.001222 195.932816 
L 191.255767 196.026387 
L 193.510312 196.115173 
L 195.764858 196.199426 
L 198.019403 196.279386 
L 200.273949 196.355277 
L 202.528494 196.427312 
L 204.78304 196.495695 
L 207.037585 196.560614 
L 209.292131 196.622251 
L 211.546676 196.680775 
L 213.801222 196.736349 
L 216.055767 196.789125 
L 218.310313 196.839247 
L 220.564858 196.886852 
L 222.819403 196.932071 
L 225.073949 196.975024 
L 227.328494 197.01583 
L 229.58304 197.054597 
L 231.837585 197.091429 
L 234.092131 197.126427 
L 236.346676 197.159682 
L 238.601222 197.191283 
L 240.855767 197.221315 
L 243.110312 197.249858 
" clip-path="url(#p9c91561a10)" style="fill: none; stroke: #1f77b4; stroke-width: 1.5; stroke-linecap: square"/>
   </g>
   <g id="LineCollection_1">
    <path d="M 44.710313 129.871413 
L 243.110312 129.871413 
" clip-path="url(#p9c91561a10)" style="fill: none; stroke-dasharray: 3.7,1.6; stroke-dashoffset: 0; stroke: #000000"/>
   </g>
   <g id="patch_3">
    <path d="M 19.910313 197.806312 
L 19.910313 31.486312 
" style="fill: none; stroke: #000000; stroke-width: 0.8; stroke-linejoin: miter; stroke-linecap: square"/>
   </g>
   <g id="patch_4">
    <path d="M 19.910313 197.806312 
L 243.110312 197.806312 
" style="fill: none; stroke: #000000; stroke-width: 0.8; stroke-linejoin: miter; stroke-linecap: square"/>
   </g>
   <g id="text_3">
    <!-- $\chi^2$-squared Distribution with 1 Degrees of Freedom -->
    <g transform="translate(16.220313 15.39) scale(0.09 -0.09)">
     <defs>
      <path id="DejaVuSans-Oblique-3c7" d="M 1922 -781 
L 1691 416 
L 394 -1334 
L -284 -1334 
L 1553 1141 
L 1269 2613 
Q 1194 3006 713 3006 
L 559 3006 
L 653 3500 
L 872 3494 
Q 1675 3472 1775 2950 
L 2006 1753 
L 3303 3503 
L 3981 3503 
L 2144 1028 
L 2428 -444 
Q 2503 -838 2984 -838 
L 3138 -838 
L 3044 -1331 
L 2825 -1325 
Q 2022 -1303 1922 -781 
z
" transform="scale(0.015625)"/>
      <path id="DejaVuSans-32" d="M 1228 531 
L 3431 531 
L 3431 0 
L 469 0 
L 469 531 
Q 828 903 1448 1529 
Q 2069 2156 2228 2338 
Q 2531 2678 2651 2914 
Q 2772 3150 2772 3378 
Q 2772 3750 2511 3984 
Q 2250 4219 1831 4219 
Q 1534 4219 1204 4116 
Q 875 4013 500 3803 
L 500 4441 
Q 881 4594 1212 4672 
Q 1544 4750 1819 4750 
Q 2544 4750 2975 4387 
Q 3406 4025 3406 3419 
Q 3406 3131 3298 2873 
Q 3191 2616 2906 2266 
Q 2828 2175 2409 1742 
Q 1991 1309 1228 531 
z
" transform="scale(0.015625)"/>
      <path id="DejaVuSans-2d" d="M 313 2009 
L 1997 2009 
L 1997 1497 
L 313 1497 
L 313 2009 
z
" transform="scale(0.015625)"/>
      <path id="DejaVuSans-71" d="M 947 1747 
Q 947 1113 1208 752 
Q 1469 391 1925 391 
Q 2381 391 2643 752 
Q 2906 1113 2906 1747 
Q 2906 2381 2643 2742 
Q 2381 3103 1925 3103 
Q 1469 3103 1208 2742 
Q 947 2381 947 1747 
z
M 2906 525 
Q 2725 213 2448 61 
Q 2172 -91 1784 -91 
Q 1150 -91 751 415 
Q 353 922 353 1747 
Q 353 2572 751 3078 
Q 1150 3584 1784 3584 
Q 2172 3584 2448 3432 
Q 2725 3281 2906 2969 
L 2906 3500 
L 3481 3500 
L 3481 -1331 
L 2906 -1331 
L 2906 525 
z
" transform="scale(0.015625)"/>
      <path id="DejaVuSans-75" d="M 544 1381 
L 544 3500 
L 1119 3500 
L 1119 1403 
Q 1119 906 1312 657 
Q 1506 409 1894 409 
Q 2359 409 2629 706 
Q 2900 1003 2900 1516 
L 2900 3500 
L 3475 3500 
L 3475 0 
L 2900 0 
L 2900 538 
Q 2691 219 2414 64 
Q 2138 -91 1772 -91 
Q 1169 -91 856 284 
Q 544 659 544 1381 
z
M 1991 3584 
L 1991 3584 
z
" transform="scale(0.015625)"/>
      <path id="DejaVuSans-64" d="M 2906 2969 
L 2906 4863 
L 3481 4863 
L 3481 0 
L 2906 0 
L 2906 525 
Q 2725 213 2448 61 
Q 2172 -91 1784 -91 
Q 1150 -91 751 415 
Q 353 922 353 1747 
Q 353 2572 751 3078 
Q 1150 3584 1784 3584 
Q 2172 3584 2448 3432 
Q 2725 3281 2906 2969 
z
M 947 1747 
Q 947 1113 1208 752 
Q 1469 391 1925 391 
Q 2381 391 2643 752 
Q 2906 1113 2906 1747 
Q 2906 2381 2643 2742 
Q 2381 3103 1925 3103 
Q 1469 3103 1208 2742 
Q 947 2381 947 1747 
z
" transform="scale(0.015625)"/>
      <path id="DejaVuSans-77" d="M 269 3500 
L 844 3500 
L 1563 769 
L 2278 3500 
L 2956 3500 
L 3675 769 
L 4391 3500 
L 4966 3500 
L 4050 0 
L 3372 0 
L 2619 2869 
L 1863 0 
L 1184 0 
L 269 3500 
z
" transform="scale(0.015625)"/>
      <path id="DejaVuSans-68" d="M 3513 2113 
L 3513 0 
L 2938 0 
L 2938 2094 
Q 2938 2591 2744 2837 
Q 2550 3084 2163 3084 
Q 1697 3084 1428 2787 
Q 1159 2491 1159 1978 
L 1159 0 
L 581 0 
L 581 4863 
L 1159 4863 
L 1159 2956 
Q 1366 3272 1645 3428 
Q 1925 3584 2291 3584 
Q 2894 3584 3203 3211 
Q 3513 2838 3513 2113 
z
" transform="scale(0.015625)"/>
      <path id="DejaVuSans-31" d="M 794 531 
L 1825 531 
L 1825 4091 
L 703 3866 
L 703 4441 
L 1819 4666 
L 2450 4666 
L 2450 531 
L 3481 531 
L 3481 0 
L 794 0 
L 794 531 
z
" transform="scale(0.015625)"/>
      <path id="DejaVuSans-67" d="M 2906 1791 
Q 2906 2416 2648 2759 
Q 2391 3103 1925 3103 
Q 1463 3103 1205 2759 
Q 947 2416 947 1791 
Q 947 1169 1205 825 
Q 1463 481 1925 481 
Q 2391 481 2648 825 
Q 2906 1169 2906 1791 
z
M 3481 434 
Q 3481 -459 3084 -895 
Q 2688 -1331 1869 -1331 
Q 1566 -1331 1297 -1286 
Q 1028 -1241 775 -1147 
L 775 -588 
Q 1028 -725 1275 -790 
Q 1522 -856 1778 -856 
Q 2344 -856 2625 -561 
Q 2906 -266 2906 331 
L 2906 616 
Q 2728 306 2450 153 
Q 2172 0 1784 0 
Q 1141 0 747 490 
Q 353 981 353 1791 
Q 353 2603 747 3093 
Q 1141 3584 1784 3584 
Q 2172 3584 2450 3431 
Q 2728 3278 2906 2969 
L 2906 3500 
L 3481 3500 
L 3481 434 
z
" transform="scale(0.015625)"/>
      <path id="DejaVuSans-66" d="M 2375 4863 
L 2375 4384 
L 1825 4384 
Q 1516 4384 1395 4259 
Q 1275 4134 1275 3809 
L 1275 3500 
L 2222 3500 
L 2222 3053 
L 1275 3053 
L 1275 0 
L 697 0 
L 697 3053 
L 147 3053 
L 147 3500 
L 697 3500 
L 697 3744 
Q 697 4328 969 4595 
Q 1241 4863 1831 4863 
L 2375 4863 
z
" transform="scale(0.015625)"/>
      <path id="DejaVuSans-46" d="M 628 4666 
L 3309 4666 
L 3309 4134 
L 1259 4134 
L 1259 2759 
L 3109 2759 
L 3109 2228 
L 1259 2228 
L 1259 0 
L 628 0 
L 628 4666 
z
" transform="scale(0.015625)"/>
      <path id="DejaVuSans-6d" d="M 3328 2828 
Q 3544 3216 3844 3400 
Q 4144 3584 4550 3584 
Q 5097 3584 5394 3201 
Q 5691 2819 5691 2113 
L 5691 0 
L 5113 0 
L 5113 2094 
Q 5113 2597 4934 2840 
Q 4756 3084 4391 3084 
Q 3944 3084 3684 2787 
Q 3425 2491 3425 1978 
L 3425 0 
L 2847 0 
L 2847 2094 
Q 2847 2600 2669 2842 
Q 2491 3084 2119 3084 
Q 1678 3084 1418 2786 
Q 1159 2488 1159 1978 
L 1159 0 
L 581 0 
L 581 3500 
L 1159 3500 
L 1159 2956 
Q 1356 3278 1631 3431 
Q 1906 3584 2284 3584 
Q 2666 3584 2933 3390 
Q 3200 3197 3328 2828 
z
" transform="scale(0.015625)"/>
     </defs>
     <use xlink:href="#DejaVuSans-Oblique-3c7" transform="translate(0 0.765625)"/>
     <use xlink:href="#DejaVuSans-32" transform="translate(63.652396 39.046875) scale(0.7)"/>
     <use xlink:href="#DejaVuSans-2d" transform="translate(110.922904 0.765625)"/>
     <use xlink:href="#DejaVuSans-73" transform="translate(147.006888 0.765625)"/>
     <use xlink:href="#DejaVuSans-71" transform="translate(199.106497 0.765625)"/>
     <use xlink:href="#DejaVuSans-75" transform="translate(262.58306 0.765625)"/>
     <use xlink:href="#DejaVuSans-61" transform="translate(325.961966 0.765625)"/>
     <use xlink:href="#DejaVuSans-72" transform="translate(387.241263 0.765625)"/>
     <use xlink:href="#DejaVuSans-65" transform="translate(428.354544 0.765625)"/>
     <use xlink:href="#DejaVuSans-64" transform="translate(489.877982 0.765625)"/>
     <use xlink:href="#DejaVuSans-20" transform="translate(553.354544 0.765625)"/>
     <use xlink:href="#DejaVuSans-44" transform="translate(585.141654 0.765625)"/>
     <use xlink:href="#DejaVuSans-69" transform="translate(662.143607 0.765625)"/>
     <use xlink:href="#DejaVuSans-73" transform="translate(689.92681 0.765625)"/>
     <use xlink:href="#DejaVuSans-74" transform="translate(742.026419 0.765625)"/>
     <use xlink:href="#DejaVuSans-72" transform="translate(781.235404 0.765625)"/>
     <use xlink:href="#DejaVuSans-69" transform="translate(822.348685 0.765625)"/>
     <use xlink:href="#DejaVuSans-62" transform="translate(850.131888 0.765625)"/>
     <use xlink:href="#DejaVuSans-75" transform="translate(913.608451 0.765625)"/>
     <use xlink:href="#DejaVuSans-74" transform="translate(976.987357 0.765625)"/>
     <use xlink:href="#DejaVuSans-69" transform="translate(1016.196341 0.765625)"/>
     <use xlink:href="#DejaVuSans-6f" transform="translate(1043.979544 0.765625)"/>
     <use xlink:href="#DejaVuSans-6e" transform="translate(1105.161185 0.765625)"/>
     <use xlink:href="#DejaVuSans-20" transform="translate(1168.540091 0.765625)"/>
     <use xlink:href="#DejaVuSans-77" transform="translate(1200.327201 0.765625)"/>
     <use xlink:href="#DejaVuSans-69" transform="translate(1282.11431 0.765625)"/>
     <use xlink:href="#DejaVuSans-74" transform="translate(1309.897513 0.765625)"/>
     <use xlink:href="#DejaVuSans-68" transform="translate(1349.106497 0.765625)"/>
     <use xlink:href="#DejaVuSans-20" transform="translate(1412.485404 0.765625)"/>
     <use xlink:href="#DejaVuSans-31" transform="translate(1444.272513 0.765625)"/>
     <use xlink:href="#DejaVuSans-20" transform="translate(1507.89556 0.765625)"/>
     <use xlink:href="#DejaVuSans-44" transform="translate(1539.682669 0.765625)"/>
     <use xlink:href="#DejaVuSans-65" transform="translate(1616.684622 0.765625)"/>
     <use xlink:href="#DejaVuSans-67" transform="translate(1678.20806 0.765625)"/>
     <use xlink:href="#DejaVuSans-72" transform="translate(1741.684622 0.765625)"/>
     <use xlink:href="#DejaVuSans-65" transform="translate(1782.797904 0.765625)"/>
     <use xlink:href="#DejaVuSans-65" transform="translate(1844.321341 0.765625)"/>
     <use xlink:href="#DejaVuSans-73" transform="translate(1905.844779 0.765625)"/>
     <use xlink:href="#DejaVuSans-20" transform="translate(1957.944388 0.765625)"/>
     <use xlink:href="#DejaVuSans-6f" transform="translate(1989.731497 0.765625)"/>
     <use xlink:href="#DejaVuSans-66" transform="translate(2050.913138 0.765625)"/>
     <use xlink:href="#DejaVuSans-20" transform="translate(2086.118216 0.765625)"/>
     <use xlink:href="#DejaVuSans-46" transform="translate(2117.905326 0.765625)"/>
     <use xlink:href="#DejaVuSans-72" transform="translate(2175.424857 0.765625)"/>
     <use xlink:href="#DejaVuSans-65" transform="translate(2216.538138 0.765625)"/>
     <use xlink:href="#DejaVuSans-65" transform="translate(2278.061576 0.765625)"/>
     <use xlink:href="#DejaVuSans-64" transform="translate(2339.585013 0.765625)"/>
     <use xlink:href="#DejaVuSans-6f" transform="translate(2403.061576 0.765625)"/>
     <use xlink:href="#DejaVuSans-6d" transform="translate(2464.243216 0.765625)"/>
    </g>
    <!--  -->
    <g transform="translate(131.510312 25.486312) scale(0.09 -0.09)"/>
   </g>
   <g id="PathCollection_1">
    <defs>
     <path id="m3b22de96b8" d="M 0 2.236068 
C 0.593012 2.236068 1.161816 2.000462 1.581139 1.581139 
C 2.000462 1.161816 2.236068 0.593012 2.236068 0 
C 2.236068 -0.593012 2.000462 -1.161816 1.581139 -1.581139 
C 1.161816 -2.000462 0.593012 -2.236068 0 -2.236068 
C -0.593012 -2.236068 -1.161816 -2.000462 -1.581139 -1.581139 
C -2.000462 -1.161816 -2.236068 -0.593012 -2.236068 0 
C -2.236068 0.593012 -2.000462 1.161816 -1.581139 1.581139 
C -1.161816 2.000462 -0.593012 2.236068 0 2.236068 
z
" style="stroke: #000000"/>
    </defs>
    <g clip-path="url(#p9c91561a10)">
     <use xlink:href="#m3b22de96b8" x="44.710313" y="129.871413" style="stroke: #000000"/>
    </g>
   </g>
   <g id="legend_1">
    <g id="patch_5">
     <path d="M 118.390312 74.331313 
L 237.510312 74.331313 
Q 239.110312 74.331313 239.110312 72.731313 
L 239.110312 37.086313 
Q 239.110312 35.486313 237.510312 35.486313 
L 118.390312 35.486313 
Q 116.790312 35.486313 116.790312 37.086313 
L 116.790312 72.731313 
Q 116.790312 74.331313 118.390312 74.331313 
z
" style="fill: #ffffff; opacity: 0.8; stroke: #cccccc; stroke-linejoin: miter"/>
    </g>
    <g id="line2d_2">
     <path d="M 119.990313 43.166313 
L 127.990313 43.166313 
L 135.990313 43.166313 
" style="fill: none; stroke: #1f77b4; stroke-width: 1.5; stroke-linecap: square"/>
    </g>
    <g id="text_4">
     <!-- $\chi^2$-squared Distribution -->
     <g transform="translate(142.390312 45.966313) scale(0.08 -0.08)">
      <use xlink:href="#DejaVuSans-Oblique-3c7" transform="translate(0 0.765625)"/>
      <use xlink:href="#DejaVuSans-32" transform="translate(63.652396 39.046875) scale(0.7)"/>
      <use xlink:href="#DejaVuSans-2d" transform="translate(110.922904 0.765625)"/>
      <use xlink:href="#DejaVuSans-73" transform="translate(147.006888 0.765625)"/>
      <use xlink:href="#DejaVuSans-71" transform="translate(199.106497 0.765625)"/>
      <use xlink:href="#DejaVuSans-75" transform="translate(262.58306 0.765625)"/>
      <use xlink:href="#DejaVuSans-61" transform="translate(325.961966 0.765625)"/>
      <use xlink:href="#DejaVuSans-72" transform="translate(387.241263 0.765625)"/>
      <use xlink:href="#DejaVuSans-65" transform="translate(428.354544 0.765625)"/>
      <use xlink:href="#DejaVuSans-64" transform="translate(489.877982 0.765625)"/>
      <use xlink:href="#DejaVuSans-20" transform="translate(553.354544 0.765625)"/>
      <use xlink:href="#DejaVuSans-44" transform="translate(585.141654 0.765625)"/>
      <use xlink:href="#DejaVuSans-69" transform="translate(662.143607 0.765625)"/>
      <use xlink:href="#DejaVuSans-73" transform="translate(689.92681 0.765625)"/>
      <use xlink:href="#DejaVuSans-74" transform="translate(742.026419 0.765625)"/>
      <use xlink:href="#DejaVuSans-72" transform="translate(781.235404 0.765625)"/>
      <use xlink:href="#DejaVuSans-69" transform="translate(822.348685 0.765625)"/>
      <use xlink:href="#DejaVuSans-62" transform="translate(850.131888 0.765625)"/>
      <use xlink:href="#DejaVuSans-75" transform="translate(913.608451 0.765625)"/>
      <use xlink:href="#DejaVuSans-74" transform="translate(976.987357 0.765625)"/>
      <use xlink:href="#DejaVuSans-69" transform="translate(1016.196341 0.765625)"/>
      <use xlink:href="#DejaVuSans-6f" transform="translate(1043.979544 0.765625)"/>
      <use xlink:href="#DejaVuSans-6e" transform="translate(1105.161185 0.765625)"/>
     </g>
    </g>
    <g id="patch_6">
     <path d="M 119.990313 57.725063 
L 135.990313 57.725063 
L 135.990313 52.125063 
L 119.990313 52.125063 
z
" style="fill: #ff6347; fill-opacity: 0.5; stroke: #ff6347; stroke-opacity: 0.5; stroke-linejoin: miter"/>
    </g>
    <g id="text_5">
     <!-- LRT p-value -->
     <g transform="translate(142.390312 57.725063) scale(0.08 -0.08)">
      <defs>
       <path id="DejaVuSans-4c" d="M 628 4666 
L 1259 4666 
L 1259 531 
L 3531 531 
L 3531 0 
L 628 0 
L 628 4666 
z
" transform="scale(0.015625)"/>
       <path id="DejaVuSans-52" d="M 2841 2188 
Q 3044 2119 3236 1894 
Q 3428 1669 3622 1275 
L 4263 0 
L 3584 0 
L 2988 1197 
Q 2756 1666 2539 1819 
Q 2322 1972 1947 1972 
L 1259 1972 
L 1259 0 
L 628 0 
L 628 4666 
L 2053 4666 
Q 2853 4666 3247 4331 
Q 3641 3997 3641 3322 
Q 3641 2881 3436 2590 
Q 3231 2300 2841 2188 
z
M 1259 4147 
L 1259 2491 
L 2053 2491 
Q 2509 2491 2742 2702 
Q 2975 2913 2975 3322 
Q 2975 3731 2742 3939 
Q 2509 4147 2053 4147 
L 1259 4147 
z
" transform="scale(0.015625)"/>
       <path id="DejaVuSans-70" d="M 1159 525 
L 1159 -1331 
L 581 -1331 
L 581 3500 
L 1159 3500 
L 1159 2969 
Q 1341 3281 1617 3432 
Q 1894 3584 2278 3584 
Q 2916 3584 3314 3078 
Q 3713 2572 3713 1747 
Q 3713 922 3314 415 
Q 2916 -91 2278 -91 
Q 1894 -91 1617 61 
Q 1341 213 1159 525 
z
M 3116 1747 
Q 3116 2381 2855 2742 
Q 2594 3103 2138 3103 
Q 1681 3103 1420 2742 
Q 1159 2381 1159 1747 
Q 1159 1113 1420 752 
Q 1681 391 2138 391 
Q 2594 391 2855 752 
Q 3116 1113 3116 1747 
z
" transform="scale(0.015625)"/>
       <path id="DejaVuSans-76" d="M 191 3500 
L 800 3500 
L 1894 563 
L 2988 3500 
L 3597 3500 
L 2284 0 
L 1503 0 
L 191 3500 
z
" transform="scale(0.015625)"/>
      </defs>
      <use xlink:href="#DejaVuSans-4c"/>
      <use xlink:href="#DejaVuSans-52" x="55.712891"/>
      <use xlink:href="#DejaVuSans-54" x="117.945312"/>
      <use xlink:href="#DejaVuSans-20" x="179.029297"/>
      <use xlink:href="#DejaVuSans-70" x="210.816406"/>
      <use xlink:href="#DejaVuSans-2d" x="274.292969"/>
      <use xlink:href="#DejaVuSans-76" x="307.751953"/>
      <use xlink:href="#DejaVuSans-61" x="366.931641"/>
      <use xlink:href="#DejaVuSans-6c" x="428.210938"/>
      <use xlink:href="#DejaVuSans-75" x="455.994141"/>
      <use xlink:href="#DejaVuSans-65" x="519.373047"/>
     </g>
    </g>
    <g id="line2d_3">
     <path d="M 119.990313 66.667563 
L 135.990313 66.667563 
" style="fill: none; stroke-dasharray: 3.7,1.6; stroke-dashoffset: 0; stroke: #000000"/>
    </g>
    <g id="text_6">
     <!-- Test Statistic -->
     <g transform="translate(142.390312 69.467563) scale(0.08 -0.08)">
      <use xlink:href="#DejaVuSans-54"/>
      <use xlink:href="#DejaVuSans-65" x="44.083984"/>
      <use xlink:href="#DejaVuSans-73" x="105.607422"/>
      <use xlink:href="#DejaVuSans-74" x="157.707031"/>
      <use xlink:href="#DejaVuSans-20" x="196.916016"/>
      <use xlink:href="#DejaVuSans-53" x="228.703125"/>
      <use xlink:href="#DejaVuSans-74" x="292.179688"/>
      <use xlink:href="#DejaVuSans-61" x="331.388672"/>
      <use xlink:href="#DejaVuSans-74" x="392.667969"/>
      <use xlink:href="#DejaVuSans-69" x="431.876953"/>
      <use xlink:href="#DejaVuSans-73" x="459.660156"/>
      <use xlink:href="#DejaVuSans-74" x="511.759766"/>
      <use xlink:href="#DejaVuSans-69" x="550.96875"/>
      <use xlink:href="#DejaVuSans-63" x="578.751953"/>
     </g>
    </g>
   </g>
  </g>
 </g>
 <defs>
  <clipPath id="p9c91561a10">
   <rect x="19.910313" y="31.486312" width="223.2" height="166.32"/>
  </clipPath>
 </defs>
</svg>
