<?xml version="1.0" encoding="utf-8" standalone="no"?>
<!DOCTYPE svg PUBLIC "-//W3C//DTD SVG 1.1//EN"
  "http://www.w3.org/Graphics/SVG/1.1/DTD/svg11.dtd">
<svg xmlns:xlink="http://www.w3.org/1999/xlink" width="242.641609pt" height="221.011406pt" viewBox="0 0 242.641609 221.011406" xmlns="http://www.w3.org/2000/svg" version="1.1">
 <metadata>
  <rdf:RDF xmlns:dc="http://purl.org/dc/elements/1.1/" xmlns:cc="http://creativecommons.org/ns#" xmlns:rdf="http://www.w3.org/1999/02/22-rdf-syntax-ns#">
   <cc:Work>
    <dc:type rdf:resource="http://purl.org/dc/dcmitype/StillImage"/>
    <dc:date>2024-06-27T00:58:19.288965</dc:date>
    <dc:format>image/svg+xml</dc:format>
    <dc:creator>
     <cc:Agent>
      <dc:title>Matplotlib v3.8.1, https://matplotlib.org/</dc:title>
     </cc:Agent>
    </dc:creator>
   </cc:Work>
  </rdf:RDF>
 </metadata>
 <defs>
  <style type="text/css">*{stroke-linejoin: round; stroke-linecap: butt}</style>
 </defs>
 <g id="figure_1">
  <g id="patch_1">
   <path d="M 0 221.011406 
L 242.641609 221.011406 
L 242.641609 0 
L 0 0 
z
" style="fill: #ffffff"/>
  </g>
  <g id="axes_1">
   <g id="patch_2">
    <path d="M 12.241609 186.358594 
L 235.441609 186.358594 
L 235.441609 20.038594 
L 12.241609 20.038594 
z
" style="fill: #ffffff"/>
   </g>
   <g id="patch_3">
    <path d="M 22.387063 186.358594 
L 30.841609 186.358594 
L 30.841609 185.027501 
L 22.387063 185.027501 
z
" clip-path="url(#p60b522b9d7)" style="fill: #1f77b4; fill-opacity: 0.75; stroke: #000000; stroke-width: 0.845455; stroke-linejoin: miter"/>
   </g>
   <g id="patch_4">
    <path d="M 30.841609 186.358594 
L 39.296154 186.358594 
L 39.296154 186.358594 
L 30.841609 186.358594 
z
" clip-path="url(#p60b522b9d7)" style="fill: #1f77b4; fill-opacity: 0.75; stroke: #000000; stroke-width: 0.845455; stroke-linejoin: miter"/>
   </g>
   <g id="patch_5">
    <path d="M 39.296154 186.358594 
L 47.7507 186.358594 
L 47.7507 185.027501 
L 39.296154 185.027501 
z
" clip-path="url(#p60b522b9d7)" style="fill: #1f77b4; fill-opacity: 0.75; stroke: #000000; stroke-width: 0.845455; stroke-linejoin: miter"/>
   </g>
   <g id="patch_6">
    <path d="M 47.7507 186.358594 
L 56.205245 186.358594 
L 56.205245 182.365316 
L 47.7507 182.365316 
z
" clip-path="url(#p60b522b9d7)" style="fill: #1f77b4; fill-opacity: 0.75; stroke: #000000; stroke-width: 0.845455; stroke-linejoin: miter"/>
   </g>
   <g id="patch_7">
    <path d="M 56.205245 186.358594 
L 64.659791 186.358594 
L 64.659791 181.034224 
L 56.205245 181.034224 
z
" clip-path="url(#p60b522b9d7)" style="fill: #1f77b4; fill-opacity: 0.75; stroke: #000000; stroke-width: 0.845455; stroke-linejoin: miter"/>
   </g>
   <g id="patch_8">
    <path d="M 64.659791 186.358594 
L 73.114336 186.358594 
L 73.114336 173.047669 
L 64.659791 173.047669 
z
" clip-path="url(#p60b522b9d7)" style="fill: #1f77b4; fill-opacity: 0.75; stroke: #000000; stroke-width: 0.845455; stroke-linejoin: miter"/>
   </g>
   <g id="patch_9">
    <path d="M 73.114336 186.358594 
L 81.568881 186.358594 
L 81.568881 149.088006 
L 73.114336 149.088006 
z
" clip-path="url(#p60b522b9d7)" style="fill: #1f77b4; fill-opacity: 0.75; stroke: #000000; stroke-width: 0.845455; stroke-linejoin: miter"/>
   </g>
   <g id="patch_10">
    <path d="M 81.568881 186.358594 
L 90.023427 186.358594 
L 90.023427 141.101451 
L 81.568881 141.101451 
z
" clip-path="url(#p60b522b9d7)" style="fill: #1f77b4; fill-opacity: 0.75; stroke: #000000; stroke-width: 0.845455; stroke-linejoin: miter"/>
   </g>
   <g id="patch_11">
    <path d="M 90.023427 186.358594 
L 98.477972 186.358594 
L 98.477972 119.803972 
L 90.023427 119.803972 
z
" clip-path="url(#p60b522b9d7)" style="fill: #1f77b4; fill-opacity: 0.75; stroke: #000000; stroke-width: 0.845455; stroke-linejoin: miter"/>
   </g>
   <g id="patch_12">
    <path d="M 98.477972 186.358594 
L 106.932518 186.358594 
L 106.932518 103.830863 
L 98.477972 103.830863 
z
" clip-path="url(#p60b522b9d7)" style="fill: #1f77b4; fill-opacity: 0.75; stroke: #000000; stroke-width: 0.845455; stroke-linejoin: miter"/>
   </g>
   <g id="patch_13">
    <path d="M 106.932518 186.358594 
L 115.387063 186.358594 
L 115.387063 94.513216 
L 106.932518 94.513216 
z
" clip-path="url(#p60b522b9d7)" style="fill: #1f77b4; fill-opacity: 0.75; stroke: #000000; stroke-width: 0.845455; stroke-linejoin: miter"/>
   </g>
   <g id="patch_14">
    <path d="M 115.387063 186.358594 
L 123.841609 186.358594 
L 123.841609 43.931703 
L 115.387063 43.931703 
z
" clip-path="url(#p60b522b9d7)" style="fill: #1f77b4; fill-opacity: 0.75; stroke: #000000; stroke-width: 0.845455; stroke-linejoin: miter"/>
   </g>
   <g id="patch_15">
    <path d="M 123.841609 186.358594 
L 132.296154 186.358594 
L 132.296154 53.24935 
L 123.841609 53.24935 
z
" clip-path="url(#p60b522b9d7)" style="fill: #1f77b4; fill-opacity: 0.75; stroke: #000000; stroke-width: 0.845455; stroke-linejoin: miter"/>
   </g>
   <g id="patch_16">
    <path d="M 132.296154 186.358594 
L 140.7507 186.358594 
L 140.7507 55.911535 
L 132.296154 55.911535 
z
" clip-path="url(#p60b522b9d7)" style="fill: #1f77b4; fill-opacity: 0.75; stroke: #000000; stroke-width: 0.845455; stroke-linejoin: miter"/>
   </g>
   <g id="patch_17">
    <path d="M 140.7507 186.358594 
L 149.205245 186.358594 
L 149.205245 27.958594 
L 140.7507 27.958594 
z
" clip-path="url(#p60b522b9d7)" style="fill: #1f77b4; fill-opacity: 0.75; stroke: #000000; stroke-width: 0.845455; stroke-linejoin: miter"/>
   </g>
   <g id="patch_18">
    <path d="M 149.205245 186.358594 
L 157.659791 186.358594 
L 157.659791 81.202291 
L 149.205245 81.202291 
z
" clip-path="url(#p60b522b9d7)" style="fill: #1f77b4; fill-opacity: 0.75; stroke: #000000; stroke-width: 0.845455; stroke-linejoin: miter"/>
   </g>
   <g id="patch_19">
    <path d="M 157.659791 186.358594 
L 166.114336 186.358594 
L 166.114336 69.222459 
L 157.659791 69.222459 
z
" clip-path="url(#p60b522b9d7)" style="fill: #1f77b4; fill-opacity: 0.75; stroke: #000000; stroke-width: 0.845455; stroke-linejoin: miter"/>
   </g>
   <g id="patch_20">
    <path d="M 166.114336 186.358594 
L 174.568881 186.358594 
L 174.568881 114.479602 
L 166.114336 114.479602 
z
" clip-path="url(#p60b522b9d7)" style="fill: #1f77b4; fill-opacity: 0.75; stroke: #000000; stroke-width: 0.845455; stroke-linejoin: miter"/>
   </g>
   <g id="patch_21">
    <path d="M 174.568881 186.358594 
L 183.023427 186.358594 
L 183.023427 135.777081 
L 174.568881 135.777081 
z
" clip-path="url(#p60b522b9d7)" style="fill: #1f77b4; fill-opacity: 0.75; stroke: #000000; stroke-width: 0.845455; stroke-linejoin: miter"/>
   </g>
   <g id="patch_22">
    <path d="M 183.023427 186.358594 
L 191.477972 186.358594 
L 191.477972 151.75019 
L 183.023427 151.75019 
z
" clip-path="url(#p60b522b9d7)" style="fill: #1f77b4; fill-opacity: 0.75; stroke: #000000; stroke-width: 0.845455; stroke-linejoin: miter"/>
   </g>
   <g id="patch_23">
    <path d="M 191.477972 186.358594 
L 199.932518 186.358594 
L 199.932518 167.7233 
L 191.477972 167.7233 
z
" clip-path="url(#p60b522b9d7)" style="fill: #1f77b4; fill-opacity: 0.75; stroke: #000000; stroke-width: 0.845455; stroke-linejoin: miter"/>
   </g>
   <g id="patch_24">
    <path d="M 199.932518 186.358594 
L 208.387063 186.358594 
L 208.387063 173.047669 
L 199.932518 173.047669 
z
" clip-path="url(#p60b522b9d7)" style="fill: #1f77b4; fill-opacity: 0.75; stroke: #000000; stroke-width: 0.845455; stroke-linejoin: miter"/>
   </g>
   <g id="patch_25">
    <path d="M 208.387063 186.358594 
L 216.841609 186.358594 
L 216.841609 183.696409 
L 208.387063 183.696409 
z
" clip-path="url(#p60b522b9d7)" style="fill: #1f77b4; fill-opacity: 0.75; stroke: #000000; stroke-width: 0.845455; stroke-linejoin: miter"/>
   </g>
   <g id="patch_26">
    <path d="M 216.841609 186.358594 
L 225.296154 186.358594 
L 225.296154 182.365316 
L 216.841609 182.365316 
z
" clip-path="url(#p60b522b9d7)" style="fill: #1f77b4; fill-opacity: 0.75; stroke: #000000; stroke-width: 0.845455; stroke-linejoin: miter"/>
   </g>
   <g id="matplotlib.axis_1">
    <g id="xtick_1">
     <g id="line2d_1">
      <defs>
       <path id="m8084de4e54" d="M 0 0 
L 0 3.5 
" style="stroke: #000000; stroke-width: 0.8"/>
      </defs>
      <g>
       <use xlink:href="#m8084de4e54" x="18.65125" y="186.358594" style="stroke: #000000; stroke-width: 0.8"/>
      </g>
     </g>
     <g id="text_1">
      <!-- 0.925 -->
      <g transform="translate(7.2 199.437344) scale(0.08 -0.08)">
       <defs>
        <path id="DejaVuSans-30" d="M 2034 4250 
Q 1547 4250 1301 3770 
Q 1056 3291 1056 2328 
Q 1056 1369 1301 889 
Q 1547 409 2034 409 
Q 2525 409 2770 889 
Q 3016 1369 3016 2328 
Q 3016 3291 2770 3770 
Q 2525 4250 2034 4250 
z
M 2034 4750 
Q 2819 4750 3233 4129 
Q 3647 3509 3647 2328 
Q 3647 1150 3233 529 
Q 2819 -91 2034 -91 
Q 1250 -91 836 529 
Q 422 1150 422 2328 
Q 422 3509 836 4129 
Q 1250 4750 2034 4750 
z
" transform="scale(0.015625)"/>
        <path id="DejaVuSans-2e" d="M 684 794 
L 1344 794 
L 1344 0 
L 684 0 
L 684 794 
z
" transform="scale(0.015625)"/>
        <path id="DejaVuSans-39" d="M 703 97 
L 703 672 
Q 941 559 1184 500 
Q 1428 441 1663 441 
Q 2288 441 2617 861 
Q 2947 1281 2994 2138 
Q 2813 1869 2534 1725 
Q 2256 1581 1919 1581 
Q 1219 1581 811 2004 
Q 403 2428 403 3163 
Q 403 3881 828 4315 
Q 1253 4750 1959 4750 
Q 2769 4750 3195 4129 
Q 3622 3509 3622 2328 
Q 3622 1225 3098 567 
Q 2575 -91 1691 -91 
Q 1453 -91 1209 -44 
Q 966 3 703 97 
z
M 1959 2075 
Q 2384 2075 2632 2365 
Q 2881 2656 2881 3163 
Q 2881 3666 2632 3958 
Q 2384 4250 1959 4250 
Q 1534 4250 1286 3958 
Q 1038 3666 1038 3163 
Q 1038 2656 1286 2365 
Q 1534 2075 1959 2075 
z
" transform="scale(0.015625)"/>
        <path id="DejaVuSans-32" d="M 1228 531 
L 3431 531 
L 3431 0 
L 469 0 
L 469 531 
Q 828 903 1448 1529 
Q 2069 2156 2228 2338 
Q 2531 2678 2651 2914 
Q 2772 3150 2772 3378 
Q 2772 3750 2511 3984 
Q 2250 4219 1831 4219 
Q 1534 4219 1204 4116 
Q 875 4013 500 3803 
L 500 4441 
Q 881 4594 1212 4672 
Q 1544 4750 1819 4750 
Q 2544 4750 2975 4387 
Q 3406 4025 3406 3419 
Q 3406 3131 3298 2873 
Q 3191 2616 2906 2266 
Q 2828 2175 2409 1742 
Q 1991 1309 1228 531 
z
" transform="scale(0.015625)"/>
        <path id="DejaVuSans-35" d="M 691 4666 
L 3169 4666 
L 3169 4134 
L 1269 4134 
L 1269 2991 
Q 1406 3038 1543 3061 
Q 1681 3084 1819 3084 
Q 2600 3084 3056 2656 
Q 3513 2228 3513 1497 
Q 3513 744 3044 326 
Q 2575 -91 1722 -91 
Q 1428 -91 1123 -41 
Q 819 9 494 109 
L 494 744 
Q 775 591 1075 516 
Q 1375 441 1709 441 
Q 2250 441 2565 725 
Q 2881 1009 2881 1497 
Q 2881 1984 2565 2268 
Q 2250 2553 1709 2553 
Q 1456 2553 1204 2497 
Q 953 2441 691 2322 
L 691 4666 
z
" transform="scale(0.015625)"/>
       </defs>
       <use xlink:href="#DejaVuSans-30"/>
       <use xlink:href="#DejaVuSans-2e" x="63.623047"/>
       <use xlink:href="#DejaVuSans-39" x="95.410156"/>
       <use xlink:href="#DejaVuSans-32" x="159.033203"/>
       <use xlink:href="#DejaVuSans-35" x="222.65625"/>
      </g>
     </g>
    </g>
    <g id="xtick_2">
     <g id="line2d_2">
      <g>
       <use xlink:href="#m8084de4e54" x="57.163353" y="186.358594" style="stroke: #000000; stroke-width: 0.8"/>
      </g>
     </g>
     <g id="text_2">
      <!-- 0.950 -->
      <g transform="translate(45.712103 199.437344) scale(0.08 -0.08)">
       <use xlink:href="#DejaVuSans-30"/>
       <use xlink:href="#DejaVuSans-2e" x="63.623047"/>
       <use xlink:href="#DejaVuSans-39" x="95.410156"/>
       <use xlink:href="#DejaVuSans-35" x="159.033203"/>
       <use xlink:href="#DejaVuSans-30" x="222.65625"/>
      </g>
     </g>
    </g>
    <g id="xtick_3">
     <g id="line2d_3">
      <g>
       <use xlink:href="#m8084de4e54" x="95.675456" y="186.358594" style="stroke: #000000; stroke-width: 0.8"/>
      </g>
     </g>
     <g id="text_3">
      <!-- 0.975 -->
      <g transform="translate(84.224206 199.437344) scale(0.08 -0.08)">
       <defs>
        <path id="DejaVuSans-37" d="M 525 4666 
L 3525 4666 
L 3525 4397 
L 1831 0 
L 1172 0 
L 2766 4134 
L 525 4134 
L 525 4666 
z
" transform="scale(0.015625)"/>
       </defs>
       <use xlink:href="#DejaVuSans-30"/>
       <use xlink:href="#DejaVuSans-2e" x="63.623047"/>
       <use xlink:href="#DejaVuSans-39" x="95.410156"/>
       <use xlink:href="#DejaVuSans-37" x="159.033203"/>
       <use xlink:href="#DejaVuSans-35" x="222.65625"/>
      </g>
     </g>
    </g>
    <g id="xtick_4">
     <g id="line2d_4">
      <g>
       <use xlink:href="#m8084de4e54" x="134.187559" y="186.358594" style="stroke: #000000; stroke-width: 0.8"/>
      </g>
     </g>
     <g id="text_4">
      <!-- 1.000 -->
      <g transform="translate(122.736309 199.437344) scale(0.08 -0.08)">
       <defs>
        <path id="DejaVuSans-31" d="M 794 531 
L 1825 531 
L 1825 4091 
L 703 3866 
L 703 4441 
L 1819 4666 
L 2450 4666 
L 2450 531 
L 3481 531 
L 3481 0 
L 794 0 
L 794 531 
z
" transform="scale(0.015625)"/>
       </defs>
       <use xlink:href="#DejaVuSans-31"/>
       <use xlink:href="#DejaVuSans-2e" x="63.623047"/>
       <use xlink:href="#DejaVuSans-30" x="95.410156"/>
       <use xlink:href="#DejaVuSans-30" x="159.033203"/>
       <use xlink:href="#DejaVuSans-30" x="222.65625"/>
      </g>
     </g>
    </g>
    <g id="xtick_5">
     <g id="line2d_5">
      <g>
       <use xlink:href="#m8084de4e54" x="172.699662" y="186.358594" style="stroke: #000000; stroke-width: 0.8"/>
      </g>
     </g>
     <g id="text_5">
      <!-- 1.025 -->
      <g transform="translate(161.248412 199.437344) scale(0.08 -0.08)">
       <use xlink:href="#DejaVuSans-31"/>
       <use xlink:href="#DejaVuSans-2e" x="63.623047"/>
       <use xlink:href="#DejaVuSans-30" x="95.410156"/>
       <use xlink:href="#DejaVuSans-32" x="159.033203"/>
       <use xlink:href="#DejaVuSans-35" x="222.65625"/>
      </g>
     </g>
    </g>
    <g id="xtick_6">
     <g id="line2d_6">
      <g>
       <use xlink:href="#m8084de4e54" x="211.211765" y="186.358594" style="stroke: #000000; stroke-width: 0.8"/>
      </g>
     </g>
     <g id="text_6">
      <!-- 1.050 -->
      <g transform="translate(199.760515 199.437344) scale(0.08 -0.08)">
       <use xlink:href="#DejaVuSans-31"/>
       <use xlink:href="#DejaVuSans-2e" x="63.623047"/>
       <use xlink:href="#DejaVuSans-30" x="95.410156"/>
       <use xlink:href="#DejaVuSans-35" x="159.033203"/>
       <use xlink:href="#DejaVuSans-30" x="222.65625"/>
      </g>
     </g>
    </g>
    <g id="text_7">
     <!-- Odds Ratio -->
     <g transform="translate(99.260359 211.939688) scale(0.09 -0.09)">
      <defs>
       <path id="DejaVuSans-4f" d="M 2522 4238 
Q 1834 4238 1429 3725 
Q 1025 3213 1025 2328 
Q 1025 1447 1429 934 
Q 1834 422 2522 422 
Q 3209 422 3611 934 
Q 4013 1447 4013 2328 
Q 4013 3213 3611 3725 
Q 3209 4238 2522 4238 
z
M 2522 4750 
Q 3503 4750 4090 4092 
Q 4678 3434 4678 2328 
Q 4678 1225 4090 567 
Q 3503 -91 2522 -91 
Q 1538 -91 948 565 
Q 359 1222 359 2328 
Q 359 3434 948 4092 
Q 1538 4750 2522 4750 
z
" transform="scale(0.015625)"/>
       <path id="DejaVuSans-64" d="M 2906 2969 
L 2906 4863 
L 3481 4863 
L 3481 0 
L 2906 0 
L 2906 525 
Q 2725 213 2448 61 
Q 2172 -91 1784 -91 
Q 1150 -91 751 415 
Q 353 922 353 1747 
Q 353 2572 751 3078 
Q 1150 3584 1784 3584 
Q 2172 3584 2448 3432 
Q 2725 3281 2906 2969 
z
M 947 1747 
Q 947 1113 1208 752 
Q 1469 391 1925 391 
Q 2381 391 2643 752 
Q 2906 1113 2906 1747 
Q 2906 2381 2643 2742 
Q 2381 3103 1925 3103 
Q 1469 3103 1208 2742 
Q 947 2381 947 1747 
z
" transform="scale(0.015625)"/>
       <path id="DejaVuSans-73" d="M 2834 3397 
L 2834 2853 
Q 2591 2978 2328 3040 
Q 2066 3103 1784 3103 
Q 1356 3103 1142 2972 
Q 928 2841 928 2578 
Q 928 2378 1081 2264 
Q 1234 2150 1697 2047 
L 1894 2003 
Q 2506 1872 2764 1633 
Q 3022 1394 3022 966 
Q 3022 478 2636 193 
Q 2250 -91 1575 -91 
Q 1294 -91 989 -36 
Q 684 19 347 128 
L 347 722 
Q 666 556 975 473 
Q 1284 391 1588 391 
Q 1994 391 2212 530 
Q 2431 669 2431 922 
Q 2431 1156 2273 1281 
Q 2116 1406 1581 1522 
L 1381 1569 
Q 847 1681 609 1914 
Q 372 2147 372 2553 
Q 372 3047 722 3315 
Q 1072 3584 1716 3584 
Q 2034 3584 2315 3537 
Q 2597 3491 2834 3397 
z
" transform="scale(0.015625)"/>
       <path id="DejaVuSans-20" transform="scale(0.015625)"/>
       <path id="DejaVuSans-52" d="M 2841 2188 
Q 3044 2119 3236 1894 
Q 3428 1669 3622 1275 
L 4263 0 
L 3584 0 
L 2988 1197 
Q 2756 1666 2539 1819 
Q 2322 1972 1947 1972 
L 1259 1972 
L 1259 0 
L 628 0 
L 628 4666 
L 2053 4666 
Q 2853 4666 3247 4331 
Q 3641 3997 3641 3322 
Q 3641 2881 3436 2590 
Q 3231 2300 2841 2188 
z
M 1259 4147 
L 1259 2491 
L 2053 2491 
Q 2509 2491 2742 2702 
Q 2975 2913 2975 3322 
Q 2975 3731 2742 3939 
Q 2509 4147 2053 4147 
L 1259 4147 
z
" transform="scale(0.015625)"/>
       <path id="DejaVuSans-61" d="M 2194 1759 
Q 1497 1759 1228 1600 
Q 959 1441 959 1056 
Q 959 750 1161 570 
Q 1363 391 1709 391 
Q 2188 391 2477 730 
Q 2766 1069 2766 1631 
L 2766 1759 
L 2194 1759 
z
M 3341 1997 
L 3341 0 
L 2766 0 
L 2766 531 
Q 2569 213 2275 61 
Q 1981 -91 1556 -91 
Q 1019 -91 701 211 
Q 384 513 384 1019 
Q 384 1609 779 1909 
Q 1175 2209 1959 2209 
L 2766 2209 
L 2766 2266 
Q 2766 2663 2505 2880 
Q 2244 3097 1772 3097 
Q 1472 3097 1187 3025 
Q 903 2953 641 2809 
L 641 3341 
Q 956 3463 1253 3523 
Q 1550 3584 1831 3584 
Q 2591 3584 2966 3190 
Q 3341 2797 3341 1997 
z
" transform="scale(0.015625)"/>
       <path id="DejaVuSans-74" d="M 1172 4494 
L 1172 3500 
L 2356 3500 
L 2356 3053 
L 1172 3053 
L 1172 1153 
Q 1172 725 1289 603 
Q 1406 481 1766 481 
L 2356 481 
L 2356 0 
L 1766 0 
Q 1100 0 847 248 
Q 594 497 594 1153 
L 594 3053 
L 172 3053 
L 172 3500 
L 594 3500 
L 594 4494 
L 1172 4494 
z
" transform="scale(0.015625)"/>
       <path id="DejaVuSans-69" d="M 603 3500 
L 1178 3500 
L 1178 0 
L 603 0 
L 603 3500 
z
M 603 4863 
L 1178 4863 
L 1178 4134 
L 603 4134 
L 603 4863 
z
" transform="scale(0.015625)"/>
       <path id="DejaVuSans-6f" d="M 1959 3097 
Q 1497 3097 1228 2736 
Q 959 2375 959 1747 
Q 959 1119 1226 758 
Q 1494 397 1959 397 
Q 2419 397 2687 759 
Q 2956 1122 2956 1747 
Q 2956 2369 2687 2733 
Q 2419 3097 1959 3097 
z
M 1959 3584 
Q 2709 3584 3137 3096 
Q 3566 2609 3566 1747 
Q 3566 888 3137 398 
Q 2709 -91 1959 -91 
Q 1206 -91 779 398 
Q 353 888 353 1747 
Q 353 2609 779 3096 
Q 1206 3584 1959 3584 
z
" transform="scale(0.015625)"/>
      </defs>
      <use xlink:href="#DejaVuSans-4f"/>
      <use xlink:href="#DejaVuSans-64" x="78.710938"/>
      <use xlink:href="#DejaVuSans-64" x="142.1875"/>
      <use xlink:href="#DejaVuSans-73" x="205.664062"/>
      <use xlink:href="#DejaVuSans-20" x="257.763672"/>
      <use xlink:href="#DejaVuSans-52" x="289.550781"/>
      <use xlink:href="#DejaVuSans-61" x="356.783203"/>
      <use xlink:href="#DejaVuSans-74" x="418.0625"/>
      <use xlink:href="#DejaVuSans-69" x="457.271484"/>
      <use xlink:href="#DejaVuSans-6f" x="485.054688"/>
     </g>
    </g>
   </g>
   <g id="matplotlib.axis_2"/>
   <g id="line2d_7">
    <path d="M 140.904157 186.358594 
L 140.904157 20.038594 
" clip-path="url(#p60b522b9d7)" style="fill: none; stroke: #ff6347; stroke-width: 1.5; stroke-linecap: square"/>
   </g>
   <g id="patch_27">
    <path d="M 12.241609 186.358594 
L 12.241609 20.038594 
" style="fill: none; stroke: #000000; stroke-width: 0.8; stroke-linejoin: miter; stroke-linecap: square"/>
   </g>
   <g id="patch_28">
    <path d="M 12.241609 186.358594 
L 235.441609 186.358594 
" style="fill: none; stroke: #000000; stroke-width: 0.8; stroke-linejoin: miter; stroke-linecap: square"/>
   </g>
   <g id="text_8">
    <!-- Permuted Model ORs for mshA_p.Asn111Ser -->
    <g transform="translate(24.158874 14.038594) scale(0.09 -0.09)">
     <defs>
      <path id="DejaVuSans-50" d="M 1259 4147 
L 1259 2394 
L 2053 2394 
Q 2494 2394 2734 2622 
Q 2975 2850 2975 3272 
Q 2975 3691 2734 3919 
Q 2494 4147 2053 4147 
L 1259 4147 
z
M 628 4666 
L 2053 4666 
Q 2838 4666 3239 4311 
Q 3641 3956 3641 3272 
Q 3641 2581 3239 2228 
Q 2838 1875 2053 1875 
L 1259 1875 
L 1259 0 
L 628 0 
L 628 4666 
z
" transform="scale(0.015625)"/>
      <path id="DejaVuSans-65" d="M 3597 1894 
L 3597 1613 
L 953 1613 
Q 991 1019 1311 708 
Q 1631 397 2203 397 
Q 2534 397 2845 478 
Q 3156 559 3463 722 
L 3463 178 
Q 3153 47 2828 -22 
Q 2503 -91 2169 -91 
Q 1331 -91 842 396 
Q 353 884 353 1716 
Q 353 2575 817 3079 
Q 1281 3584 2069 3584 
Q 2775 3584 3186 3129 
Q 3597 2675 3597 1894 
z
M 3022 2063 
Q 3016 2534 2758 2815 
Q 2500 3097 2075 3097 
Q 1594 3097 1305 2825 
Q 1016 2553 972 2059 
L 3022 2063 
z
" transform="scale(0.015625)"/>
      <path id="DejaVuSans-72" d="M 2631 2963 
Q 2534 3019 2420 3045 
Q 2306 3072 2169 3072 
Q 1681 3072 1420 2755 
Q 1159 2438 1159 1844 
L 1159 0 
L 581 0 
L 581 3500 
L 1159 3500 
L 1159 2956 
Q 1341 3275 1631 3429 
Q 1922 3584 2338 3584 
Q 2397 3584 2469 3576 
Q 2541 3569 2628 3553 
L 2631 2963 
z
" transform="scale(0.015625)"/>
      <path id="DejaVuSans-6d" d="M 3328 2828 
Q 3544 3216 3844 3400 
Q 4144 3584 4550 3584 
Q 5097 3584 5394 3201 
Q 5691 2819 5691 2113 
L 5691 0 
L 5113 0 
L 5113 2094 
Q 5113 2597 4934 2840 
Q 4756 3084 4391 3084 
Q 3944 3084 3684 2787 
Q 3425 2491 3425 1978 
L 3425 0 
L 2847 0 
L 2847 2094 
Q 2847 2600 2669 2842 
Q 2491 3084 2119 3084 
Q 1678 3084 1418 2786 
Q 1159 2488 1159 1978 
L 1159 0 
L 581 0 
L 581 3500 
L 1159 3500 
L 1159 2956 
Q 1356 3278 1631 3431 
Q 1906 3584 2284 3584 
Q 2666 3584 2933 3390 
Q 3200 3197 3328 2828 
z
" transform="scale(0.015625)"/>
      <path id="DejaVuSans-75" d="M 544 1381 
L 544 3500 
L 1119 3500 
L 1119 1403 
Q 1119 906 1312 657 
Q 1506 409 1894 409 
Q 2359 409 2629 706 
Q 2900 1003 2900 1516 
L 2900 3500 
L 3475 3500 
L 3475 0 
L 2900 0 
L 2900 538 
Q 2691 219 2414 64 
Q 2138 -91 1772 -91 
Q 1169 -91 856 284 
Q 544 659 544 1381 
z
M 1991 3584 
L 1991 3584 
z
" transform="scale(0.015625)"/>
      <path id="DejaVuSans-4d" d="M 628 4666 
L 1569 4666 
L 2759 1491 
L 3956 4666 
L 4897 4666 
L 4897 0 
L 4281 0 
L 4281 4097 
L 3078 897 
L 2444 897 
L 1241 4097 
L 1241 0 
L 628 0 
L 628 4666 
z
" transform="scale(0.015625)"/>
      <path id="DejaVuSans-6c" d="M 603 4863 
L 1178 4863 
L 1178 0 
L 603 0 
L 603 4863 
z
" transform="scale(0.015625)"/>
      <path id="DejaVuSans-66" d="M 2375 4863 
L 2375 4384 
L 1825 4384 
Q 1516 4384 1395 4259 
Q 1275 4134 1275 3809 
L 1275 3500 
L 2222 3500 
L 2222 3053 
L 1275 3053 
L 1275 0 
L 697 0 
L 697 3053 
L 147 3053 
L 147 3500 
L 697 3500 
L 697 3744 
Q 697 4328 969 4595 
Q 1241 4863 1831 4863 
L 2375 4863 
z
" transform="scale(0.015625)"/>
      <path id="DejaVuSans-68" d="M 3513 2113 
L 3513 0 
L 2938 0 
L 2938 2094 
Q 2938 2591 2744 2837 
Q 2550 3084 2163 3084 
Q 1697 3084 1428 2787 
Q 1159 2491 1159 1978 
L 1159 0 
L 581 0 
L 581 4863 
L 1159 4863 
L 1159 2956 
Q 1366 3272 1645 3428 
Q 1925 3584 2291 3584 
Q 2894 3584 3203 3211 
Q 3513 2838 3513 2113 
z
" transform="scale(0.015625)"/>
      <path id="DejaVuSans-41" d="M 2188 4044 
L 1331 1722 
L 3047 1722 
L 2188 4044 
z
M 1831 4666 
L 2547 4666 
L 4325 0 
L 3669 0 
L 3244 1197 
L 1141 1197 
L 716 0 
L 50 0 
L 1831 4666 
z
" transform="scale(0.015625)"/>
      <path id="DejaVuSans-5f" d="M 3263 -1063 
L 3263 -1509 
L -63 -1509 
L -63 -1063 
L 3263 -1063 
z
" transform="scale(0.015625)"/>
      <path id="DejaVuSans-70" d="M 1159 525 
L 1159 -1331 
L 581 -1331 
L 581 3500 
L 1159 3500 
L 1159 2969 
Q 1341 3281 1617 3432 
Q 1894 3584 2278 3584 
Q 2916 3584 3314 3078 
Q 3713 2572 3713 1747 
Q 3713 922 3314 415 
Q 2916 -91 2278 -91 
Q 1894 -91 1617 61 
Q 1341 213 1159 525 
z
M 3116 1747 
Q 3116 2381 2855 2742 
Q 2594 3103 2138 3103 
Q 1681 3103 1420 2742 
Q 1159 2381 1159 1747 
Q 1159 1113 1420 752 
Q 1681 391 2138 391 
Q 2594 391 2855 752 
Q 3116 1113 3116 1747 
z
" transform="scale(0.015625)"/>
      <path id="DejaVuSans-6e" d="M 3513 2113 
L 3513 0 
L 2938 0 
L 2938 2094 
Q 2938 2591 2744 2837 
Q 2550 3084 2163 3084 
Q 1697 3084 1428 2787 
Q 1159 2491 1159 1978 
L 1159 0 
L 581 0 
L 581 3500 
L 1159 3500 
L 1159 2956 
Q 1366 3272 1645 3428 
Q 1925 3584 2291 3584 
Q 2894 3584 3203 3211 
Q 3513 2838 3513 2113 
z
" transform="scale(0.015625)"/>
      <path id="DejaVuSans-53" d="M 3425 4513 
L 3425 3897 
Q 3066 4069 2747 4153 
Q 2428 4238 2131 4238 
Q 1616 4238 1336 4038 
Q 1056 3838 1056 3469 
Q 1056 3159 1242 3001 
Q 1428 2844 1947 2747 
L 2328 2669 
Q 3034 2534 3370 2195 
Q 3706 1856 3706 1288 
Q 3706 609 3251 259 
Q 2797 -91 1919 -91 
Q 1588 -91 1214 -16 
Q 841 59 441 206 
L 441 856 
Q 825 641 1194 531 
Q 1563 422 1919 422 
Q 2459 422 2753 634 
Q 3047 847 3047 1241 
Q 3047 1584 2836 1778 
Q 2625 1972 2144 2069 
L 1759 2144 
Q 1053 2284 737 2584 
Q 422 2884 422 3419 
Q 422 4038 858 4394 
Q 1294 4750 2059 4750 
Q 2388 4750 2728 4690 
Q 3069 4631 3425 4513 
z
" transform="scale(0.015625)"/>
     </defs>
     <use xlink:href="#DejaVuSans-50"/>
     <use xlink:href="#DejaVuSans-65" x="56.677734"/>
     <use xlink:href="#DejaVuSans-72" x="118.201172"/>
     <use xlink:href="#DejaVuSans-6d" x="157.564453"/>
     <use xlink:href="#DejaVuSans-75" x="254.976562"/>
     <use xlink:href="#DejaVuSans-74" x="318.355469"/>
     <use xlink:href="#DejaVuSans-65" x="357.564453"/>
     <use xlink:href="#DejaVuSans-64" x="419.087891"/>
     <use xlink:href="#DejaVuSans-20" x="482.564453"/>
     <use xlink:href="#DejaVuSans-4d" x="514.351562"/>
     <use xlink:href="#DejaVuSans-6f" x="600.630859"/>
     <use xlink:href="#DejaVuSans-64" x="661.8125"/>
     <use xlink:href="#DejaVuSans-65" x="725.289062"/>
     <use xlink:href="#DejaVuSans-6c" x="786.8125"/>
     <use xlink:href="#DejaVuSans-20" x="814.595703"/>
     <use xlink:href="#DejaVuSans-4f" x="846.382812"/>
     <use xlink:href="#DejaVuSans-52" x="925.09375"/>
     <use xlink:href="#DejaVuSans-73" x="994.576172"/>
     <use xlink:href="#DejaVuSans-20" x="1046.675781"/>
     <use xlink:href="#DejaVuSans-66" x="1078.462891"/>
     <use xlink:href="#DejaVuSans-6f" x="1113.667969"/>
     <use xlink:href="#DejaVuSans-72" x="1174.849609"/>
     <use xlink:href="#DejaVuSans-20" x="1215.962891"/>
     <use xlink:href="#DejaVuSans-6d" x="1247.75"/>
     <use xlink:href="#DejaVuSans-73" x="1345.162109"/>
     <use xlink:href="#DejaVuSans-68" x="1397.261719"/>
     <use xlink:href="#DejaVuSans-41" x="1460.640625"/>
     <use xlink:href="#DejaVuSans-5f" x="1529.048828"/>
     <use xlink:href="#DejaVuSans-70" x="1579.048828"/>
     <use xlink:href="#DejaVuSans-2e" x="1642.525391"/>
     <use xlink:href="#DejaVuSans-41" x="1674.3125"/>
     <use xlink:href="#DejaVuSans-73" x="1742.720703"/>
     <use xlink:href="#DejaVuSans-6e" x="1794.820312"/>
     <use xlink:href="#DejaVuSans-31" x="1858.199219"/>
     <use xlink:href="#DejaVuSans-31" x="1921.822266"/>
     <use xlink:href="#DejaVuSans-31" x="1985.445312"/>
     <use xlink:href="#DejaVuSans-53" x="2049.068359"/>
     <use xlink:href="#DejaVuSans-65" x="2112.544922"/>
     <use xlink:href="#DejaVuSans-72" x="2174.068359"/>
    </g>
   </g>
   <g id="legend_1">
    <g id="patch_29">
     <path d="M 162.958796 35.913281 
L 230.541609 35.913281 
Q 231.941609 35.913281 231.941609 34.513281 
L 231.941609 24.938594 
Q 231.941609 23.538594 230.541609 23.538594 
L 162.958796 23.538594 
Q 161.558796 23.538594 161.558796 24.938594 
L 161.558796 34.513281 
Q 161.558796 35.913281 162.958796 35.913281 
z
" style="fill: #ffffff; opacity: 0.8; stroke: #cccccc; stroke-linejoin: miter"/>
    </g>
    <g id="line2d_8">
     <path d="M 164.358796 29.2075 
L 171.358796 29.2075 
L 178.358796 29.2075 
" style="fill: none; stroke: #ff6347; stroke-width: 1.5; stroke-linecap: square"/>
    </g>
    <g id="text_9">
     <!-- OR = 1.0044 -->
     <g transform="translate(183.958796 31.6575) scale(0.07 -0.07)">
      <defs>
       <path id="DejaVuSans-3d" d="M 678 2906 
L 4684 2906 
L 4684 2381 
L 678 2381 
L 678 2906 
z
M 678 1631 
L 4684 1631 
L 4684 1100 
L 678 1100 
L 678 1631 
z
" transform="scale(0.015625)"/>
       <path id="DejaVuSans-34" d="M 2419 4116 
L 825 1625 
L 2419 1625 
L 2419 4116 
z
M 2253 4666 
L 3047 4666 
L 3047 1625 
L 3713 1625 
L 3713 1100 
L 3047 1100 
L 3047 0 
L 2419 0 
L 2419 1100 
L 313 1100 
L 313 1709 
L 2253 4666 
z
" transform="scale(0.015625)"/>
      </defs>
      <use xlink:href="#DejaVuSans-4f"/>
      <use xlink:href="#DejaVuSans-52" x="78.710938"/>
      <use xlink:href="#DejaVuSans-20" x="148.193359"/>
      <use xlink:href="#DejaVuSans-3d" x="179.980469"/>
      <use xlink:href="#DejaVuSans-20" x="263.769531"/>
      <use xlink:href="#DejaVuSans-31" x="295.556641"/>
      <use xlink:href="#DejaVuSans-2e" x="359.179688"/>
      <use xlink:href="#DejaVuSans-30" x="390.966797"/>
      <use xlink:href="#DejaVuSans-30" x="454.589844"/>
      <use xlink:href="#DejaVuSans-34" x="518.212891"/>
      <use xlink:href="#DejaVuSans-34" x="581.835938"/>
     </g>
    </g>
   </g>
  </g>
 </g>
 <defs>
  <clipPath id="p60b522b9d7">
   <rect x="12.241609" y="20.038594" width="223.2" height="166.32"/>
  </clipPath>
 </defs>
</svg>
