<?xml version="1.0" encoding="utf-8" standalone="no"?>
<!DOCTYPE svg PUBLIC "-//W3C//DTD SVG 1.1//EN"
  "http://www.w3.org/Graphics/SVG/1.1/DTD/svg11.dtd">
<svg xmlns:xlink="http://www.w3.org/1999/xlink" width="514.609062pt" height="69.949375pt" viewBox="0 0 514.609062 69.949375" xmlns="http://www.w3.org/2000/svg" version="1.1">
 <metadata>
  <rdf:RDF xmlns:dc="http://purl.org/dc/elements/1.1/" xmlns:cc="http://creativecommons.org/ns#" xmlns:rdf="http://www.w3.org/1999/02/22-rdf-syntax-ns#">
   <cc:Work>
    <dc:type rdf:resource="http://purl.org/dc/dcmitype/StillImage"/>
    <dc:date>2024-06-27T00:57:34.136587</dc:date>
    <dc:format>image/svg+xml</dc:format>
    <dc:creator>
     <cc:Agent>
      <dc:title>Matplotlib v3.8.1, https://matplotlib.org/</dc:title>
     </cc:Agent>
    </dc:creator>
   </cc:Work>
  </rdf:RDF>
 </metadata>
 <defs>
  <style type="text/css">*{stroke-linejoin: round; stroke-linecap: butt}</style>
 </defs>
 <g id="figure_1">
  <g id="patch_1">
   <path d="M 0 69.949375 
L 514.609062 69.949375 
L 514.609062 0 
L 0 0 
z
" style="fill: #ffffff"/>
  </g>
  <g id="axes_1">
   <g id="patch_2">
    <path d="M 38.689063 48.78 
L 77.749062 48.78 
L 77.749062 7.2 
L 38.689063 7.2 
z
" style="fill: #ffffff"/>
   </g>
   <g id="QuadMesh_1">
    <path d="M 38.689063 7.2 
L 77.749062 7.2 
L 77.749062 21.06 
L 38.689063 21.06 
L 38.689063 7.2 
" clip-path="url(#p203cde9780)" style="fill: #f7fbff; stroke: #000000; stroke-width: 0.25"/>
    <path d="M 38.689063 21.06 
L 77.749062 21.06 
L 77.749062 34.92 
L 38.689063 34.92 
L 38.689063 21.06 
" clip-path="url(#p203cde9780)" style="fill: #f7fbff; stroke: #000000; stroke-width: 0.25"/>
    <path d="M 38.689063 34.92 
L 77.749062 34.92 
L 77.749062 48.78 
L 38.689063 48.78 
L 38.689063 34.92 
" clip-path="url(#p203cde9780)" style="fill: #f7fbff; stroke: #000000; stroke-width: 0.25"/>
   </g>
   <g id="matplotlib.axis_1">
    <g id="xtick_1">
     <g id="line2d_1">
      <defs>
       <path id="m8bef1b1429" d="M 0 0 
L 0 3.5 
" style="stroke: #000000; stroke-width: 0.8"/>
      </defs>
      <g>
       <use xlink:href="#m8bef1b1429" x="77.749062" y="48.78" style="stroke: #000000; stroke-width: 0.8"/>
      </g>
     </g>
     <g id="text_1">
      <!-- pncA_p.Asp12His -->
      <g transform="translate(47.585078 61.098906) scale(0.07 -0.07)">
       <defs>
        <path id="DejaVuSans-70" d="M 1159 525 
L 1159 -1331 
L 581 -1331 
L 581 3500 
L 1159 3500 
L 1159 2969 
Q 1341 3281 1617 3432 
Q 1894 3584 2278 3584 
Q 2916 3584 3314 3078 
Q 3713 2572 3713 1747 
Q 3713 922 3314 415 
Q 2916 -91 2278 -91 
Q 1894 -91 1617 61 
Q 1341 213 1159 525 
z
M 3116 1747 
Q 3116 2381 2855 2742 
Q 2594 3103 2138 3103 
Q 1681 3103 1420 2742 
Q 1159 2381 1159 1747 
Q 1159 1113 1420 752 
Q 1681 391 2138 391 
Q 2594 391 2855 752 
Q 3116 1113 3116 1747 
z
" transform="scale(0.015625)"/>
        <path id="DejaVuSans-6e" d="M 3513 2113 
L 3513 0 
L 2938 0 
L 2938 2094 
Q 2938 2591 2744 2837 
Q 2550 3084 2163 3084 
Q 1697 3084 1428 2787 
Q 1159 2491 1159 1978 
L 1159 0 
L 581 0 
L 581 3500 
L 1159 3500 
L 1159 2956 
Q 1366 3272 1645 3428 
Q 1925 3584 2291 3584 
Q 2894 3584 3203 3211 
Q 3513 2838 3513 2113 
z
" transform="scale(0.015625)"/>
        <path id="DejaVuSans-63" d="M 3122 3366 
L 3122 2828 
Q 2878 2963 2633 3030 
Q 2388 3097 2138 3097 
Q 1578 3097 1268 2742 
Q 959 2388 959 1747 
Q 959 1106 1268 751 
Q 1578 397 2138 397 
Q 2388 397 2633 464 
Q 2878 531 3122 666 
L 3122 134 
Q 2881 22 2623 -34 
Q 2366 -91 2075 -91 
Q 1284 -91 818 406 
Q 353 903 353 1747 
Q 353 2603 823 3093 
Q 1294 3584 2113 3584 
Q 2378 3584 2631 3529 
Q 2884 3475 3122 3366 
z
" transform="scale(0.015625)"/>
        <path id="DejaVuSans-41" d="M 2188 4044 
L 1331 1722 
L 3047 1722 
L 2188 4044 
z
M 1831 4666 
L 2547 4666 
L 4325 0 
L 3669 0 
L 3244 1197 
L 1141 1197 
L 716 0 
L 50 0 
L 1831 4666 
z
" transform="scale(0.015625)"/>
        <path id="DejaVuSans-5f" d="M 3263 -1063 
L 3263 -1509 
L -63 -1509 
L -63 -1063 
L 3263 -1063 
z
" transform="scale(0.015625)"/>
        <path id="DejaVuSans-2e" d="M 684 794 
L 1344 794 
L 1344 0 
L 684 0 
L 684 794 
z
" transform="scale(0.015625)"/>
        <path id="DejaVuSans-73" d="M 2834 3397 
L 2834 2853 
Q 2591 2978 2328 3040 
Q 2066 3103 1784 3103 
Q 1356 3103 1142 2972 
Q 928 2841 928 2578 
Q 928 2378 1081 2264 
Q 1234 2150 1697 2047 
L 1894 2003 
Q 2506 1872 2764 1633 
Q 3022 1394 3022 966 
Q 3022 478 2636 193 
Q 2250 -91 1575 -91 
Q 1294 -91 989 -36 
Q 684 19 347 128 
L 347 722 
Q 666 556 975 473 
Q 1284 391 1588 391 
Q 1994 391 2212 530 
Q 2431 669 2431 922 
Q 2431 1156 2273 1281 
Q 2116 1406 1581 1522 
L 1381 1569 
Q 847 1681 609 1914 
Q 372 2147 372 2553 
Q 372 3047 722 3315 
Q 1072 3584 1716 3584 
Q 2034 3584 2315 3537 
Q 2597 3491 2834 3397 
z
" transform="scale(0.015625)"/>
        <path id="DejaVuSans-31" d="M 794 531 
L 1825 531 
L 1825 4091 
L 703 3866 
L 703 4441 
L 1819 4666 
L 2450 4666 
L 2450 531 
L 3481 531 
L 3481 0 
L 794 0 
L 794 531 
z
" transform="scale(0.015625)"/>
        <path id="DejaVuSans-32" d="M 1228 531 
L 3431 531 
L 3431 0 
L 469 0 
L 469 531 
Q 828 903 1448 1529 
Q 2069 2156 2228 2338 
Q 2531 2678 2651 2914 
Q 2772 3150 2772 3378 
Q 2772 3750 2511 3984 
Q 2250 4219 1831 4219 
Q 1534 4219 1204 4116 
Q 875 4013 500 3803 
L 500 4441 
Q 881 4594 1212 4672 
Q 1544 4750 1819 4750 
Q 2544 4750 2975 4387 
Q 3406 4025 3406 3419 
Q 3406 3131 3298 2873 
Q 3191 2616 2906 2266 
Q 2828 2175 2409 1742 
Q 1991 1309 1228 531 
z
" transform="scale(0.015625)"/>
        <path id="DejaVuSans-48" d="M 628 4666 
L 1259 4666 
L 1259 2753 
L 3553 2753 
L 3553 4666 
L 4184 4666 
L 4184 0 
L 3553 0 
L 3553 2222 
L 1259 2222 
L 1259 0 
L 628 0 
L 628 4666 
z
" transform="scale(0.015625)"/>
        <path id="DejaVuSans-69" d="M 603 3500 
L 1178 3500 
L 1178 0 
L 603 0 
L 603 3500 
z
M 603 4863 
L 1178 4863 
L 1178 4134 
L 603 4134 
L 603 4863 
z
" transform="scale(0.015625)"/>
       </defs>
       <use xlink:href="#DejaVuSans-70"/>
       <use xlink:href="#DejaVuSans-6e" x="63.476562"/>
       <use xlink:href="#DejaVuSans-63" x="126.855469"/>
       <use xlink:href="#DejaVuSans-41" x="181.835938"/>
       <use xlink:href="#DejaVuSans-5f" x="250.244141"/>
       <use xlink:href="#DejaVuSans-70" x="300.244141"/>
       <use xlink:href="#DejaVuSans-2e" x="363.720703"/>
       <use xlink:href="#DejaVuSans-41" x="395.507812"/>
       <use xlink:href="#DejaVuSans-73" x="463.916016"/>
       <use xlink:href="#DejaVuSans-70" x="516.015625"/>
       <use xlink:href="#DejaVuSans-31" x="579.492188"/>
       <use xlink:href="#DejaVuSans-32" x="643.115234"/>
       <use xlink:href="#DejaVuSans-48" x="706.738281"/>
       <use xlink:href="#DejaVuSans-69" x="781.933594"/>
       <use xlink:href="#DejaVuSans-73" x="809.716797"/>
      </g>
     </g>
    </g>
   </g>
   <g id="matplotlib.axis_2">
    <g id="ytick_1">
     <g id="line2d_2">
      <defs>
       <path id="m6cdc2636f6" d="M 0 0 
L -3.5 0 
" style="stroke: #000000; stroke-width: 0.8"/>
      </defs>
      <g>
       <use xlink:href="#m6cdc2636f6" x="38.689063" y="14.13" style="stroke: #000000; stroke-width: 0.8"/>
      </g>
     </g>
     <g id="text_2">
      <!-- 2.2.1 -->
      <g transform="translate(13.878438 16.061563) scale(0.07 -0.07)">
       <use xlink:href="#DejaVuSans-32"/>
       <use xlink:href="#DejaVuSans-2e" x="63.623047"/>
       <use xlink:href="#DejaVuSans-32" x="95.410156"/>
       <use xlink:href="#DejaVuSans-2e" x="159.033203"/>
       <use xlink:href="#DejaVuSans-31" x="190.820312"/>
      </g>
     </g>
    </g>
    <g id="ytick_2">
     <g id="line2d_3">
      <g>
       <use xlink:href="#m6cdc2636f6" x="38.689063" y="27.99" style="stroke: #000000; stroke-width: 0.8"/>
      </g>
     </g>
     <g id="text_3">
      <!-- 4.1.2.1 -->
      <g transform="translate(7.2 29.921563) scale(0.07 -0.07)">
       <defs>
        <path id="DejaVuSans-34" d="M 2419 4116 
L 825 1625 
L 2419 1625 
L 2419 4116 
z
M 2253 4666 
L 3047 4666 
L 3047 1625 
L 3713 1625 
L 3713 1100 
L 3047 1100 
L 3047 0 
L 2419 0 
L 2419 1100 
L 313 1100 
L 313 1709 
L 2253 4666 
z
" transform="scale(0.015625)"/>
       </defs>
       <use xlink:href="#DejaVuSans-34"/>
       <use xlink:href="#DejaVuSans-2e" x="63.623047"/>
       <use xlink:href="#DejaVuSans-31" x="95.410156"/>
       <use xlink:href="#DejaVuSans-2e" x="159.033203"/>
       <use xlink:href="#DejaVuSans-32" x="190.820312"/>
       <use xlink:href="#DejaVuSans-2e" x="254.443359"/>
       <use xlink:href="#DejaVuSans-31" x="286.230469"/>
      </g>
     </g>
    </g>
    <g id="ytick_3">
     <g id="line2d_4">
      <g>
       <use xlink:href="#m6cdc2636f6" x="38.689063" y="41.85" style="stroke: #000000; stroke-width: 0.8"/>
      </g>
     </g>
     <g id="text_4">
      <!-- 4.4.1.1 -->
      <g transform="translate(7.2 43.781562) scale(0.07 -0.07)">
       <use xlink:href="#DejaVuSans-34"/>
       <use xlink:href="#DejaVuSans-2e" x="63.623047"/>
       <use xlink:href="#DejaVuSans-34" x="95.410156"/>
       <use xlink:href="#DejaVuSans-2e" x="159.033203"/>
       <use xlink:href="#DejaVuSans-31" x="190.820312"/>
       <use xlink:href="#DejaVuSans-2e" x="254.443359"/>
       <use xlink:href="#DejaVuSans-31" x="286.230469"/>
      </g>
     </g>
    </g>
   </g>
   <g id="patch_3">
    <path d="M 38.689063 48.78 
L 38.689063 7.2 
" style="fill: none; stroke: #000000; stroke-width: 0.8; stroke-linejoin: miter; stroke-linecap: square"/>
   </g>
   <g id="patch_4">
    <path d="M 77.749062 48.78 
L 77.749062 7.2 
" style="fill: none; stroke: #000000; stroke-width: 0.8; stroke-linejoin: miter; stroke-linecap: square"/>
   </g>
   <g id="patch_5">
    <path d="M 38.689063 48.78 
L 77.749062 48.78 
" style="fill: none; stroke: #000000; stroke-width: 0.8; stroke-linejoin: miter; stroke-linecap: square"/>
   </g>
   <g id="patch_6">
    <path d="M 38.689063 7.2 
L 77.749062 7.2 
" style="fill: none; stroke: #000000; stroke-width: 0.8; stroke-linejoin: miter; stroke-linecap: square"/>
   </g>
   <g id="text_5">
    <!-- 0 -->
    <g style="fill: #262626" transform="translate(55.992188 16.061563) scale(0.07 -0.07)">
     <defs>
      <path id="DejaVuSans-30" d="M 2034 4250 
Q 1547 4250 1301 3770 
Q 1056 3291 1056 2328 
Q 1056 1369 1301 889 
Q 1547 409 2034 409 
Q 2525 409 2770 889 
Q 3016 1369 3016 2328 
Q 3016 3291 2770 3770 
Q 2525 4250 2034 4250 
z
M 2034 4750 
Q 2819 4750 3233 4129 
Q 3647 3509 3647 2328 
Q 3647 1150 3233 529 
Q 2819 -91 2034 -91 
Q 1250 -91 836 529 
Q 422 1150 422 2328 
Q 422 3509 836 4129 
Q 1250 4750 2034 4750 
z
" transform="scale(0.015625)"/>
     </defs>
     <use xlink:href="#DejaVuSans-30"/>
    </g>
   </g>
   <g id="text_6">
    <!-- 0 -->
    <g style="fill: #262626" transform="translate(55.992188 29.921563) scale(0.07 -0.07)">
     <use xlink:href="#DejaVuSans-30"/>
    </g>
   </g>
   <g id="text_7">
    <!-- 0 -->
    <g style="fill: #262626" transform="translate(55.992188 43.781562) scale(0.07 -0.07)">
     <use xlink:href="#DejaVuSans-30"/>
    </g>
   </g>
  </g>
  <g id="axes_2">
   <g id="patch_7">
    <path d="M 77.749062 48.78 
L 116.809062 48.78 
L 116.809062 7.2 
L 77.749062 7.2 
z
" style="fill: #ffffff"/>
   </g>
   <g id="QuadMesh_2">
    <path d="M 77.749062 7.2 
L 116.809062 7.2 
L 116.809062 21.06 
L 77.749062 21.06 
L 77.749062 7.2 
" clip-path="url(#p2fb462145f)" style="fill: #67000d; stroke: #000000; stroke-width: 0.25"/>
    <path d="M 77.749062 21.06 
L 116.809062 21.06 
L 116.809062 34.92 
L 77.749062 34.92 
L 77.749062 21.06 
" clip-path="url(#p2fb462145f)" style="fill: #67000d; stroke: #000000; stroke-width: 0.25"/>
    <path d="M 77.749062 34.92 
L 116.809062 34.92 
L 116.809062 48.78 
L 77.749062 48.78 
L 77.749062 34.92 
" clip-path="url(#p2fb462145f)" style="fill: #fff5f0; stroke: #000000; stroke-width: 0.25"/>
   </g>
   <g id="matplotlib.axis_3"/>
   <g id="patch_8">
    <path d="M 77.749062 48.78 
L 77.749062 7.2 
" style="fill: none; stroke: #000000; stroke-width: 0.8; stroke-linejoin: miter; stroke-linecap: square"/>
   </g>
   <g id="patch_9">
    <path d="M 116.809062 48.78 
L 116.809062 7.2 
" style="fill: none; stroke: #000000; stroke-width: 0.8; stroke-linejoin: miter; stroke-linecap: square"/>
   </g>
   <g id="patch_10">
    <path d="M 77.749062 48.78 
L 116.809062 48.78 
" style="fill: none; stroke: #000000; stroke-width: 0.8; stroke-linejoin: miter; stroke-linecap: square"/>
   </g>
   <g id="patch_11">
    <path d="M 77.749062 7.2 
L 116.809062 7.2 
" style="fill: none; stroke: #000000; stroke-width: 0.8; stroke-linejoin: miter; stroke-linecap: square"/>
   </g>
   <g id="text_8">
    <!-- 1 -->
    <g style="fill: #ffffff" transform="translate(95.052187 16.061563) scale(0.07 -0.07)">
     <use xlink:href="#DejaVuSans-31"/>
    </g>
   </g>
   <g id="text_9">
    <!-- 1 -->
    <g style="fill: #ffffff" transform="translate(95.052187 29.921563) scale(0.07 -0.07)">
     <use xlink:href="#DejaVuSans-31"/>
    </g>
   </g>
   <g id="text_10">
    <!-- 0 -->
    <g style="fill: #262626" transform="translate(95.052187 43.781562) scale(0.07 -0.07)">
     <use xlink:href="#DejaVuSans-30"/>
    </g>
   </g>
  </g>
  <g id="axes_3">
   <g id="patch_12">
    <path d="M 116.809062 48.78 
L 155.869063 48.78 
L 155.869063 7.2 
L 116.809062 7.2 
z
" style="fill: #ffffff"/>
   </g>
   <g id="QuadMesh_3">
    <path d="M 116.809062 7.2 
L 155.869063 7.2 
L 155.869063 21.06 
L 116.809062 21.06 
L 116.809062 7.2 
" clip-path="url(#pab9f41f811)" style="fill: #f7fbff; stroke: #000000; stroke-width: 0.25"/>
    <path d="M 116.809062 21.06 
L 155.869063 21.06 
L 155.869063 34.92 
L 116.809062 34.92 
L 116.809062 21.06 
" clip-path="url(#pab9f41f811)" style="fill: #f7fbff; stroke: #000000; stroke-width: 0.25"/>
    <path d="M 116.809062 34.92 
L 155.869063 34.92 
L 155.869063 48.78 
L 116.809062 48.78 
L 116.809062 34.92 
" clip-path="url(#pab9f41f811)" style="fill: #f7fbff; stroke: #000000; stroke-width: 0.25"/>
   </g>
   <g id="matplotlib.axis_4">
    <g id="xtick_2">
     <g id="line2d_5">
      <g>
       <use xlink:href="#m8bef1b1429" x="155.869063" y="48.78" style="stroke: #000000; stroke-width: 0.8"/>
      </g>
     </g>
     <g id="text_11">
      <!-- pncA_p.Ile6Ser -->
      <g transform="translate(129.826328 61.098906) scale(0.07 -0.07)">
       <defs>
        <path id="DejaVuSans-49" d="M 628 4666 
L 1259 4666 
L 1259 0 
L 628 0 
L 628 4666 
z
" transform="scale(0.015625)"/>
        <path id="DejaVuSans-6c" d="M 603 4863 
L 1178 4863 
L 1178 0 
L 603 0 
L 603 4863 
z
" transform="scale(0.015625)"/>
        <path id="DejaVuSans-65" d="M 3597 1894 
L 3597 1613 
L 953 1613 
Q 991 1019 1311 708 
Q 1631 397 2203 397 
Q 2534 397 2845 478 
Q 3156 559 3463 722 
L 3463 178 
Q 3153 47 2828 -22 
Q 2503 -91 2169 -91 
Q 1331 -91 842 396 
Q 353 884 353 1716 
Q 353 2575 817 3079 
Q 1281 3584 2069 3584 
Q 2775 3584 3186 3129 
Q 3597 2675 3597 1894 
z
M 3022 2063 
Q 3016 2534 2758 2815 
Q 2500 3097 2075 3097 
Q 1594 3097 1305 2825 
Q 1016 2553 972 2059 
L 3022 2063 
z
" transform="scale(0.015625)"/>
        <path id="DejaVuSans-36" d="M 2113 2584 
Q 1688 2584 1439 2293 
Q 1191 2003 1191 1497 
Q 1191 994 1439 701 
Q 1688 409 2113 409 
Q 2538 409 2786 701 
Q 3034 994 3034 1497 
Q 3034 2003 2786 2293 
Q 2538 2584 2113 2584 
z
M 3366 4563 
L 3366 3988 
Q 3128 4100 2886 4159 
Q 2644 4219 2406 4219 
Q 1781 4219 1451 3797 
Q 1122 3375 1075 2522 
Q 1259 2794 1537 2939 
Q 1816 3084 2150 3084 
Q 2853 3084 3261 2657 
Q 3669 2231 3669 1497 
Q 3669 778 3244 343 
Q 2819 -91 2113 -91 
Q 1303 -91 875 529 
Q 447 1150 447 2328 
Q 447 3434 972 4092 
Q 1497 4750 2381 4750 
Q 2619 4750 2861 4703 
Q 3103 4656 3366 4563 
z
" transform="scale(0.015625)"/>
        <path id="DejaVuSans-53" d="M 3425 4513 
L 3425 3897 
Q 3066 4069 2747 4153 
Q 2428 4238 2131 4238 
Q 1616 4238 1336 4038 
Q 1056 3838 1056 3469 
Q 1056 3159 1242 3001 
Q 1428 2844 1947 2747 
L 2328 2669 
Q 3034 2534 3370 2195 
Q 3706 1856 3706 1288 
Q 3706 609 3251 259 
Q 2797 -91 1919 -91 
Q 1588 -91 1214 -16 
Q 841 59 441 206 
L 441 856 
Q 825 641 1194 531 
Q 1563 422 1919 422 
Q 2459 422 2753 634 
Q 3047 847 3047 1241 
Q 3047 1584 2836 1778 
Q 2625 1972 2144 2069 
L 1759 2144 
Q 1053 2284 737 2584 
Q 422 2884 422 3419 
Q 422 4038 858 4394 
Q 1294 4750 2059 4750 
Q 2388 4750 2728 4690 
Q 3069 4631 3425 4513 
z
" transform="scale(0.015625)"/>
        <path id="DejaVuSans-72" d="M 2631 2963 
Q 2534 3019 2420 3045 
Q 2306 3072 2169 3072 
Q 1681 3072 1420 2755 
Q 1159 2438 1159 1844 
L 1159 0 
L 581 0 
L 581 3500 
L 1159 3500 
L 1159 2956 
Q 1341 3275 1631 3429 
Q 1922 3584 2338 3584 
Q 2397 3584 2469 3576 
Q 2541 3569 2628 3553 
L 2631 2963 
z
" transform="scale(0.015625)"/>
       </defs>
       <use xlink:href="#DejaVuSans-70"/>
       <use xlink:href="#DejaVuSans-6e" x="63.476562"/>
       <use xlink:href="#DejaVuSans-63" x="126.855469"/>
       <use xlink:href="#DejaVuSans-41" x="181.835938"/>
       <use xlink:href="#DejaVuSans-5f" x="250.244141"/>
       <use xlink:href="#DejaVuSans-70" x="300.244141"/>
       <use xlink:href="#DejaVuSans-2e" x="363.720703"/>
       <use xlink:href="#DejaVuSans-49" x="395.507812"/>
       <use xlink:href="#DejaVuSans-6c" x="425"/>
       <use xlink:href="#DejaVuSans-65" x="452.783203"/>
       <use xlink:href="#DejaVuSans-36" x="514.306641"/>
       <use xlink:href="#DejaVuSans-53" x="577.929688"/>
       <use xlink:href="#DejaVuSans-65" x="641.40625"/>
       <use xlink:href="#DejaVuSans-72" x="702.929688"/>
      </g>
     </g>
    </g>
   </g>
   <g id="patch_13">
    <path d="M 116.809062 48.78 
L 116.809062 7.2 
" style="fill: none; stroke: #000000; stroke-width: 0.8; stroke-linejoin: miter; stroke-linecap: square"/>
   </g>
   <g id="patch_14">
    <path d="M 155.869063 48.78 
L 155.869063 7.2 
" style="fill: none; stroke: #000000; stroke-width: 0.8; stroke-linejoin: miter; stroke-linecap: square"/>
   </g>
   <g id="patch_15">
    <path d="M 116.809062 48.78 
L 155.869063 48.78 
" style="fill: none; stroke: #000000; stroke-width: 0.8; stroke-linejoin: miter; stroke-linecap: square"/>
   </g>
   <g id="patch_16">
    <path d="M 116.809062 7.2 
L 155.869063 7.2 
" style="fill: none; stroke: #000000; stroke-width: 0.8; stroke-linejoin: miter; stroke-linecap: square"/>
   </g>
   <g id="text_12">
    <!-- 0 -->
    <g style="fill: #262626" transform="translate(134.112188 16.061563) scale(0.07 -0.07)">
     <use xlink:href="#DejaVuSans-30"/>
    </g>
   </g>
   <g id="text_13">
    <!-- 0 -->
    <g style="fill: #262626" transform="translate(134.112188 29.921563) scale(0.07 -0.07)">
     <use xlink:href="#DejaVuSans-30"/>
    </g>
   </g>
   <g id="text_14">
    <!-- 0 -->
    <g style="fill: #262626" transform="translate(134.112188 43.781562) scale(0.07 -0.07)">
     <use xlink:href="#DejaVuSans-30"/>
    </g>
   </g>
  </g>
  <g id="axes_4">
   <g id="patch_17">
    <path d="M 155.869063 48.78 
L 194.929063 48.78 
L 194.929063 7.2 
L 155.869063 7.2 
z
" style="fill: #ffffff"/>
   </g>
   <g id="QuadMesh_4">
    <path d="M 155.869063 7.2 
L 194.929063 7.2 
L 194.929063 21.06 
L 155.869063 21.06 
L 155.869063 7.2 
" clip-path="url(#p14338531ba)" style="fill: #67000d; stroke: #000000; stroke-width: 0.25"/>
    <path d="M 155.869063 21.06 
L 194.929063 21.06 
L 194.929063 34.92 
L 155.869063 34.92 
L 155.869063 21.06 
" clip-path="url(#p14338531ba)" style="fill: #fff5f0; stroke: #000000; stroke-width: 0.25"/>
    <path d="M 155.869063 34.92 
L 194.929063 34.92 
L 194.929063 48.78 
L 155.869063 48.78 
L 155.869063 34.92 
" clip-path="url(#p14338531ba)" style="fill: #fff5f0; stroke: #000000; stroke-width: 0.25"/>
   </g>
   <g id="matplotlib.axis_5"/>
   <g id="patch_18">
    <path d="M 155.869063 48.78 
L 155.869063 7.2 
" style="fill: none; stroke: #000000; stroke-width: 0.8; stroke-linejoin: miter; stroke-linecap: square"/>
   </g>
   <g id="patch_19">
    <path d="M 194.929063 48.78 
L 194.929063 7.2 
" style="fill: none; stroke: #000000; stroke-width: 0.8; stroke-linejoin: miter; stroke-linecap: square"/>
   </g>
   <g id="patch_20">
    <path d="M 155.869063 48.78 
L 194.929063 48.78 
" style="fill: none; stroke: #000000; stroke-width: 0.8; stroke-linejoin: miter; stroke-linecap: square"/>
   </g>
   <g id="patch_21">
    <path d="M 155.869063 7.2 
L 194.929063 7.2 
" style="fill: none; stroke: #000000; stroke-width: 0.8; stroke-linejoin: miter; stroke-linecap: square"/>
   </g>
   <g id="text_15">
    <!-- 2 -->
    <g style="fill: #ffffff" transform="translate(173.172188 16.061563) scale(0.07 -0.07)">
     <use xlink:href="#DejaVuSans-32"/>
    </g>
   </g>
   <g id="text_16">
    <!-- 0 -->
    <g style="fill: #262626" transform="translate(173.172188 29.921563) scale(0.07 -0.07)">
     <use xlink:href="#DejaVuSans-30"/>
    </g>
   </g>
   <g id="text_17">
    <!-- 0 -->
    <g style="fill: #262626" transform="translate(173.172188 43.781562) scale(0.07 -0.07)">
     <use xlink:href="#DejaVuSans-30"/>
    </g>
   </g>
  </g>
  <g id="axes_5">
   <g id="patch_22">
    <path d="M 194.929063 48.78 
L 233.989062 48.78 
L 233.989062 7.2 
L 194.929063 7.2 
z
" style="fill: #ffffff"/>
   </g>
   <g id="QuadMesh_5">
    <path d="M 194.929063 7.2 
L 233.989062 7.2 
L 233.989062 21.06 
L 194.929063 21.06 
L 194.929063 7.2 
" clip-path="url(#pa265d8593a)" style="fill: #f7fbff; stroke: #000000; stroke-width: 0.25"/>
    <path d="M 194.929063 21.06 
L 233.989062 21.06 
L 233.989062 34.92 
L 194.929063 34.92 
L 194.929063 21.06 
" clip-path="url(#pa265d8593a)" style="fill: #f7fbff; stroke: #000000; stroke-width: 0.25"/>
    <path d="M 194.929063 34.92 
L 233.989062 34.92 
L 233.989062 48.78 
L 194.929063 48.78 
L 194.929063 34.92 
" clip-path="url(#pa265d8593a)" style="fill: #f7fbff; stroke: #000000; stroke-width: 0.25"/>
   </g>
   <g id="matplotlib.axis_6">
    <g id="xtick_3">
     <g id="line2d_6">
      <g>
       <use xlink:href="#m8bef1b1429" x="233.989062" y="48.78" style="stroke: #000000; stroke-width: 0.8"/>
      </g>
     </g>
     <g id="text_18">
      <!-- pncA_p.Leu156Pro -->
      <g transform="translate(201.653984 60.975313) scale(0.07 -0.07)">
       <defs>
        <path id="DejaVuSans-4c" d="M 628 4666 
L 1259 4666 
L 1259 531 
L 3531 531 
L 3531 0 
L 628 0 
L 628 4666 
z
" transform="scale(0.015625)"/>
        <path id="DejaVuSans-75" d="M 544 1381 
L 544 3500 
L 1119 3500 
L 1119 1403 
Q 1119 906 1312 657 
Q 1506 409 1894 409 
Q 2359 409 2629 706 
Q 2900 1003 2900 1516 
L 2900 3500 
L 3475 3500 
L 3475 0 
L 2900 0 
L 2900 538 
Q 2691 219 2414 64 
Q 2138 -91 1772 -91 
Q 1169 -91 856 284 
Q 544 659 544 1381 
z
M 1991 3584 
L 1991 3584 
z
" transform="scale(0.015625)"/>
        <path id="DejaVuSans-35" d="M 691 4666 
L 3169 4666 
L 3169 4134 
L 1269 4134 
L 1269 2991 
Q 1406 3038 1543 3061 
Q 1681 3084 1819 3084 
Q 2600 3084 3056 2656 
Q 3513 2228 3513 1497 
Q 3513 744 3044 326 
Q 2575 -91 1722 -91 
Q 1428 -91 1123 -41 
Q 819 9 494 109 
L 494 744 
Q 775 591 1075 516 
Q 1375 441 1709 441 
Q 2250 441 2565 725 
Q 2881 1009 2881 1497 
Q 2881 1984 2565 2268 
Q 2250 2553 1709 2553 
Q 1456 2553 1204 2497 
Q 953 2441 691 2322 
L 691 4666 
z
" transform="scale(0.015625)"/>
        <path id="DejaVuSans-50" d="M 1259 4147 
L 1259 2394 
L 2053 2394 
Q 2494 2394 2734 2622 
Q 2975 2850 2975 3272 
Q 2975 3691 2734 3919 
Q 2494 4147 2053 4147 
L 1259 4147 
z
M 628 4666 
L 2053 4666 
Q 2838 4666 3239 4311 
Q 3641 3956 3641 3272 
Q 3641 2581 3239 2228 
Q 2838 1875 2053 1875 
L 1259 1875 
L 1259 0 
L 628 0 
L 628 4666 
z
" transform="scale(0.015625)"/>
        <path id="DejaVuSans-6f" d="M 1959 3097 
Q 1497 3097 1228 2736 
Q 959 2375 959 1747 
Q 959 1119 1226 758 
Q 1494 397 1959 397 
Q 2419 397 2687 759 
Q 2956 1122 2956 1747 
Q 2956 2369 2687 2733 
Q 2419 3097 1959 3097 
z
M 1959 3584 
Q 2709 3584 3137 3096 
Q 3566 2609 3566 1747 
Q 3566 888 3137 398 
Q 2709 -91 1959 -91 
Q 1206 -91 779 398 
Q 353 888 353 1747 
Q 353 2609 779 3096 
Q 1206 3584 1959 3584 
z
" transform="scale(0.015625)"/>
       </defs>
       <use xlink:href="#DejaVuSans-70"/>
       <use xlink:href="#DejaVuSans-6e" x="63.476562"/>
       <use xlink:href="#DejaVuSans-63" x="126.855469"/>
       <use xlink:href="#DejaVuSans-41" x="181.835938"/>
       <use xlink:href="#DejaVuSans-5f" x="250.244141"/>
       <use xlink:href="#DejaVuSans-70" x="300.244141"/>
       <use xlink:href="#DejaVuSans-2e" x="363.720703"/>
       <use xlink:href="#DejaVuSans-4c" x="395.507812"/>
       <use xlink:href="#DejaVuSans-65" x="449.470703"/>
       <use xlink:href="#DejaVuSans-75" x="510.994141"/>
       <use xlink:href="#DejaVuSans-31" x="574.373047"/>
       <use xlink:href="#DejaVuSans-35" x="637.996094"/>
       <use xlink:href="#DejaVuSans-36" x="701.619141"/>
       <use xlink:href="#DejaVuSans-50" x="765.242188"/>
       <use xlink:href="#DejaVuSans-72" x="823.794922"/>
       <use xlink:href="#DejaVuSans-6f" x="862.658203"/>
      </g>
     </g>
    </g>
   </g>
   <g id="patch_23">
    <path d="M 194.929063 48.78 
L 194.929063 7.2 
" style="fill: none; stroke: #000000; stroke-width: 0.8; stroke-linejoin: miter; stroke-linecap: square"/>
   </g>
   <g id="patch_24">
    <path d="M 233.989062 48.78 
L 233.989062 7.2 
" style="fill: none; stroke: #000000; stroke-width: 0.8; stroke-linejoin: miter; stroke-linecap: square"/>
   </g>
   <g id="patch_25">
    <path d="M 194.929063 48.78 
L 233.989062 48.78 
" style="fill: none; stroke: #000000; stroke-width: 0.8; stroke-linejoin: miter; stroke-linecap: square"/>
   </g>
   <g id="patch_26">
    <path d="M 194.929063 7.2 
L 233.989062 7.2 
" style="fill: none; stroke: #000000; stroke-width: 0.8; stroke-linejoin: miter; stroke-linecap: square"/>
   </g>
   <g id="text_19">
    <!-- 0 -->
    <g style="fill: #262626" transform="translate(212.232188 16.061563) scale(0.07 -0.07)">
     <use xlink:href="#DejaVuSans-30"/>
    </g>
   </g>
   <g id="text_20">
    <!-- 0 -->
    <g style="fill: #262626" transform="translate(212.232188 29.921563) scale(0.07 -0.07)">
     <use xlink:href="#DejaVuSans-30"/>
    </g>
   </g>
   <g id="text_21">
    <!-- 0 -->
    <g style="fill: #262626" transform="translate(212.232188 43.781562) scale(0.07 -0.07)">
     <use xlink:href="#DejaVuSans-30"/>
    </g>
   </g>
  </g>
  <g id="axes_6">
   <g id="patch_27">
    <path d="M 233.989062 48.78 
L 273.049062 48.78 
L 273.049062 7.2 
L 233.989062 7.2 
z
" style="fill: #ffffff"/>
   </g>
   <g id="QuadMesh_6">
    <path d="M 233.989062 7.2 
L 273.049062 7.2 
L 273.049062 21.06 
L 233.989062 21.06 
L 233.989062 7.2 
" clip-path="url(#p29f6f2d701)" style="fill: #67000d; stroke: #000000; stroke-width: 0.25"/>
    <path d="M 233.989062 21.06 
L 273.049062 21.06 
L 273.049062 34.92 
L 233.989062 34.92 
L 233.989062 21.06 
" clip-path="url(#p29f6f2d701)" style="fill: #fff5f0; stroke: #000000; stroke-width: 0.25"/>
    <path d="M 233.989062 34.92 
L 273.049062 34.92 
L 273.049062 48.78 
L 233.989062 48.78 
L 233.989062 34.92 
" clip-path="url(#p29f6f2d701)" style="fill: #fff5f0; stroke: #000000; stroke-width: 0.25"/>
   </g>
   <g id="matplotlib.axis_7"/>
   <g id="patch_28">
    <path d="M 233.989062 48.78 
L 233.989062 7.2 
" style="fill: none; stroke: #000000; stroke-width: 0.8; stroke-linejoin: miter; stroke-linecap: square"/>
   </g>
   <g id="patch_29">
    <path d="M 273.049062 48.78 
L 273.049062 7.2 
" style="fill: none; stroke: #000000; stroke-width: 0.8; stroke-linejoin: miter; stroke-linecap: square"/>
   </g>
   <g id="patch_30">
    <path d="M 233.989062 48.78 
L 273.049062 48.78 
" style="fill: none; stroke: #000000; stroke-width: 0.8; stroke-linejoin: miter; stroke-linecap: square"/>
   </g>
   <g id="patch_31">
    <path d="M 233.989062 7.2 
L 273.049062 7.2 
" style="fill: none; stroke: #000000; stroke-width: 0.8; stroke-linejoin: miter; stroke-linecap: square"/>
   </g>
   <g id="text_22">
    <!-- 2 -->
    <g style="fill: #ffffff" transform="translate(251.292187 16.061563) scale(0.07 -0.07)">
     <use xlink:href="#DejaVuSans-32"/>
    </g>
   </g>
   <g id="text_23">
    <!-- 0 -->
    <g style="fill: #262626" transform="translate(251.292187 29.921563) scale(0.07 -0.07)">
     <use xlink:href="#DejaVuSans-30"/>
    </g>
   </g>
   <g id="text_24">
    <!-- 0 -->
    <g style="fill: #262626" transform="translate(251.292187 43.781562) scale(0.07 -0.07)">
     <use xlink:href="#DejaVuSans-30"/>
    </g>
   </g>
  </g>
  <g id="axes_7">
   <g id="patch_32">
    <path d="M 273.049062 48.78 
L 312.109062 48.78 
L 312.109062 7.2 
L 273.049062 7.2 
z
" style="fill: #ffffff"/>
   </g>
   <g id="QuadMesh_7">
    <path d="M 273.049062 7.2 
L 312.109062 7.2 
L 312.109062 21.06 
L 273.049062 21.06 
L 273.049062 7.2 
" clip-path="url(#p6798107027)" style="fill: #f7fbff; stroke: #000000; stroke-width: 0.25"/>
    <path d="M 273.049062 21.06 
L 312.109062 21.06 
L 312.109062 34.92 
L 273.049062 34.92 
L 273.049062 21.06 
" clip-path="url(#p6798107027)" style="fill: #f7fbff; stroke: #000000; stroke-width: 0.25"/>
    <path d="M 273.049062 34.92 
L 312.109062 34.92 
L 312.109062 48.78 
L 273.049062 48.78 
L 273.049062 34.92 
" clip-path="url(#p6798107027)" style="fill: #f7fbff; stroke: #000000; stroke-width: 0.25"/>
   </g>
   <g id="matplotlib.axis_8">
    <g id="xtick_4">
     <g id="line2d_7">
      <g>
       <use xlink:href="#m8bef1b1429" x="312.109062" y="48.78" style="stroke: #000000; stroke-width: 0.8"/>
      </g>
     </g>
     <g id="text_25">
      <!-- pncA_p.Thr160Arg -->
      <g transform="translate(279.796953 61.098906) scale(0.07 -0.07)">
       <defs>
        <path id="DejaVuSans-54" d="M -19 4666 
L 3928 4666 
L 3928 4134 
L 2272 4134 
L 2272 0 
L 1638 0 
L 1638 4134 
L -19 4134 
L -19 4666 
z
" transform="scale(0.015625)"/>
        <path id="DejaVuSans-68" d="M 3513 2113 
L 3513 0 
L 2938 0 
L 2938 2094 
Q 2938 2591 2744 2837 
Q 2550 3084 2163 3084 
Q 1697 3084 1428 2787 
Q 1159 2491 1159 1978 
L 1159 0 
L 581 0 
L 581 4863 
L 1159 4863 
L 1159 2956 
Q 1366 3272 1645 3428 
Q 1925 3584 2291 3584 
Q 2894 3584 3203 3211 
Q 3513 2838 3513 2113 
z
" transform="scale(0.015625)"/>
        <path id="DejaVuSans-67" d="M 2906 1791 
Q 2906 2416 2648 2759 
Q 2391 3103 1925 3103 
Q 1463 3103 1205 2759 
Q 947 2416 947 1791 
Q 947 1169 1205 825 
Q 1463 481 1925 481 
Q 2391 481 2648 825 
Q 2906 1169 2906 1791 
z
M 3481 434 
Q 3481 -459 3084 -895 
Q 2688 -1331 1869 -1331 
Q 1566 -1331 1297 -1286 
Q 1028 -1241 775 -1147 
L 775 -588 
Q 1028 -725 1275 -790 
Q 1522 -856 1778 -856 
Q 2344 -856 2625 -561 
Q 2906 -266 2906 331 
L 2906 616 
Q 2728 306 2450 153 
Q 2172 0 1784 0 
Q 1141 0 747 490 
Q 353 981 353 1791 
Q 353 2603 747 3093 
Q 1141 3584 1784 3584 
Q 2172 3584 2450 3431 
Q 2728 3278 2906 2969 
L 2906 3500 
L 3481 3500 
L 3481 434 
z
" transform="scale(0.015625)"/>
       </defs>
       <use xlink:href="#DejaVuSans-70"/>
       <use xlink:href="#DejaVuSans-6e" x="63.476562"/>
       <use xlink:href="#DejaVuSans-63" x="126.855469"/>
       <use xlink:href="#DejaVuSans-41" x="181.835938"/>
       <use xlink:href="#DejaVuSans-5f" x="250.244141"/>
       <use xlink:href="#DejaVuSans-70" x="300.244141"/>
       <use xlink:href="#DejaVuSans-2e" x="363.720703"/>
       <use xlink:href="#DejaVuSans-54" x="395.507812"/>
       <use xlink:href="#DejaVuSans-68" x="456.591797"/>
       <use xlink:href="#DejaVuSans-72" x="519.970703"/>
       <use xlink:href="#DejaVuSans-31" x="561.083984"/>
       <use xlink:href="#DejaVuSans-36" x="624.707031"/>
       <use xlink:href="#DejaVuSans-30" x="688.330078"/>
       <use xlink:href="#DejaVuSans-41" x="751.953125"/>
       <use xlink:href="#DejaVuSans-72" x="820.361328"/>
       <use xlink:href="#DejaVuSans-67" x="859.724609"/>
      </g>
     </g>
    </g>
   </g>
   <g id="patch_33">
    <path d="M 273.049062 48.78 
L 273.049062 7.2 
" style="fill: none; stroke: #000000; stroke-width: 0.8; stroke-linejoin: miter; stroke-linecap: square"/>
   </g>
   <g id="patch_34">
    <path d="M 312.109062 48.78 
L 312.109062 7.2 
" style="fill: none; stroke: #000000; stroke-width: 0.8; stroke-linejoin: miter; stroke-linecap: square"/>
   </g>
   <g id="patch_35">
    <path d="M 273.049062 48.78 
L 312.109062 48.78 
" style="fill: none; stroke: #000000; stroke-width: 0.8; stroke-linejoin: miter; stroke-linecap: square"/>
   </g>
   <g id="patch_36">
    <path d="M 273.049062 7.2 
L 312.109062 7.2 
" style="fill: none; stroke: #000000; stroke-width: 0.8; stroke-linejoin: miter; stroke-linecap: square"/>
   </g>
   <g id="text_26">
    <!-- 0 -->
    <g style="fill: #262626" transform="translate(290.352187 16.061563) scale(0.07 -0.07)">
     <use xlink:href="#DejaVuSans-30"/>
    </g>
   </g>
   <g id="text_27">
    <!-- 0 -->
    <g style="fill: #262626" transform="translate(290.352187 29.921563) scale(0.07 -0.07)">
     <use xlink:href="#DejaVuSans-30"/>
    </g>
   </g>
   <g id="text_28">
    <!-- 0 -->
    <g style="fill: #262626" transform="translate(290.352187 43.781562) scale(0.07 -0.07)">
     <use xlink:href="#DejaVuSans-30"/>
    </g>
   </g>
  </g>
  <g id="axes_8">
   <g id="patch_37">
    <path d="M 312.109062 48.78 
L 351.169062 48.78 
L 351.169062 7.2 
L 312.109062 7.2 
z
" style="fill: #ffffff"/>
   </g>
   <g id="QuadMesh_8">
    <path d="M 312.109062 7.2 
L 351.169062 7.2 
L 351.169062 21.06 
L 312.109062 21.06 
L 312.109062 7.2 
" clip-path="url(#pe7e1992012)" style="fill: #fff5f0; stroke: #000000; stroke-width: 0.25"/>
    <path d="M 312.109062 21.06 
L 351.169062 21.06 
L 351.169062 34.92 
L 312.109062 34.92 
L 312.109062 21.06 
" clip-path="url(#pe7e1992012)" style="fill: #67000d; stroke: #000000; stroke-width: 0.25"/>
    <path d="M 312.109062 34.92 
L 351.169062 34.92 
L 351.169062 48.78 
L 312.109062 48.78 
L 312.109062 34.92 
" clip-path="url(#pe7e1992012)" style="fill: #67000d; stroke: #000000; stroke-width: 0.25"/>
   </g>
   <g id="matplotlib.axis_9"/>
   <g id="patch_38">
    <path d="M 312.109062 48.78 
L 312.109062 7.2 
" style="fill: none; stroke: #000000; stroke-width: 0.8; stroke-linejoin: miter; stroke-linecap: square"/>
   </g>
   <g id="patch_39">
    <path d="M 351.169062 48.78 
L 351.169062 7.2 
" style="fill: none; stroke: #000000; stroke-width: 0.8; stroke-linejoin: miter; stroke-linecap: square"/>
   </g>
   <g id="patch_40">
    <path d="M 312.109062 48.78 
L 351.169062 48.78 
" style="fill: none; stroke: #000000; stroke-width: 0.8; stroke-linejoin: miter; stroke-linecap: square"/>
   </g>
   <g id="patch_41">
    <path d="M 312.109062 7.2 
L 351.169062 7.2 
" style="fill: none; stroke: #000000; stroke-width: 0.8; stroke-linejoin: miter; stroke-linecap: square"/>
   </g>
   <g id="text_29">
    <!-- 0 -->
    <g style="fill: #262626" transform="translate(329.412188 16.061563) scale(0.07 -0.07)">
     <use xlink:href="#DejaVuSans-30"/>
    </g>
   </g>
   <g id="text_30">
    <!-- 1 -->
    <g style="fill: #ffffff" transform="translate(329.412188 29.921563) scale(0.07 -0.07)">
     <use xlink:href="#DejaVuSans-31"/>
    </g>
   </g>
   <g id="text_31">
    <!-- 1 -->
    <g style="fill: #ffffff" transform="translate(329.412188 43.781562) scale(0.07 -0.07)">
     <use xlink:href="#DejaVuSans-31"/>
    </g>
   </g>
  </g>
  <g id="axes_9">
   <g id="patch_42">
    <path d="M 351.169062 48.78 
L 390.229062 48.78 
L 390.229062 7.2 
L 351.169062 7.2 
z
" style="fill: #ffffff"/>
   </g>
   <g id="QuadMesh_9">
    <path d="M 351.169062 7.2 
L 390.229062 7.2 
L 390.229062 21.06 
L 351.169062 21.06 
L 351.169062 7.2 
" clip-path="url(#p6e687adcec)" style="fill: #f7fbff; stroke: #000000; stroke-width: 0.25"/>
    <path d="M 351.169062 21.06 
L 390.229062 21.06 
L 390.229062 34.92 
L 351.169062 34.92 
L 351.169062 21.06 
" clip-path="url(#p6e687adcec)" style="fill: #f7fbff; stroke: #000000; stroke-width: 0.25"/>
    <path d="M 351.169062 34.92 
L 390.229062 34.92 
L 390.229062 48.78 
L 351.169062 48.78 
L 351.169062 34.92 
" clip-path="url(#p6e687adcec)" style="fill: #f7fbff; stroke: #000000; stroke-width: 0.25"/>
   </g>
   <g id="matplotlib.axis_10">
    <g id="xtick_5">
     <g id="line2d_8">
      <g>
       <use xlink:href="#m8bef1b1429" x="390.229062" y="48.78" style="stroke: #000000; stroke-width: 0.8"/>
      </g>
     </g>
     <g id="text_32">
      <!-- pncA_p.Thr47Asn -->
      <g transform="translate(359.701953 61.098906) scale(0.07 -0.07)">
       <defs>
        <path id="DejaVuSans-37" d="M 525 4666 
L 3525 4666 
L 3525 4397 
L 1831 0 
L 1172 0 
L 2766 4134 
L 525 4134 
L 525 4666 
z
" transform="scale(0.015625)"/>
       </defs>
       <use xlink:href="#DejaVuSans-70"/>
       <use xlink:href="#DejaVuSans-6e" x="63.476562"/>
       <use xlink:href="#DejaVuSans-63" x="126.855469"/>
       <use xlink:href="#DejaVuSans-41" x="181.835938"/>
       <use xlink:href="#DejaVuSans-5f" x="250.244141"/>
       <use xlink:href="#DejaVuSans-70" x="300.244141"/>
       <use xlink:href="#DejaVuSans-2e" x="363.720703"/>
       <use xlink:href="#DejaVuSans-54" x="395.507812"/>
       <use xlink:href="#DejaVuSans-68" x="456.591797"/>
       <use xlink:href="#DejaVuSans-72" x="519.970703"/>
       <use xlink:href="#DejaVuSans-34" x="561.083984"/>
       <use xlink:href="#DejaVuSans-37" x="624.707031"/>
       <use xlink:href="#DejaVuSans-41" x="688.330078"/>
       <use xlink:href="#DejaVuSans-73" x="756.738281"/>
       <use xlink:href="#DejaVuSans-6e" x="808.837891"/>
      </g>
     </g>
    </g>
   </g>
   <g id="patch_43">
    <path d="M 351.169062 48.78 
L 351.169062 7.2 
" style="fill: none; stroke: #000000; stroke-width: 0.8; stroke-linejoin: miter; stroke-linecap: square"/>
   </g>
   <g id="patch_44">
    <path d="M 390.229062 48.78 
L 390.229062 7.2 
" style="fill: none; stroke: #000000; stroke-width: 0.8; stroke-linejoin: miter; stroke-linecap: square"/>
   </g>
   <g id="patch_45">
    <path d="M 351.169062 48.78 
L 390.229062 48.78 
" style="fill: none; stroke: #000000; stroke-width: 0.8; stroke-linejoin: miter; stroke-linecap: square"/>
   </g>
   <g id="patch_46">
    <path d="M 351.169062 7.2 
L 390.229062 7.2 
" style="fill: none; stroke: #000000; stroke-width: 0.8; stroke-linejoin: miter; stroke-linecap: square"/>
   </g>
   <g id="text_33">
    <!-- 0 -->
    <g style="fill: #262626" transform="translate(368.472187 16.061563) scale(0.07 -0.07)">
     <use xlink:href="#DejaVuSans-30"/>
    </g>
   </g>
   <g id="text_34">
    <!-- 0 -->
    <g style="fill: #262626" transform="translate(368.472187 29.921563) scale(0.07 -0.07)">
     <use xlink:href="#DejaVuSans-30"/>
    </g>
   </g>
   <g id="text_35">
    <!-- 0 -->
    <g style="fill: #262626" transform="translate(368.472187 43.781562) scale(0.07 -0.07)">
     <use xlink:href="#DejaVuSans-30"/>
    </g>
   </g>
  </g>
  <g id="axes_10">
   <g id="patch_47">
    <path d="M 390.229062 48.78 
L 429.289062 48.78 
L 429.289062 7.2 
L 390.229062 7.2 
z
" style="fill: #ffffff"/>
   </g>
   <g id="QuadMesh_10">
    <path d="M 390.229062 7.2 
L 429.289062 7.2 
L 429.289062 21.06 
L 390.229062 21.06 
L 390.229062 7.2 
" clip-path="url(#pf3a5e7fa5e)" style="fill: #67000d; stroke: #000000; stroke-width: 0.25"/>
    <path d="M 390.229062 21.06 
L 429.289062 21.06 
L 429.289062 34.92 
L 390.229062 34.92 
L 390.229062 21.06 
" clip-path="url(#pf3a5e7fa5e)" style="fill: #fff5f0; stroke: #000000; stroke-width: 0.25"/>
    <path d="M 390.229062 34.92 
L 429.289062 34.92 
L 429.289062 48.78 
L 390.229062 48.78 
L 390.229062 34.92 
" clip-path="url(#pf3a5e7fa5e)" style="fill: #fff5f0; stroke: #000000; stroke-width: 0.25"/>
   </g>
   <g id="matplotlib.axis_11"/>
   <g id="patch_48">
    <path d="M 390.229062 48.78 
L 390.229062 7.2 
" style="fill: none; stroke: #000000; stroke-width: 0.8; stroke-linejoin: miter; stroke-linecap: square"/>
   </g>
   <g id="patch_49">
    <path d="M 429.289062 48.78 
L 429.289062 7.2 
" style="fill: none; stroke: #000000; stroke-width: 0.8; stroke-linejoin: miter; stroke-linecap: square"/>
   </g>
   <g id="patch_50">
    <path d="M 390.229062 48.78 
L 429.289062 48.78 
" style="fill: none; stroke: #000000; stroke-width: 0.8; stroke-linejoin: miter; stroke-linecap: square"/>
   </g>
   <g id="patch_51">
    <path d="M 390.229062 7.2 
L 429.289062 7.2 
" style="fill: none; stroke: #000000; stroke-width: 0.8; stroke-linejoin: miter; stroke-linecap: square"/>
   </g>
   <g id="text_36">
    <!-- 2 -->
    <g style="fill: #ffffff" transform="translate(407.532188 16.061563) scale(0.07 -0.07)">
     <use xlink:href="#DejaVuSans-32"/>
    </g>
   </g>
   <g id="text_37">
    <!-- 0 -->
    <g style="fill: #262626" transform="translate(407.532188 29.921563) scale(0.07 -0.07)">
     <use xlink:href="#DejaVuSans-30"/>
    </g>
   </g>
   <g id="text_38">
    <!-- 0 -->
    <g style="fill: #262626" transform="translate(407.532188 43.781562) scale(0.07 -0.07)">
     <use xlink:href="#DejaVuSans-30"/>
    </g>
   </g>
  </g>
  <g id="axes_11">
   <g id="patch_52">
    <path d="M 429.289062 48.78 
L 468.349063 48.78 
L 468.349063 7.2 
L 429.289062 7.2 
z
" style="fill: #ffffff"/>
   </g>
   <g id="QuadMesh_11">
    <path d="M 429.289062 7.2 
L 468.349063 7.2 
L 468.349063 21.06 
L 429.289062 21.06 
L 429.289062 7.2 
" clip-path="url(#p2fe8c4493f)" style="fill: #f7fbff; stroke: #000000; stroke-width: 0.25"/>
    <path d="M 429.289062 21.06 
L 468.349063 21.06 
L 468.349063 34.92 
L 429.289062 34.92 
L 429.289062 21.06 
" clip-path="url(#p2fe8c4493f)" style="fill: #f7fbff; stroke: #000000; stroke-width: 0.25"/>
    <path d="M 429.289062 34.92 
L 468.349063 34.92 
L 468.349063 48.78 
L 429.289062 48.78 
L 429.289062 34.92 
" clip-path="url(#p2fe8c4493f)" style="fill: #f7fbff; stroke: #000000; stroke-width: 0.25"/>
   </g>
   <g id="matplotlib.axis_12">
    <g id="xtick_6">
     <g id="line2d_9">
      <g>
       <use xlink:href="#m8bef1b1429" x="468.349063" y="48.78" style="stroke: #000000; stroke-width: 0.8"/>
      </g>
     </g>
     <g id="text_39">
      <!-- pncA_p.Tyr103Ser -->
      <g transform="translate(436.909766 60.975313) scale(0.07 -0.07)">
       <defs>
        <path id="DejaVuSans-79" d="M 2059 -325 
Q 1816 -950 1584 -1140 
Q 1353 -1331 966 -1331 
L 506 -1331 
L 506 -850 
L 844 -850 
Q 1081 -850 1212 -737 
Q 1344 -625 1503 -206 
L 1606 56 
L 191 3500 
L 800 3500 
L 1894 763 
L 2988 3500 
L 3597 3500 
L 2059 -325 
z
" transform="scale(0.015625)"/>
        <path id="DejaVuSans-33" d="M 2597 2516 
Q 3050 2419 3304 2112 
Q 3559 1806 3559 1356 
Q 3559 666 3084 287 
Q 2609 -91 1734 -91 
Q 1441 -91 1130 -33 
Q 819 25 488 141 
L 488 750 
Q 750 597 1062 519 
Q 1375 441 1716 441 
Q 2309 441 2620 675 
Q 2931 909 2931 1356 
Q 2931 1769 2642 2001 
Q 2353 2234 1838 2234 
L 1294 2234 
L 1294 2753 
L 1863 2753 
Q 2328 2753 2575 2939 
Q 2822 3125 2822 3475 
Q 2822 3834 2567 4026 
Q 2313 4219 1838 4219 
Q 1578 4219 1281 4162 
Q 984 4106 628 3988 
L 628 4550 
Q 988 4650 1302 4700 
Q 1616 4750 1894 4750 
Q 2613 4750 3031 4423 
Q 3450 4097 3450 3541 
Q 3450 3153 3228 2886 
Q 3006 2619 2597 2516 
z
" transform="scale(0.015625)"/>
       </defs>
       <use xlink:href="#DejaVuSans-70"/>
       <use xlink:href="#DejaVuSans-6e" x="63.476562"/>
       <use xlink:href="#DejaVuSans-63" x="126.855469"/>
       <use xlink:href="#DejaVuSans-41" x="181.835938"/>
       <use xlink:href="#DejaVuSans-5f" x="250.244141"/>
       <use xlink:href="#DejaVuSans-70" x="300.244141"/>
       <use xlink:href="#DejaVuSans-2e" x="363.720703"/>
       <use xlink:href="#DejaVuSans-54" x="395.507812"/>
       <use xlink:href="#DejaVuSans-79" x="440.966797"/>
       <use xlink:href="#DejaVuSans-72" x="500.146484"/>
       <use xlink:href="#DejaVuSans-31" x="541.259766"/>
       <use xlink:href="#DejaVuSans-30" x="604.882812"/>
       <use xlink:href="#DejaVuSans-33" x="668.505859"/>
       <use xlink:href="#DejaVuSans-53" x="732.128906"/>
       <use xlink:href="#DejaVuSans-65" x="795.605469"/>
       <use xlink:href="#DejaVuSans-72" x="857.128906"/>
      </g>
     </g>
    </g>
   </g>
   <g id="patch_53">
    <path d="M 429.289062 48.78 
L 429.289062 7.2 
" style="fill: none; stroke: #000000; stroke-width: 0.8; stroke-linejoin: miter; stroke-linecap: square"/>
   </g>
   <g id="patch_54">
    <path d="M 468.349063 48.78 
L 468.349063 7.2 
" style="fill: none; stroke: #000000; stroke-width: 0.8; stroke-linejoin: miter; stroke-linecap: square"/>
   </g>
   <g id="patch_55">
    <path d="M 429.289062 48.78 
L 468.349063 48.78 
" style="fill: none; stroke: #000000; stroke-width: 0.8; stroke-linejoin: miter; stroke-linecap: square"/>
   </g>
   <g id="patch_56">
    <path d="M 429.289062 7.2 
L 468.349063 7.2 
" style="fill: none; stroke: #000000; stroke-width: 0.8; stroke-linejoin: miter; stroke-linecap: square"/>
   </g>
   <g id="text_40">
    <!-- 0 -->
    <g style="fill: #262626" transform="translate(446.592187 16.061563) scale(0.07 -0.07)">
     <use xlink:href="#DejaVuSans-30"/>
    </g>
   </g>
   <g id="text_41">
    <!-- 0 -->
    <g style="fill: #262626" transform="translate(446.592187 29.921563) scale(0.07 -0.07)">
     <use xlink:href="#DejaVuSans-30"/>
    </g>
   </g>
   <g id="text_42">
    <!-- 0 -->
    <g style="fill: #262626" transform="translate(446.592187 43.781562) scale(0.07 -0.07)">
     <use xlink:href="#DejaVuSans-30"/>
    </g>
   </g>
  </g>
  <g id="axes_12">
   <g id="patch_57">
    <path d="M 468.349063 48.78 
L 507.409062 48.78 
L 507.409062 7.2 
L 468.349063 7.2 
z
" style="fill: #ffffff"/>
   </g>
   <g id="QuadMesh_12">
    <path d="M 468.349063 7.2 
L 507.409062 7.2 
L 507.409062 21.06 
L 468.349063 21.06 
L 468.349063 7.2 
" clip-path="url(#pbd0a3ec7e4)" style="fill: #67000d; stroke: #000000; stroke-width: 0.25"/>
    <path d="M 468.349063 21.06 
L 507.409062 21.06 
L 507.409062 34.92 
L 468.349063 34.92 
L 468.349063 21.06 
" clip-path="url(#pbd0a3ec7e4)" style="fill: #fff5f0; stroke: #000000; stroke-width: 0.25"/>
    <path d="M 468.349063 34.92 
L 507.409062 34.92 
L 507.409062 48.78 
L 468.349063 48.78 
L 468.349063 34.92 
" clip-path="url(#pbd0a3ec7e4)" style="fill: #fff5f0; stroke: #000000; stroke-width: 0.25"/>
   </g>
   <g id="matplotlib.axis_13"/>
   <g id="patch_58">
    <path d="M 468.349063 48.78 
L 468.349063 7.2 
" style="fill: none; stroke: #000000; stroke-width: 0.8; stroke-linejoin: miter; stroke-linecap: square"/>
   </g>
   <g id="patch_59">
    <path d="M 507.409062 48.78 
L 507.409062 7.2 
" style="fill: none; stroke: #000000; stroke-width: 0.8; stroke-linejoin: miter; stroke-linecap: square"/>
   </g>
   <g id="patch_60">
    <path d="M 468.349063 48.78 
L 507.409062 48.78 
" style="fill: none; stroke: #000000; stroke-width: 0.8; stroke-linejoin: miter; stroke-linecap: square"/>
   </g>
   <g id="patch_61">
    <path d="M 468.349063 7.2 
L 507.409062 7.2 
" style="fill: none; stroke: #000000; stroke-width: 0.8; stroke-linejoin: miter; stroke-linecap: square"/>
   </g>
   <g id="text_43">
    <!-- 2 -->
    <g style="fill: #ffffff" transform="translate(485.652187 16.061563) scale(0.07 -0.07)">
     <use xlink:href="#DejaVuSans-32"/>
    </g>
   </g>
   <g id="text_44">
    <!-- 0 -->
    <g style="fill: #262626" transform="translate(485.652187 29.921563) scale(0.07 -0.07)">
     <use xlink:href="#DejaVuSans-30"/>
    </g>
   </g>
   <g id="text_45">
    <!-- 0 -->
    <g style="fill: #262626" transform="translate(485.652187 43.781562) scale(0.07 -0.07)">
     <use xlink:href="#DejaVuSans-30"/>
    </g>
   </g>
  </g>
 </g>
 <defs>
  <clipPath id="p203cde9780">
   <rect x="38.689063" y="7.2" width="39.06" height="41.58"/>
  </clipPath>
  <clipPath id="p2fb462145f">
   <rect x="77.749062" y="7.2" width="39.06" height="41.58"/>
  </clipPath>
  <clipPath id="pab9f41f811">
   <rect x="116.809062" y="7.2" width="39.06" height="41.58"/>
  </clipPath>
  <clipPath id="p14338531ba">
   <rect x="155.869063" y="7.2" width="39.06" height="41.58"/>
  </clipPath>
  <clipPath id="pa265d8593a">
   <rect x="194.929063" y="7.2" width="39.06" height="41.58"/>
  </clipPath>
  <clipPath id="p29f6f2d701">
   <rect x="233.989062" y="7.2" width="39.06" height="41.58"/>
  </clipPath>
  <clipPath id="p6798107027">
   <rect x="273.049062" y="7.2" width="39.06" height="41.58"/>
  </clipPath>
  <clipPath id="pe7e1992012">
   <rect x="312.109062" y="7.2" width="39.06" height="41.58"/>
  </clipPath>
  <clipPath id="p6e687adcec">
   <rect x="351.169062" y="7.2" width="39.06" height="41.58"/>
  </clipPath>
  <clipPath id="pf3a5e7fa5e">
   <rect x="390.229062" y="7.2" width="39.06" height="41.58"/>
  </clipPath>
  <clipPath id="p2fe8c4493f">
   <rect x="429.289062" y="7.2" width="39.06" height="41.58"/>
  </clipPath>
  <clipPath id="pbd0a3ec7e4">
   <rect x="468.349063" y="7.2" width="39.06" height="41.58"/>
  </clipPath>
 </defs>
</svg>
