<?xml version="1.0" encoding="utf-8" standalone="no"?>
<!DOCTYPE svg PUBLIC "-//W3C//DTD SVG 1.1//EN"
  "http://www.w3.org/Graphics/SVG/1.1/DTD/svg11.dtd">
<svg xmlns:xlink="http://www.w3.org/1999/xlink" width="820.742187pt" height="209.638125pt" viewBox="0 0 820.742187 209.638125" xmlns="http://www.w3.org/2000/svg" version="1.1">
 <metadata>
  <rdf:RDF xmlns:dc="http://purl.org/dc/elements/1.1/" xmlns:cc="http://creativecommons.org/ns#" xmlns:rdf="http://www.w3.org/1999/02/22-rdf-syntax-ns#">
   <cc:Work>
    <dc:type rdf:resource="http://purl.org/dc/dcmitype/StillImage"/>
    <dc:date>2024-06-26T18:24:38.232907</dc:date>
    <dc:format>image/svg+xml</dc:format>
    <dc:creator>
     <cc:Agent>
      <dc:title>Matplotlib v3.8.1, https://matplotlib.org/</dc:title>
     </cc:Agent>
    </dc:creator>
   </cc:Work>
  </rdf:RDF>
 </metadata>
 <defs>
  <style type="text/css">*{stroke-linejoin: round; stroke-linecap: butt}</style>
 </defs>
 <g id="figure_1">
  <g id="patch_1">
   <path d="M 0 209.638125 
L 820.742187 209.638125 
L 820.742187 0 
L 0 0 
z
" style="fill: #ffffff"/>
  </g>
  <g id="axes_1">
   <g id="patch_2">
    <path d="M 143.942187 185.76 
L 813.542188 185.76 
L 813.542188 7.2 
L 143.942187 7.2 
z
" style="fill: #ffffff"/>
   </g>
   <g id="QuadMesh_1">
    <path d="M 143.942187 7.2 
L 188.582188 7.2 
L 188.582188 51.84 
L 143.942187 51.84 
L 143.942187 7.2 
" style="fill: #e3f0f0; stroke: #000000"/>
    <path d="M 188.582188 7.2 
L 233.222188 7.2 
L 233.222188 51.84 
L 188.582188 51.84 
L 188.582188 7.2 
" style="fill: #b9dbdb; stroke: #000000"/>
    <path d="M 233.222188 7.2 
L 277.862188 7.2 
L 277.862188 51.84 
L 233.222188 51.84 
L 233.222188 7.2 
" style="fill: #d4e9e9; stroke: #000000"/>
    <path d="M 277.862188 7.2 
L 322.502187 7.2 
L 322.502187 51.84 
L 277.862188 51.84 
L 277.862188 7.2 
" style="fill: #e0efef; stroke: #000000"/>
    <path d="M 322.502187 7.2 
L 367.142188 7.2 
L 367.142188 51.84 
L 322.502187 51.84 
L 322.502187 7.2 
" style="fill: #e5f1f1; stroke: #000000"/>
    <path d="M 367.142188 7.2 
L 411.782188 7.2 
L 411.782188 51.84 
L 367.142188 51.84 
L 367.142188 7.2 
" style="fill: #4da6a6; stroke: #000000"/>
    <path d="M 411.782188 7.2 
L 456.422188 7.2 
L 456.422188 51.84 
L 411.782188 51.84 
L 411.782188 7.2 
" style="fill: #89c4c4; stroke: #000000"/>
    <path d="M 456.422188 7.2 
L 501.062188 7.2 
L 501.062188 51.84 
L 456.422188 51.84 
L 456.422188 7.2 
" style="fill: #71b8b8; stroke: #000000"/>
    <path d="M 501.062188 7.2 
L 545.702188 7.2 
L 545.702188 51.84 
L 501.062188 51.84 
L 501.062188 7.2 
" style="fill: #d7eaea; stroke: #000000"/>
    <path d="M 545.702188 7.2 
L 590.342188 7.2 
L 590.342188 51.84 
L 545.702188 51.84 
L 545.702188 7.2 
" style="fill: #add6d6; stroke: #000000"/>
    <path d="M 590.342188 7.2 
L 634.982188 7.2 
L 634.982188 51.84 
L 590.342188 51.84 
L 590.342188 7.2 
" style="fill: #e0efef; stroke: #000000"/>
    <path d="M 634.982188 7.2 
L 679.622188 7.2 
L 679.622188 51.84 
L 634.982188 51.84 
L 634.982188 7.2 
" style="fill: #c7e3e3; stroke: #000000"/>
    <path d="M 679.622188 7.2 
L 724.262187 7.2 
L 724.262187 51.84 
L 679.622188 51.84 
L 679.622188 7.2 
" style="fill: #008080; stroke: #000000"/>
    <path d="M 724.262187 7.2 
L 768.902188 7.2 
L 768.902188 51.84 
L 724.262187 51.84 
L 724.262187 7.2 
" style="fill: #71b8b8; stroke: #000000"/>
    <path d="M 768.902188 7.2 
L 813.542188 7.2 
L 813.542188 51.84 
L 768.902188 51.84 
L 768.902188 7.2 
" style="fill: #008080; stroke: #000000"/>
    <path d="M 143.942187 51.84 
L 188.582188 51.84 
L 188.582188 96.48 
L 143.942187 96.48 
L 143.942187 51.84 
" style="fill: #e5f1f1; stroke: #000000"/>
    <path d="M 188.582188 51.84 
L 233.222188 51.84 
L 233.222188 96.48 
L 188.582188 96.48 
L 188.582188 51.84 
" style="fill: #cee6e6; stroke: #000000"/>
    <path d="M 233.222188 51.84 
L 277.862188 51.84 
L 277.862188 96.48 
L 233.222188 96.48 
L 233.222188 51.84 
" style="fill: #daecec; stroke: #000000"/>
    <path d="M 277.862188 51.84 
L 322.502187 51.84 
L 322.502187 96.48 
L 277.862188 96.48 
L 277.862188 51.84 
" style="fill: #e3f0f0; stroke: #000000"/>
    <path d="M 322.502187 51.84 
L 367.142188 51.84 
L 367.142188 96.48 
L 322.502187 96.48 
L 322.502187 51.84 
" style="fill: #e5f1f1; stroke: #000000"/>
    <path d="M 367.142188 51.84 
L 411.782188 51.84 
L 411.782188 96.48 
L 367.142188 96.48 
L 367.142188 51.84 
" style="fill: #c2e0e0; stroke: #000000"/>
    <path d="M 411.782188 51.84 
L 456.422188 51.84 
L 456.422188 96.48 
L 411.782188 96.48 
L 411.782188 51.84 
" style="fill: #53a9a9; stroke: #000000"/>
    <path d="M 456.422188 51.84 
L 501.062188 51.84 
L 501.062188 96.48 
L 456.422188 96.48 
L 456.422188 51.84 
" style="fill: #b6dada; stroke: #000000"/>
    <path d="M 501.062188 51.84 
L 545.702188 51.84 
L 545.702188 96.48 
L 501.062188 96.48 
L 501.062188 51.84 
" style="fill: #e0efef; stroke: #000000"/>
    <path d="M 545.702188 51.84 
L 590.342188 51.84 
L 590.342188 96.48 
L 545.702188 96.48 
L 545.702188 51.84 
" style="fill: #daecec; stroke: #000000"/>
    <path d="M 590.342188 51.84 
L 634.982188 51.84 
L 634.982188 96.48 
L 590.342188 96.48 
L 590.342188 51.84 
" style="fill: #e8f3f3; stroke: #000000"/>
    <path d="M 634.982188 51.84 
L 679.622188 51.84 
L 679.622188 96.48 
L 634.982188 96.48 
L 634.982188 51.84 
" style="fill: #d4e9e9; stroke: #000000"/>
    <path d="M 679.622188 51.84 
L 724.262187 51.84 
L 724.262187 96.48 
L 679.622188 96.48 
L 679.622188 51.84 
" style="fill: #add6d6; stroke: #000000"/>
    <path d="M 724.262187 51.84 
L 768.902188 51.84 
L 768.902188 96.48 
L 724.262187 96.48 
L 724.262187 51.84 
" style="fill: #daecec; stroke: #000000"/>
    <path d="M 768.902188 51.84 
L 813.542188 51.84 
L 813.542188 96.48 
L 768.902188 96.48 
L 768.902188 51.84 
" style="fill: #9bcdcd; stroke: #000000"/>
    <path d="M 143.942187 96.48 
L 188.582188 96.48 
L 188.582188 141.12 
L 143.942187 141.12 
L 143.942187 96.48 
" style="fill: #dceded; stroke: #000000"/>
    <path d="M 188.582188 96.48 
L 233.222188 96.48 
L 233.222188 141.12 
L 188.582188 141.12 
L 188.582188 96.48 
" style="fill: #daecec; stroke: #000000"/>
    <path d="M 233.222188 96.48 
L 277.862188 96.48 
L 277.862188 141.12 
L 233.222188 141.12 
L 233.222188 96.48 
" style="fill: #e0efef; stroke: #000000"/>
    <path d="M 277.862188 96.48 
L 322.502187 96.48 
L 322.502187 141.12 
L 277.862188 141.12 
L 277.862188 96.48 
" style="fill: #d4e9e9; stroke: #000000"/>
    <path d="M 322.502187 96.48 
L 367.142188 96.48 
L 367.142188 141.12 
L 322.502187 141.12 
L 322.502187 96.48 
" style="fill: #e5f1f1; stroke: #000000"/>
    <path d="M 367.142188 96.48 
L 411.782188 96.48 
L 411.782188 141.12 
L 367.142188 141.12 
L 367.142188 96.48 
" style="fill: #89c4c4; stroke: #000000"/>
    <path d="M 411.782188 96.48 
L 456.422188 96.48 
L 456.422188 141.12 
L 411.782188 141.12 
L 411.782188 96.48 
" style="fill: #d0e7e7; stroke: #000000"/>
    <path d="M 456.422188 96.48 
L 501.062188 96.48 
L 501.062188 141.12 
L 456.422188 141.12 
L 456.422188 96.48 
" style="fill: #cee6e6; stroke: #000000"/>
    <path d="M 501.062188 96.48 
L 545.702188 96.48 
L 545.702188 141.12 
L 501.062188 141.12 
L 501.062188 96.48 
" style="fill: #d0e7e7; stroke: #000000"/>
    <path d="M 545.702188 96.48 
L 590.342188 96.48 
L 590.342188 141.12 
L 545.702188 141.12 
L 545.702188 96.48 
" style="fill: #cbe4e4; stroke: #000000"/>
    <path d="M 590.342188 96.48 
L 634.982188 96.48 
L 634.982188 141.12 
L 590.342188 141.12 
L 590.342188 96.48 
" style="fill: #d4e9e9; stroke: #000000"/>
    <path d="M 634.982188 96.48 
L 679.622188 96.48 
L 679.622188 141.12 
L 634.982188 141.12 
L 634.982188 96.48 
" style="fill: #d0e7e7; stroke: #000000"/>
    <path d="M 679.622188 96.48 
L 724.262187 96.48 
L 724.262187 141.12 
L 679.622188 141.12 
L 679.622188 96.48 
" style="fill: #e0efef; stroke: #000000"/>
    <path d="M 724.262187 96.48 
L 768.902188 96.48 
L 768.902188 141.12 
L 724.262187 141.12 
L 724.262187 96.48 
" style="fill: #c5e1e1; stroke: #000000"/>
    <path d="M 768.902188 96.48 
L 813.542188 96.48 
L 813.542188 141.12 
L 768.902188 141.12 
L 768.902188 96.48 
" style="fill: #c2e0e0; stroke: #000000"/>
    <path d="M 143.942187 141.12 
L 188.582188 141.12 
L 188.582188 185.76 
L 143.942187 185.76 
L 143.942187 141.12 
" style="fill: #dceded; stroke: #000000"/>
    <path d="M 188.582188 141.12 
L 233.222188 141.12 
L 233.222188 185.76 
L 188.582188 185.76 
L 188.582188 141.12 
" style="fill: #e5f1f1; stroke: #000000"/>
    <path d="M 233.222188 141.12 
L 277.862188 141.12 
L 277.862188 185.76 
L 233.222188 185.76 
L 233.222188 141.12 
" style="fill: #e3f0f0; stroke: #000000"/>
    <path d="M 277.862188 141.12 
L 322.502187 141.12 
L 322.502187 185.76 
L 277.862188 185.76 
L 277.862188 141.12 
" style="fill: #e0efef; stroke: #000000"/>
    <path d="M 322.502187 141.12 
L 367.142188 141.12 
L 367.142188 185.76 
L 322.502187 185.76 
L 322.502187 141.12 
" style="fill: #e8f3f3; stroke: #000000"/>
    <path d="M 367.142188 141.12 
L 411.782188 141.12 
L 411.782188 185.76 
L 367.142188 185.76 
L 367.142188 141.12 
" style="fill: #b2d8d8; stroke: #000000"/>
    <path d="M 411.782188 141.12 
L 456.422188 141.12 
L 456.422188 185.76 
L 411.782188 185.76 
L 411.782188 141.12 
" style="fill: #e5f1f1; stroke: #000000"/>
    <path d="M 456.422188 141.12 
L 501.062188 141.12 
L 501.062188 185.76 
L 456.422188 185.76 
L 456.422188 141.12 
" style="fill: #c7e3e3; stroke: #000000"/>
    <path d="M 501.062188 141.12 
L 545.702188 141.12 
L 545.702188 185.76 
L 501.062188 185.76 
L 501.062188 141.12 
" style="fill: #e3f0f0; stroke: #000000"/>
    <path d="M 545.702188 141.12 
L 590.342188 141.12 
L 590.342188 185.76 
L 545.702188 185.76 
L 545.702188 141.12 
" style="fill: #daecec; stroke: #000000"/>
    <path d="M 590.342188 141.12 
L 634.982188 141.12 
L 634.982188 185.76 
L 590.342188 185.76 
L 590.342188 141.12 
" style="fill: #cee6e6; stroke: #000000"/>
    <path d="M 634.982188 141.12 
L 679.622188 141.12 
L 679.622188 185.76 
L 634.982188 185.76 
L 634.982188 141.12 
" style="fill: #d7eaea; stroke: #000000"/>
    <path d="M 679.622188 141.12 
L 724.262187 141.12 
L 724.262187 185.76 
L 679.622188 185.76 
L 679.622188 141.12 
" style="fill: #e0efef; stroke: #000000"/>
    <path d="M 724.262187 141.12 
L 768.902188 141.12 
L 768.902188 185.76 
L 724.262187 185.76 
L 724.262187 141.12 
" style="fill: #c2e0e0; stroke: #000000"/>
    <path d="M 768.902188 141.12 
L 813.542188 141.12 
L 813.542188 185.76 
L 768.902188 185.76 
L 768.902188 141.12 
" style="fill: #c7e3e3; stroke: #000000"/>
   </g>
   <g id="matplotlib.axis_1">
    <g id="xtick_1">
     <g id="line2d_1">
      <defs>
       <path id="m590f30a006" d="M 0 0 
L 0 3.5 
" style="stroke: #000000; stroke-width: 0.8"/>
      </defs>
      <g>
       <use xlink:href="#m590f30a006" x="166.262187" y="185.76" style="stroke: #000000; stroke-width: 0.8"/>
      </g>
     </g>
     <g id="text_1">
      <!-- AMK -->
      <g transform="translate(155.248906 200.358437) scale(0.1 -0.1)">
       <defs>
        <path id="DejaVuSans-41" d="M 2188 4044 
L 1331 1722 
L 3047 1722 
L 2188 4044 
z
M 1831 4666 
L 2547 4666 
L 4325 0 
L 3669 0 
L 3244 1197 
L 1141 1197 
L 716 0 
L 50 0 
L 1831 4666 
z
" transform="scale(0.015625)"/>
        <path id="DejaVuSans-4d" d="M 628 4666 
L 1569 4666 
L 2759 1491 
L 3956 4666 
L 4897 4666 
L 4897 0 
L 4281 0 
L 4281 4097 
L 3078 897 
L 2444 897 
L 1241 4097 
L 1241 0 
L 628 0 
L 628 4666 
z
" transform="scale(0.015625)"/>
        <path id="DejaVuSans-4b" d="M 628 4666 
L 1259 4666 
L 1259 2694 
L 3353 4666 
L 4166 4666 
L 1850 2491 
L 4331 0 
L 3500 0 
L 1259 2247 
L 1259 0 
L 628 0 
L 628 4666 
z
" transform="scale(0.015625)"/>
       </defs>
       <use xlink:href="#DejaVuSans-41"/>
       <use xlink:href="#DejaVuSans-4d" x="68.408203"/>
       <use xlink:href="#DejaVuSans-4b" x="154.6875"/>
      </g>
     </g>
    </g>
    <g id="xtick_2">
     <g id="line2d_2">
      <g>
       <use xlink:href="#m590f30a006" x="210.902187" y="185.76" style="stroke: #000000; stroke-width: 0.8"/>
      </g>
     </g>
     <g id="text_2">
      <!-- BDQ -->
      <g transform="translate(199.685781 200.358437) scale(0.1 -0.1)">
       <defs>
        <path id="DejaVuSans-42" d="M 1259 2228 
L 1259 519 
L 2272 519 
Q 2781 519 3026 730 
Q 3272 941 3272 1375 
Q 3272 1813 3026 2020 
Q 2781 2228 2272 2228 
L 1259 2228 
z
M 1259 4147 
L 1259 2741 
L 2194 2741 
Q 2656 2741 2882 2914 
Q 3109 3088 3109 3444 
Q 3109 3797 2882 3972 
Q 2656 4147 2194 4147 
L 1259 4147 
z
M 628 4666 
L 2241 4666 
Q 2963 4666 3353 4366 
Q 3744 4066 3744 3513 
Q 3744 3084 3544 2831 
Q 3344 2578 2956 2516 
Q 3422 2416 3680 2098 
Q 3938 1781 3938 1306 
Q 3938 681 3513 340 
Q 3088 0 2303 0 
L 628 0 
L 628 4666 
z
" transform="scale(0.015625)"/>
        <path id="DejaVuSans-44" d="M 1259 4147 
L 1259 519 
L 2022 519 
Q 2988 519 3436 956 
Q 3884 1394 3884 2338 
Q 3884 3275 3436 3711 
Q 2988 4147 2022 4147 
L 1259 4147 
z
M 628 4666 
L 1925 4666 
Q 3281 4666 3915 4102 
Q 4550 3538 4550 2338 
Q 4550 1131 3912 565 
Q 3275 0 1925 0 
L 628 0 
L 628 4666 
z
" transform="scale(0.015625)"/>
        <path id="DejaVuSans-51" d="M 2522 4238 
Q 1834 4238 1429 3725 
Q 1025 3213 1025 2328 
Q 1025 1447 1429 934 
Q 1834 422 2522 422 
Q 3209 422 3611 934 
Q 4013 1447 4013 2328 
Q 4013 3213 3611 3725 
Q 3209 4238 2522 4238 
z
M 3406 84 
L 4238 -825 
L 3475 -825 
L 2784 -78 
Q 2681 -84 2626 -87 
Q 2572 -91 2522 -91 
Q 1538 -91 948 567 
Q 359 1225 359 2328 
Q 359 3434 948 4092 
Q 1538 4750 2522 4750 
Q 3503 4750 4090 4092 
Q 4678 3434 4678 2328 
Q 4678 1516 4351 937 
Q 4025 359 3406 84 
z
" transform="scale(0.015625)"/>
       </defs>
       <use xlink:href="#DejaVuSans-42"/>
       <use xlink:href="#DejaVuSans-44" x="68.603516"/>
       <use xlink:href="#DejaVuSans-51" x="145.605469"/>
      </g>
     </g>
    </g>
    <g id="xtick_3">
     <g id="line2d_3">
      <g>
       <use xlink:href="#m590f30a006" x="255.542188" y="185.76" style="stroke: #000000; stroke-width: 0.8"/>
      </g>
     </g>
     <g id="text_3">
      <!-- CAP -->
      <g transform="translate(245.615625 200.358437) scale(0.1 -0.1)">
       <defs>
        <path id="DejaVuSans-43" d="M 4122 4306 
L 4122 3641 
Q 3803 3938 3442 4084 
Q 3081 4231 2675 4231 
Q 1875 4231 1450 3742 
Q 1025 3253 1025 2328 
Q 1025 1406 1450 917 
Q 1875 428 2675 428 
Q 3081 428 3442 575 
Q 3803 722 4122 1019 
L 4122 359 
Q 3791 134 3420 21 
Q 3050 -91 2638 -91 
Q 1578 -91 968 557 
Q 359 1206 359 2328 
Q 359 3453 968 4101 
Q 1578 4750 2638 4750 
Q 3056 4750 3426 4639 
Q 3797 4528 4122 4306 
z
" transform="scale(0.015625)"/>
        <path id="DejaVuSans-50" d="M 1259 4147 
L 1259 2394 
L 2053 2394 
Q 2494 2394 2734 2622 
Q 2975 2850 2975 3272 
Q 2975 3691 2734 3919 
Q 2494 4147 2053 4147 
L 1259 4147 
z
M 628 4666 
L 2053 4666 
Q 2838 4666 3239 4311 
Q 3641 3956 3641 3272 
Q 3641 2581 3239 2228 
Q 2838 1875 2053 1875 
L 1259 1875 
L 1259 0 
L 628 0 
L 628 4666 
z
" transform="scale(0.015625)"/>
       </defs>
       <use xlink:href="#DejaVuSans-43"/>
       <use xlink:href="#DejaVuSans-41" x="69.824219"/>
       <use xlink:href="#DejaVuSans-50" x="138.232422"/>
      </g>
     </g>
    </g>
    <g id="xtick_4">
     <g id="line2d_4">
      <g>
       <use xlink:href="#m590f30a006" x="300.182188" y="185.76" style="stroke: #000000; stroke-width: 0.8"/>
      </g>
     </g>
     <g id="text_4">
      <!-- CFZ -->
      <g transform="translate(290.39 200.358437) scale(0.1 -0.1)">
       <defs>
        <path id="DejaVuSans-46" d="M 628 4666 
L 3309 4666 
L 3309 4134 
L 1259 4134 
L 1259 2759 
L 3109 2759 
L 3109 2228 
L 1259 2228 
L 1259 0 
L 628 0 
L 628 4666 
z
" transform="scale(0.015625)"/>
        <path id="DejaVuSans-5a" d="M 359 4666 
L 4025 4666 
L 4025 4184 
L 1075 531 
L 4097 531 
L 4097 0 
L 288 0 
L 288 481 
L 3238 4134 
L 359 4134 
L 359 4666 
z
" transform="scale(0.015625)"/>
       </defs>
       <use xlink:href="#DejaVuSans-43"/>
       <use xlink:href="#DejaVuSans-46" x="69.824219"/>
       <use xlink:href="#DejaVuSans-5a" x="127.34375"/>
      </g>
     </g>
    </g>
    <g id="xtick_5">
     <g id="line2d_5">
      <g>
       <use xlink:href="#m590f30a006" x="344.822188" y="185.76" style="stroke: #000000; stroke-width: 0.8"/>
      </g>
     </g>
     <g id="text_5">
      <!-- DLM -->
      <g transform="translate(333.872188 200.358437) scale(0.1 -0.1)">
       <defs>
        <path id="DejaVuSans-4c" d="M 628 4666 
L 1259 4666 
L 1259 531 
L 3531 531 
L 3531 0 
L 628 0 
L 628 4666 
z
" transform="scale(0.015625)"/>
       </defs>
       <use xlink:href="#DejaVuSans-44"/>
       <use xlink:href="#DejaVuSans-4c" x="77.001953"/>
       <use xlink:href="#DejaVuSans-4d" x="132.714844"/>
      </g>
     </g>
    </g>
    <g id="xtick_6">
     <g id="line2d_6">
      <g>
       <use xlink:href="#m590f30a006" x="389.462188" y="185.76" style="stroke: #000000; stroke-width: 0.8"/>
      </g>
     </g>
     <g id="text_6">
      <!-- EMB -->
      <g transform="translate(378.558281 200.358437) scale(0.1 -0.1)">
       <defs>
        <path id="DejaVuSans-45" d="M 628 4666 
L 3578 4666 
L 3578 4134 
L 1259 4134 
L 1259 2753 
L 3481 2753 
L 3481 2222 
L 1259 2222 
L 1259 531 
L 3634 531 
L 3634 0 
L 628 0 
L 628 4666 
z
" transform="scale(0.015625)"/>
       </defs>
       <use xlink:href="#DejaVuSans-45"/>
       <use xlink:href="#DejaVuSans-4d" x="63.183594"/>
       <use xlink:href="#DejaVuSans-42" x="149.462891"/>
      </g>
     </g>
    </g>
    <g id="xtick_7">
     <g id="line2d_7">
      <g>
       <use xlink:href="#m590f30a006" x="434.102188" y="185.76" style="stroke: #000000; stroke-width: 0.8"/>
      </g>
     </g>
     <g id="text_7">
      <!-- ETO -->
      <g transform="translate(423.952969 200.358437) scale(0.1 -0.1)">
       <defs>
        <path id="DejaVuSans-54" d="M -19 4666 
L 3928 4666 
L 3928 4134 
L 2272 4134 
L 2272 0 
L 1638 0 
L 1638 4134 
L -19 4134 
L -19 4666 
z
" transform="scale(0.015625)"/>
        <path id="DejaVuSans-4f" d="M 2522 4238 
Q 1834 4238 1429 3725 
Q 1025 3213 1025 2328 
Q 1025 1447 1429 934 
Q 1834 422 2522 422 
Q 3209 422 3611 934 
Q 4013 1447 4013 2328 
Q 4013 3213 3611 3725 
Q 3209 4238 2522 4238 
z
M 2522 4750 
Q 3503 4750 4090 4092 
Q 4678 3434 4678 2328 
Q 4678 1225 4090 567 
Q 3503 -91 2522 -91 
Q 1538 -91 948 565 
Q 359 1222 359 2328 
Q 359 3434 948 4092 
Q 1538 4750 2522 4750 
z
" transform="scale(0.015625)"/>
       </defs>
       <use xlink:href="#DejaVuSans-45"/>
       <use xlink:href="#DejaVuSans-54" x="63.183594"/>
       <use xlink:href="#DejaVuSans-4f" x="124.267578"/>
      </g>
     </g>
    </g>
    <g id="xtick_8">
     <g id="line2d_8">
      <g>
       <use xlink:href="#m590f30a006" x="478.742188" y="185.76" style="stroke: #000000; stroke-width: 0.8"/>
      </g>
     </g>
     <g id="text_8">
      <!-- INH -->
      <g transform="translate(469.766406 200.358437) scale(0.1 -0.1)">
       <defs>
        <path id="DejaVuSans-49" d="M 628 4666 
L 1259 4666 
L 1259 0 
L 628 0 
L 628 4666 
z
" transform="scale(0.015625)"/>
        <path id="DejaVuSans-4e" d="M 628 4666 
L 1478 4666 
L 3547 763 
L 3547 4666 
L 4159 4666 
L 4159 0 
L 3309 0 
L 1241 3903 
L 1241 0 
L 628 0 
L 628 4666 
z
" transform="scale(0.015625)"/>
        <path id="DejaVuSans-48" d="M 628 4666 
L 1259 4666 
L 1259 2753 
L 3553 2753 
L 3553 4666 
L 4184 4666 
L 4184 0 
L 3553 0 
L 3553 2222 
L 1259 2222 
L 1259 0 
L 628 0 
L 628 4666 
z
" transform="scale(0.015625)"/>
       </defs>
       <use xlink:href="#DejaVuSans-49"/>
       <use xlink:href="#DejaVuSans-4e" x="29.492188"/>
       <use xlink:href="#DejaVuSans-48" x="104.296875"/>
      </g>
     </g>
    </g>
    <g id="xtick_9">
     <g id="line2d_9">
      <g>
       <use xlink:href="#m590f30a006" x="523.382188" y="185.76" style="stroke: #000000; stroke-width: 0.8"/>
      </g>
     </g>
     <g id="text_9">
      <!-- KAN -->
      <g transform="translate(513.029844 200.358437) scale(0.1 -0.1)">
       <use xlink:href="#DejaVuSans-4b"/>
       <use xlink:href="#DejaVuSans-41" x="63.826172"/>
       <use xlink:href="#DejaVuSans-4e" x="132.234375"/>
      </g>
     </g>
    </g>
    <g id="xtick_10">
     <g id="line2d_10">
      <g>
       <use xlink:href="#m590f30a006" x="568.022188" y="185.76" style="stroke: #000000; stroke-width: 0.8"/>
      </g>
     </g>
     <g id="text_10">
      <!-- LFX -->
      <g transform="translate(558.935469 200.358437) scale(0.1 -0.1)">
       <defs>
        <path id="DejaVuSans-58" d="M 403 4666 
L 1081 4666 
L 2241 2931 
L 3406 4666 
L 4084 4666 
L 2584 2425 
L 4184 0 
L 3506 0 
L 2194 1984 
L 872 0 
L 191 0 
L 1856 2491 
L 403 4666 
z
" transform="scale(0.015625)"/>
       </defs>
       <use xlink:href="#DejaVuSans-4c"/>
       <use xlink:href="#DejaVuSans-46" x="55.712891"/>
       <use xlink:href="#DejaVuSans-58" x="113.232422"/>
      </g>
     </g>
    </g>
    <g id="xtick_11">
     <g id="line2d_11">
      <g>
       <use xlink:href="#m590f30a006" x="612.662188" y="185.76" style="stroke: #000000; stroke-width: 0.8"/>
      </g>
     </g>
     <g id="text_11">
      <!-- LZD -->
      <g transform="translate(602.60125 200.358437) scale(0.1 -0.1)">
       <use xlink:href="#DejaVuSans-4c"/>
       <use xlink:href="#DejaVuSans-5a" x="55.712891"/>
       <use xlink:href="#DejaVuSans-44" x="124.21875"/>
      </g>
     </g>
    </g>
    <g id="xtick_12">
     <g id="line2d_12">
      <g>
       <use xlink:href="#m590f30a006" x="657.302188" y="185.76" style="stroke: #000000; stroke-width: 0.8"/>
      </g>
     </g>
     <g id="text_12">
      <!-- MXF -->
      <g transform="translate(646.687344 200.358437) scale(0.1 -0.1)">
       <use xlink:href="#DejaVuSans-4d"/>
       <use xlink:href="#DejaVuSans-58" x="86.279297"/>
       <use xlink:href="#DejaVuSans-46" x="154.785156"/>
      </g>
     </g>
    </g>
    <g id="xtick_13">
     <g id="line2d_13">
      <g>
       <use xlink:href="#m590f30a006" x="701.942188" y="185.76" style="stroke: #000000; stroke-width: 0.8"/>
      </g>
     </g>
     <g id="text_13">
      <!-- PZA -->
      <g transform="translate(692.082031 200.358437) scale(0.1 -0.1)">
       <use xlink:href="#DejaVuSans-50"/>
       <use xlink:href="#DejaVuSans-5a" x="60.302734"/>
       <use xlink:href="#DejaVuSans-41" x="128.808594"/>
      </g>
     </g>
    </g>
    <g id="xtick_14">
     <g id="line2d_14">
      <g>
       <use xlink:href="#m590f30a006" x="746.582188" y="185.76" style="stroke: #000000; stroke-width: 0.8"/>
      </g>
     </g>
     <g id="text_14">
      <!-- RIF -->
      <g transform="translate(738.757188 200.358437) scale(0.1 -0.1)">
       <defs>
        <path id="DejaVuSans-52" d="M 2841 2188 
Q 3044 2119 3236 1894 
Q 3428 1669 3622 1275 
L 4263 0 
L 3584 0 
L 2988 1197 
Q 2756 1666 2539 1819 
Q 2322 1972 1947 1972 
L 1259 1972 
L 1259 0 
L 628 0 
L 628 4666 
L 2053 4666 
Q 2853 4666 3247 4331 
Q 3641 3997 3641 3322 
Q 3641 2881 3436 2590 
Q 3231 2300 2841 2188 
z
M 1259 4147 
L 1259 2491 
L 2053 2491 
Q 2509 2491 2742 2702 
Q 2975 2913 2975 3322 
Q 2975 3731 2742 3939 
Q 2509 4147 2053 4147 
L 1259 4147 
z
" transform="scale(0.015625)"/>
       </defs>
       <use xlink:href="#DejaVuSans-52"/>
       <use xlink:href="#DejaVuSans-49" x="69.482422"/>
       <use xlink:href="#DejaVuSans-46" x="98.974609"/>
      </g>
     </g>
    </g>
    <g id="xtick_15">
     <g id="line2d_15">
      <g>
       <use xlink:href="#m590f30a006" x="791.222188" y="185.76" style="stroke: #000000; stroke-width: 0.8"/>
      </g>
     </g>
     <g id="text_15">
      <!-- STM -->
      <g transform="translate(780.68 200.358437) scale(0.1 -0.1)">
       <defs>
        <path id="DejaVuSans-53" d="M 3425 4513 
L 3425 3897 
Q 3066 4069 2747 4153 
Q 2428 4238 2131 4238 
Q 1616 4238 1336 4038 
Q 1056 3838 1056 3469 
Q 1056 3159 1242 3001 
Q 1428 2844 1947 2747 
L 2328 2669 
Q 3034 2534 3370 2195 
Q 3706 1856 3706 1288 
Q 3706 609 3251 259 
Q 2797 -91 1919 -91 
Q 1588 -91 1214 -16 
Q 841 59 441 206 
L 441 856 
Q 825 641 1194 531 
Q 1563 422 1919 422 
Q 2459 422 2753 634 
Q 3047 847 3047 1241 
Q 3047 1584 2836 1778 
Q 2625 1972 2144 2069 
L 1759 2144 
Q 1053 2284 737 2584 
Q 422 2884 422 3419 
Q 422 4038 858 4394 
Q 1294 4750 2059 4750 
Q 2388 4750 2728 4690 
Q 3069 4631 3425 4513 
z
" transform="scale(0.015625)"/>
       </defs>
       <use xlink:href="#DejaVuSans-53"/>
       <use xlink:href="#DejaVuSans-54" x="63.476562"/>
       <use xlink:href="#DejaVuSans-4d" x="124.560547"/>
      </g>
     </g>
    </g>
   </g>
   <g id="matplotlib.axis_2">
    <g id="ytick_1">
     <g id="line2d_16">
      <defs>
       <path id="mdf3de9400f" d="M 0 0 
L -3.5 0 
" style="stroke: #000000; stroke-width: 0.8"/>
      </defs>
      <g>
       <use xlink:href="#mdf3de9400f" x="143.942187" y="29.52" style="stroke: #000000; stroke-width: 0.8"/>
      </g>
     </g>
     <g id="text_16">
      <!-- 1) Assoc w R -->
      <g transform="translate(73.140625 32.279375) scale(0.1 -0.1)">
       <defs>
        <path id="DejaVuSans-31" d="M 794 531 
L 1825 531 
L 1825 4091 
L 703 3866 
L 703 4441 
L 1819 4666 
L 2450 4666 
L 2450 531 
L 3481 531 
L 3481 0 
L 794 0 
L 794 531 
z
" transform="scale(0.015625)"/>
        <path id="DejaVuSans-29" d="M 513 4856 
L 1013 4856 
Q 1481 4119 1714 3412 
Q 1947 2706 1947 2009 
Q 1947 1309 1714 600 
Q 1481 -109 1013 -844 
L 513 -844 
Q 928 -128 1133 580 
Q 1338 1288 1338 2009 
Q 1338 2731 1133 3434 
Q 928 4138 513 4856 
z
" transform="scale(0.015625)"/>
        <path id="DejaVuSans-20" transform="scale(0.015625)"/>
        <path id="DejaVuSans-73" d="M 2834 3397 
L 2834 2853 
Q 2591 2978 2328 3040 
Q 2066 3103 1784 3103 
Q 1356 3103 1142 2972 
Q 928 2841 928 2578 
Q 928 2378 1081 2264 
Q 1234 2150 1697 2047 
L 1894 2003 
Q 2506 1872 2764 1633 
Q 3022 1394 3022 966 
Q 3022 478 2636 193 
Q 2250 -91 1575 -91 
Q 1294 -91 989 -36 
Q 684 19 347 128 
L 347 722 
Q 666 556 975 473 
Q 1284 391 1588 391 
Q 1994 391 2212 530 
Q 2431 669 2431 922 
Q 2431 1156 2273 1281 
Q 2116 1406 1581 1522 
L 1381 1569 
Q 847 1681 609 1914 
Q 372 2147 372 2553 
Q 372 3047 722 3315 
Q 1072 3584 1716 3584 
Q 2034 3584 2315 3537 
Q 2597 3491 2834 3397 
z
" transform="scale(0.015625)"/>
        <path id="DejaVuSans-6f" d="M 1959 3097 
Q 1497 3097 1228 2736 
Q 959 2375 959 1747 
Q 959 1119 1226 758 
Q 1494 397 1959 397 
Q 2419 397 2687 759 
Q 2956 1122 2956 1747 
Q 2956 2369 2687 2733 
Q 2419 3097 1959 3097 
z
M 1959 3584 
Q 2709 3584 3137 3096 
Q 3566 2609 3566 1747 
Q 3566 888 3137 398 
Q 2709 -91 1959 -91 
Q 1206 -91 779 398 
Q 353 888 353 1747 
Q 353 2609 779 3096 
Q 1206 3584 1959 3584 
z
" transform="scale(0.015625)"/>
        <path id="DejaVuSans-63" d="M 3122 3366 
L 3122 2828 
Q 2878 2963 2633 3030 
Q 2388 3097 2138 3097 
Q 1578 3097 1268 2742 
Q 959 2388 959 1747 
Q 959 1106 1268 751 
Q 1578 397 2138 397 
Q 2388 397 2633 464 
Q 2878 531 3122 666 
L 3122 134 
Q 2881 22 2623 -34 
Q 2366 -91 2075 -91 
Q 1284 -91 818 406 
Q 353 903 353 1747 
Q 353 2603 823 3093 
Q 1294 3584 2113 3584 
Q 2378 3584 2631 3529 
Q 2884 3475 3122 3366 
z
" transform="scale(0.015625)"/>
        <path id="DejaVuSans-77" d="M 269 3500 
L 844 3500 
L 1563 769 
L 2278 3500 
L 2956 3500 
L 3675 769 
L 4391 3500 
L 4966 3500 
L 4050 0 
L 3372 0 
L 2619 2869 
L 1863 0 
L 1184 0 
L 269 3500 
z
" transform="scale(0.015625)"/>
       </defs>
       <use xlink:href="#DejaVuSans-31"/>
       <use xlink:href="#DejaVuSans-29" x="63.623047"/>
       <use xlink:href="#DejaVuSans-20" x="102.636719"/>
       <use xlink:href="#DejaVuSans-41" x="134.423828"/>
       <use xlink:href="#DejaVuSans-73" x="202.832031"/>
       <use xlink:href="#DejaVuSans-73" x="254.931641"/>
       <use xlink:href="#DejaVuSans-6f" x="307.03125"/>
       <use xlink:href="#DejaVuSans-63" x="368.212891"/>
       <use xlink:href="#DejaVuSans-20" x="423.193359"/>
       <use xlink:href="#DejaVuSans-77" x="454.980469"/>
       <use xlink:href="#DejaVuSans-20" x="536.767578"/>
       <use xlink:href="#DejaVuSans-52" x="568.554688"/>
      </g>
     </g>
    </g>
    <g id="ytick_2">
     <g id="line2d_17">
      <g>
       <use xlink:href="#mdf3de9400f" x="143.942187" y="74.16" style="stroke: #000000; stroke-width: 0.8"/>
      </g>
     </g>
     <g id="text_17">
      <!-- 2) Assoc w R - Interim -->
      <g transform="translate(27.185937 76.919375) scale(0.1 -0.1)">
       <defs>
        <path id="DejaVuSans-32" d="M 1228 531 
L 3431 531 
L 3431 0 
L 469 0 
L 469 531 
Q 828 903 1448 1529 
Q 2069 2156 2228 2338 
Q 2531 2678 2651 2914 
Q 2772 3150 2772 3378 
Q 2772 3750 2511 3984 
Q 2250 4219 1831 4219 
Q 1534 4219 1204 4116 
Q 875 4013 500 3803 
L 500 4441 
Q 881 4594 1212 4672 
Q 1544 4750 1819 4750 
Q 2544 4750 2975 4387 
Q 3406 4025 3406 3419 
Q 3406 3131 3298 2873 
Q 3191 2616 2906 2266 
Q 2828 2175 2409 1742 
Q 1991 1309 1228 531 
z
" transform="scale(0.015625)"/>
        <path id="DejaVuSans-2d" d="M 313 2009 
L 1997 2009 
L 1997 1497 
L 313 1497 
L 313 2009 
z
" transform="scale(0.015625)"/>
        <path id="DejaVuSans-6e" d="M 3513 2113 
L 3513 0 
L 2938 0 
L 2938 2094 
Q 2938 2591 2744 2837 
Q 2550 3084 2163 3084 
Q 1697 3084 1428 2787 
Q 1159 2491 1159 1978 
L 1159 0 
L 581 0 
L 581 3500 
L 1159 3500 
L 1159 2956 
Q 1366 3272 1645 3428 
Q 1925 3584 2291 3584 
Q 2894 3584 3203 3211 
Q 3513 2838 3513 2113 
z
" transform="scale(0.015625)"/>
        <path id="DejaVuSans-74" d="M 1172 4494 
L 1172 3500 
L 2356 3500 
L 2356 3053 
L 1172 3053 
L 1172 1153 
Q 1172 725 1289 603 
Q 1406 481 1766 481 
L 2356 481 
L 2356 0 
L 1766 0 
Q 1100 0 847 248 
Q 594 497 594 1153 
L 594 3053 
L 172 3053 
L 172 3500 
L 594 3500 
L 594 4494 
L 1172 4494 
z
" transform="scale(0.015625)"/>
        <path id="DejaVuSans-65" d="M 3597 1894 
L 3597 1613 
L 953 1613 
Q 991 1019 1311 708 
Q 1631 397 2203 397 
Q 2534 397 2845 478 
Q 3156 559 3463 722 
L 3463 178 
Q 3153 47 2828 -22 
Q 2503 -91 2169 -91 
Q 1331 -91 842 396 
Q 353 884 353 1716 
Q 353 2575 817 3079 
Q 1281 3584 2069 3584 
Q 2775 3584 3186 3129 
Q 3597 2675 3597 1894 
z
M 3022 2063 
Q 3016 2534 2758 2815 
Q 2500 3097 2075 3097 
Q 1594 3097 1305 2825 
Q 1016 2553 972 2059 
L 3022 2063 
z
" transform="scale(0.015625)"/>
        <path id="DejaVuSans-72" d="M 2631 2963 
Q 2534 3019 2420 3045 
Q 2306 3072 2169 3072 
Q 1681 3072 1420 2755 
Q 1159 2438 1159 1844 
L 1159 0 
L 581 0 
L 581 3500 
L 1159 3500 
L 1159 2956 
Q 1341 3275 1631 3429 
Q 1922 3584 2338 3584 
Q 2397 3584 2469 3576 
Q 2541 3569 2628 3553 
L 2631 2963 
z
" transform="scale(0.015625)"/>
        <path id="DejaVuSans-69" d="M 603 3500 
L 1178 3500 
L 1178 0 
L 603 0 
L 603 3500 
z
M 603 4863 
L 1178 4863 
L 1178 4134 
L 603 4134 
L 603 4863 
z
" transform="scale(0.015625)"/>
        <path id="DejaVuSans-6d" d="M 3328 2828 
Q 3544 3216 3844 3400 
Q 4144 3584 4550 3584 
Q 5097 3584 5394 3201 
Q 5691 2819 5691 2113 
L 5691 0 
L 5113 0 
L 5113 2094 
Q 5113 2597 4934 2840 
Q 4756 3084 4391 3084 
Q 3944 3084 3684 2787 
Q 3425 2491 3425 1978 
L 3425 0 
L 2847 0 
L 2847 2094 
Q 2847 2600 2669 2842 
Q 2491 3084 2119 3084 
Q 1678 3084 1418 2786 
Q 1159 2488 1159 1978 
L 1159 0 
L 581 0 
L 581 3500 
L 1159 3500 
L 1159 2956 
Q 1356 3278 1631 3431 
Q 1906 3584 2284 3584 
Q 2666 3584 2933 3390 
Q 3200 3197 3328 2828 
z
" transform="scale(0.015625)"/>
       </defs>
       <use xlink:href="#DejaVuSans-32"/>
       <use xlink:href="#DejaVuSans-29" x="63.623047"/>
       <use xlink:href="#DejaVuSans-20" x="102.636719"/>
       <use xlink:href="#DejaVuSans-41" x="134.423828"/>
       <use xlink:href="#DejaVuSans-73" x="202.832031"/>
       <use xlink:href="#DejaVuSans-73" x="254.931641"/>
       <use xlink:href="#DejaVuSans-6f" x="307.03125"/>
       <use xlink:href="#DejaVuSans-63" x="368.212891"/>
       <use xlink:href="#DejaVuSans-20" x="423.193359"/>
       <use xlink:href="#DejaVuSans-77" x="454.980469"/>
       <use xlink:href="#DejaVuSans-20" x="536.767578"/>
       <use xlink:href="#DejaVuSans-52" x="568.554688"/>
       <use xlink:href="#DejaVuSans-20" x="638.037109"/>
       <use xlink:href="#DejaVuSans-2d" x="669.824219"/>
       <use xlink:href="#DejaVuSans-20" x="705.908203"/>
       <use xlink:href="#DejaVuSans-49" x="737.695312"/>
       <use xlink:href="#DejaVuSans-6e" x="767.1875"/>
       <use xlink:href="#DejaVuSans-74" x="830.566406"/>
       <use xlink:href="#DejaVuSans-65" x="869.775391"/>
       <use xlink:href="#DejaVuSans-72" x="931.298828"/>
       <use xlink:href="#DejaVuSans-69" x="972.412109"/>
       <use xlink:href="#DejaVuSans-6d" x="1000.195312"/>
      </g>
     </g>
    </g>
    <g id="ytick_3">
     <g id="line2d_18">
      <g>
       <use xlink:href="#mdf3de9400f" x="143.942187" y="118.8" style="stroke: #000000; stroke-width: 0.8"/>
      </g>
     </g>
     <g id="text_18">
      <!-- 4) Not assoc w R - Interim -->
      <g transform="translate(7.2 121.559375) scale(0.1 -0.1)">
       <defs>
        <path id="DejaVuSans-34" d="M 2419 4116 
L 825 1625 
L 2419 1625 
L 2419 4116 
z
M 2253 4666 
L 3047 4666 
L 3047 1625 
L 3713 1625 
L 3713 1100 
L 3047 1100 
L 3047 0 
L 2419 0 
L 2419 1100 
L 313 1100 
L 313 1709 
L 2253 4666 
z
" transform="scale(0.015625)"/>
        <path id="DejaVuSans-61" d="M 2194 1759 
Q 1497 1759 1228 1600 
Q 959 1441 959 1056 
Q 959 750 1161 570 
Q 1363 391 1709 391 
Q 2188 391 2477 730 
Q 2766 1069 2766 1631 
L 2766 1759 
L 2194 1759 
z
M 3341 1997 
L 3341 0 
L 2766 0 
L 2766 531 
Q 2569 213 2275 61 
Q 1981 -91 1556 -91 
Q 1019 -91 701 211 
Q 384 513 384 1019 
Q 384 1609 779 1909 
Q 1175 2209 1959 2209 
L 2766 2209 
L 2766 2266 
Q 2766 2663 2505 2880 
Q 2244 3097 1772 3097 
Q 1472 3097 1187 3025 
Q 903 2953 641 2809 
L 641 3341 
Q 956 3463 1253 3523 
Q 1550 3584 1831 3584 
Q 2591 3584 2966 3190 
Q 3341 2797 3341 1997 
z
" transform="scale(0.015625)"/>
       </defs>
       <use xlink:href="#DejaVuSans-34"/>
       <use xlink:href="#DejaVuSans-29" x="63.623047"/>
       <use xlink:href="#DejaVuSans-20" x="102.636719"/>
       <use xlink:href="#DejaVuSans-4e" x="134.423828"/>
       <use xlink:href="#DejaVuSans-6f" x="209.228516"/>
       <use xlink:href="#DejaVuSans-74" x="270.410156"/>
       <use xlink:href="#DejaVuSans-20" x="309.619141"/>
       <use xlink:href="#DejaVuSans-61" x="341.40625"/>
       <use xlink:href="#DejaVuSans-73" x="402.685547"/>
       <use xlink:href="#DejaVuSans-73" x="454.785156"/>
       <use xlink:href="#DejaVuSans-6f" x="506.884766"/>
       <use xlink:href="#DejaVuSans-63" x="568.066406"/>
       <use xlink:href="#DejaVuSans-20" x="623.046875"/>
       <use xlink:href="#DejaVuSans-77" x="654.833984"/>
       <use xlink:href="#DejaVuSans-20" x="736.621094"/>
       <use xlink:href="#DejaVuSans-52" x="768.408203"/>
       <use xlink:href="#DejaVuSans-20" x="837.890625"/>
       <use xlink:href="#DejaVuSans-2d" x="869.677734"/>
       <use xlink:href="#DejaVuSans-20" x="905.761719"/>
       <use xlink:href="#DejaVuSans-49" x="937.548828"/>
       <use xlink:href="#DejaVuSans-6e" x="967.041016"/>
       <use xlink:href="#DejaVuSans-74" x="1030.419922"/>
       <use xlink:href="#DejaVuSans-65" x="1069.628906"/>
       <use xlink:href="#DejaVuSans-72" x="1131.152344"/>
       <use xlink:href="#DejaVuSans-69" x="1172.265625"/>
       <use xlink:href="#DejaVuSans-6d" x="1200.048828"/>
      </g>
     </g>
    </g>
    <g id="ytick_4">
     <g id="line2d_19">
      <g>
       <use xlink:href="#mdf3de9400f" x="143.942187" y="163.44" style="stroke: #000000; stroke-width: 0.8"/>
      </g>
     </g>
     <g id="text_19">
      <!-- 5) Not assoc w R -->
      <g transform="translate(53.154687 166.199375) scale(0.1 -0.1)">
       <defs>
        <path id="DejaVuSans-35" d="M 691 4666 
L 3169 4666 
L 3169 4134 
L 1269 4134 
L 1269 2991 
Q 1406 3038 1543 3061 
Q 1681 3084 1819 3084 
Q 2600 3084 3056 2656 
Q 3513 2228 3513 1497 
Q 3513 744 3044 326 
Q 2575 -91 1722 -91 
Q 1428 -91 1123 -41 
Q 819 9 494 109 
L 494 744 
Q 775 591 1075 516 
Q 1375 441 1709 441 
Q 2250 441 2565 725 
Q 2881 1009 2881 1497 
Q 2881 1984 2565 2268 
Q 2250 2553 1709 2553 
Q 1456 2553 1204 2497 
Q 953 2441 691 2322 
L 691 4666 
z
" transform="scale(0.015625)"/>
       </defs>
       <use xlink:href="#DejaVuSans-35"/>
       <use xlink:href="#DejaVuSans-29" x="63.623047"/>
       <use xlink:href="#DejaVuSans-20" x="102.636719"/>
       <use xlink:href="#DejaVuSans-4e" x="134.423828"/>
       <use xlink:href="#DejaVuSans-6f" x="209.228516"/>
       <use xlink:href="#DejaVuSans-74" x="270.410156"/>
       <use xlink:href="#DejaVuSans-20" x="309.619141"/>
       <use xlink:href="#DejaVuSans-61" x="341.40625"/>
       <use xlink:href="#DejaVuSans-73" x="402.685547"/>
       <use xlink:href="#DejaVuSans-73" x="454.785156"/>
       <use xlink:href="#DejaVuSans-6f" x="506.884766"/>
       <use xlink:href="#DejaVuSans-63" x="568.066406"/>
       <use xlink:href="#DejaVuSans-20" x="623.046875"/>
       <use xlink:href="#DejaVuSans-77" x="654.833984"/>
       <use xlink:href="#DejaVuSans-20" x="736.621094"/>
       <use xlink:href="#DejaVuSans-52" x="768.408203"/>
      </g>
     </g>
    </g>
   </g>
   <g id="text_20">
    <!-- 2 -->
    <g style="fill: #262626" transform="translate(162.762812 32.555312) scale(0.11 -0.11)">
     <use xlink:href="#DejaVuSans-32"/>
    </g>
   </g>
   <g id="text_21">
    <!-- 16 -->
    <g style="fill: #262626" transform="translate(203.903437 32.555312) scale(0.11 -0.11)">
     <defs>
      <path id="DejaVuSans-36" d="M 2113 2584 
Q 1688 2584 1439 2293 
Q 1191 2003 1191 1497 
Q 1191 994 1439 701 
Q 1688 409 2113 409 
Q 2538 409 2786 701 
Q 3034 994 3034 1497 
Q 3034 2003 2786 2293 
Q 2538 2584 2113 2584 
z
M 3366 4563 
L 3366 3988 
Q 3128 4100 2886 4159 
Q 2644 4219 2406 4219 
Q 1781 4219 1451 3797 
Q 1122 3375 1075 2522 
Q 1259 2794 1537 2939 
Q 1816 3084 2150 3084 
Q 2853 3084 3261 2657 
Q 3669 2231 3669 1497 
Q 3669 778 3244 343 
Q 2819 -91 2113 -91 
Q 1303 -91 875 529 
Q 447 1150 447 2328 
Q 447 3434 972 4092 
Q 1497 4750 2381 4750 
Q 2619 4750 2861 4703 
Q 3103 4656 3366 4563 
z
" transform="scale(0.015625)"/>
     </defs>
     <use xlink:href="#DejaVuSans-31"/>
     <use xlink:href="#DejaVuSans-36" x="63.623047"/>
    </g>
   </g>
   <g id="text_22">
    <!-- 7 -->
    <g style="fill: #262626" transform="translate(252.042813 32.555312) scale(0.11 -0.11)">
     <defs>
      <path id="DejaVuSans-37" d="M 525 4666 
L 3525 4666 
L 3525 4397 
L 1831 0 
L 1172 0 
L 2766 4134 
L 525 4134 
L 525 4666 
z
" transform="scale(0.015625)"/>
     </defs>
     <use xlink:href="#DejaVuSans-37"/>
    </g>
   </g>
   <g id="text_23">
    <!-- 3 -->
    <g style="fill: #262626" transform="translate(296.682813 32.555312) scale(0.11 -0.11)">
     <defs>
      <path id="DejaVuSans-33" d="M 2597 2516 
Q 3050 2419 3304 2112 
Q 3559 1806 3559 1356 
Q 3559 666 3084 287 
Q 2609 -91 1734 -91 
Q 1441 -91 1130 -33 
Q 819 25 488 141 
L 488 750 
Q 750 597 1062 519 
Q 1375 441 1716 441 
Q 2309 441 2620 675 
Q 2931 909 2931 1356 
Q 2931 1769 2642 2001 
Q 2353 2234 1838 2234 
L 1294 2234 
L 1294 2753 
L 1863 2753 
Q 2328 2753 2575 2939 
Q 2822 3125 2822 3475 
Q 2822 3834 2567 4026 
Q 2313 4219 1838 4219 
Q 1578 4219 1281 4162 
Q 984 4106 628 3988 
L 628 4550 
Q 988 4650 1302 4700 
Q 1616 4750 1894 4750 
Q 2613 4750 3031 4423 
Q 3450 4097 3450 3541 
Q 3450 3153 3228 2886 
Q 3006 2619 2597 2516 
z
" transform="scale(0.015625)"/>
     </defs>
     <use xlink:href="#DejaVuSans-33"/>
    </g>
   </g>
   <g id="text_24">
    <!-- 1 -->
    <g style="fill: #262626" transform="translate(341.322813 32.555312) scale(0.11 -0.11)">
     <use xlink:href="#DejaVuSans-31"/>
    </g>
   </g>
   <g id="text_25">
    <!-- 52 -->
    <g style="fill: #ffffff" transform="translate(382.463438 32.555312) scale(0.11 -0.11)">
     <use xlink:href="#DejaVuSans-35"/>
     <use xlink:href="#DejaVuSans-32" x="63.623047"/>
    </g>
   </g>
   <g id="text_26">
    <!-- 32 -->
    <g style="fill: #262626" transform="translate(427.103438 32.555312) scale(0.11 -0.11)">
     <use xlink:href="#DejaVuSans-33"/>
     <use xlink:href="#DejaVuSans-32" x="63.623047"/>
    </g>
   </g>
   <g id="text_27">
    <!-- 40 -->
    <g style="fill: #262626" transform="translate(471.743438 32.555312) scale(0.11 -0.11)">
     <defs>
      <path id="DejaVuSans-30" d="M 2034 4250 
Q 1547 4250 1301 3770 
Q 1056 3291 1056 2328 
Q 1056 1369 1301 889 
Q 1547 409 2034 409 
Q 2525 409 2770 889 
Q 3016 1369 3016 2328 
Q 3016 3291 2770 3770 
Q 2525 4250 2034 4250 
z
M 2034 4750 
Q 2819 4750 3233 4129 
Q 3647 3509 3647 2328 
Q 3647 1150 3233 529 
Q 2819 -91 2034 -91 
Q 1250 -91 836 529 
Q 422 1150 422 2328 
Q 422 3509 836 4129 
Q 1250 4750 2034 4750 
z
" transform="scale(0.015625)"/>
     </defs>
     <use xlink:href="#DejaVuSans-34"/>
     <use xlink:href="#DejaVuSans-30" x="63.623047"/>
    </g>
   </g>
   <g id="text_28">
    <!-- 6 -->
    <g style="fill: #262626" transform="translate(519.882813 32.555312) scale(0.11 -0.11)">
     <use xlink:href="#DejaVuSans-36"/>
    </g>
   </g>
   <g id="text_29">
    <!-- 20 -->
    <g style="fill: #262626" transform="translate(561.023438 32.555312) scale(0.11 -0.11)">
     <use xlink:href="#DejaVuSans-32"/>
     <use xlink:href="#DejaVuSans-30" x="63.623047"/>
    </g>
   </g>
   <g id="text_30">
    <!-- 3 -->
    <g style="fill: #262626" transform="translate(609.162813 32.555312) scale(0.11 -0.11)">
     <use xlink:href="#DejaVuSans-33"/>
    </g>
   </g>
   <g id="text_31">
    <!-- 11 -->
    <g style="fill: #262626" transform="translate(650.303438 32.555312) scale(0.11 -0.11)">
     <use xlink:href="#DejaVuSans-31"/>
     <use xlink:href="#DejaVuSans-31" x="63.623047"/>
    </g>
   </g>
   <g id="text_32">
    <!-- 278 -->
    <g style="fill: #ffffff" transform="translate(691.444063 32.555312) scale(0.11 -0.11)">
     <defs>
      <path id="DejaVuSans-38" d="M 2034 2216 
Q 1584 2216 1326 1975 
Q 1069 1734 1069 1313 
Q 1069 891 1326 650 
Q 1584 409 2034 409 
Q 2484 409 2743 651 
Q 3003 894 3003 1313 
Q 3003 1734 2745 1975 
Q 2488 2216 2034 2216 
z
M 1403 2484 
Q 997 2584 770 2862 
Q 544 3141 544 3541 
Q 544 4100 942 4425 
Q 1341 4750 2034 4750 
Q 2731 4750 3128 4425 
Q 3525 4100 3525 3541 
Q 3525 3141 3298 2862 
Q 3072 2584 2669 2484 
Q 3125 2378 3379 2068 
Q 3634 1759 3634 1313 
Q 3634 634 3220 271 
Q 2806 -91 2034 -91 
Q 1263 -91 848 271 
Q 434 634 434 1313 
Q 434 1759 690 2068 
Q 947 2378 1403 2484 
z
M 1172 3481 
Q 1172 3119 1398 2916 
Q 1625 2713 2034 2713 
Q 2441 2713 2670 2916 
Q 2900 3119 2900 3481 
Q 2900 3844 2670 4047 
Q 2441 4250 2034 4250 
Q 1625 4250 1398 4047 
Q 1172 3844 1172 3481 
z
" transform="scale(0.015625)"/>
     </defs>
     <use xlink:href="#DejaVuSans-32"/>
     <use xlink:href="#DejaVuSans-37" x="63.623047"/>
     <use xlink:href="#DejaVuSans-38" x="127.246094"/>
    </g>
   </g>
   <g id="text_33">
    <!-- 40 -->
    <g style="fill: #262626" transform="translate(739.583438 32.555312) scale(0.11 -0.11)">
     <use xlink:href="#DejaVuSans-34"/>
     <use xlink:href="#DejaVuSans-30" x="63.623047"/>
    </g>
   </g>
   <g id="text_34">
    <!-- 78 -->
    <g style="fill: #ffffff" transform="translate(784.223438 32.555312) scale(0.11 -0.11)">
     <use xlink:href="#DejaVuSans-37"/>
     <use xlink:href="#DejaVuSans-38" x="63.623047"/>
    </g>
   </g>
   <g id="text_35">
    <!-- 1 -->
    <g style="fill: #262626" transform="translate(162.762812 77.195312) scale(0.11 -0.11)">
     <use xlink:href="#DejaVuSans-31"/>
    </g>
   </g>
   <g id="text_36">
    <!-- 9 -->
    <g style="fill: #262626" transform="translate(207.402813 77.195312) scale(0.11 -0.11)">
     <defs>
      <path id="DejaVuSans-39" d="M 703 97 
L 703 672 
Q 941 559 1184 500 
Q 1428 441 1663 441 
Q 2288 441 2617 861 
Q 2947 1281 2994 2138 
Q 2813 1869 2534 1725 
Q 2256 1581 1919 1581 
Q 1219 1581 811 2004 
Q 403 2428 403 3163 
Q 403 3881 828 4315 
Q 1253 4750 1959 4750 
Q 2769 4750 3195 4129 
Q 3622 3509 3622 2328 
Q 3622 1225 3098 567 
Q 2575 -91 1691 -91 
Q 1453 -91 1209 -44 
Q 966 3 703 97 
z
M 1959 2075 
Q 2384 2075 2632 2365 
Q 2881 2656 2881 3163 
Q 2881 3666 2632 3958 
Q 2384 4250 1959 4250 
Q 1534 4250 1286 3958 
Q 1038 3666 1038 3163 
Q 1038 2656 1286 2365 
Q 1534 2075 1959 2075 
z
" transform="scale(0.015625)"/>
     </defs>
     <use xlink:href="#DejaVuSans-39"/>
    </g>
   </g>
   <g id="text_37">
    <!-- 5 -->
    <g style="fill: #262626" transform="translate(252.042813 77.195312) scale(0.11 -0.11)">
     <use xlink:href="#DejaVuSans-35"/>
    </g>
   </g>
   <g id="text_38">
    <!-- 2 -->
    <g style="fill: #262626" transform="translate(296.682813 77.195312) scale(0.11 -0.11)">
     <use xlink:href="#DejaVuSans-32"/>
    </g>
   </g>
   <g id="text_39">
    <!-- 1 -->
    <g style="fill: #262626" transform="translate(341.322813 77.195312) scale(0.11 -0.11)">
     <use xlink:href="#DejaVuSans-31"/>
    </g>
   </g>
   <g id="text_40">
    <!-- 13 -->
    <g style="fill: #262626" transform="translate(382.463438 77.195312) scale(0.11 -0.11)">
     <use xlink:href="#DejaVuSans-31"/>
     <use xlink:href="#DejaVuSans-33" x="63.623047"/>
    </g>
   </g>
   <g id="text_41">
    <!-- 50 -->
    <g style="fill: #ffffff" transform="translate(427.103438 77.195312) scale(0.11 -0.11)">
     <use xlink:href="#DejaVuSans-35"/>
     <use xlink:href="#DejaVuSans-30" x="63.623047"/>
    </g>
   </g>
   <g id="text_42">
    <!-- 17 -->
    <g style="fill: #262626" transform="translate(471.743438 77.195312) scale(0.11 -0.11)">
     <use xlink:href="#DejaVuSans-31"/>
     <use xlink:href="#DejaVuSans-37" x="63.623047"/>
    </g>
   </g>
   <g id="text_43">
    <!-- 3 -->
    <g style="fill: #262626" transform="translate(519.882813 77.195312) scale(0.11 -0.11)">
     <use xlink:href="#DejaVuSans-33"/>
    </g>
   </g>
   <g id="text_44">
    <!-- 5 -->
    <g style="fill: #262626" transform="translate(564.522813 77.195312) scale(0.11 -0.11)">
     <use xlink:href="#DejaVuSans-35"/>
    </g>
   </g>
   <g id="text_45">
    <!-- 0 -->
    <g style="fill: #262626" transform="translate(609.162813 77.195312) scale(0.11 -0.11)">
     <use xlink:href="#DejaVuSans-30"/>
    </g>
   </g>
   <g id="text_46">
    <!-- 7 -->
    <g style="fill: #262626" transform="translate(653.802813 77.195312) scale(0.11 -0.11)">
     <use xlink:href="#DejaVuSans-37"/>
    </g>
   </g>
   <g id="text_47">
    <!-- 20 -->
    <g style="fill: #262626" transform="translate(694.943438 77.195312) scale(0.11 -0.11)">
     <use xlink:href="#DejaVuSans-32"/>
     <use xlink:href="#DejaVuSans-30" x="63.623047"/>
    </g>
   </g>
   <g id="text_48">
    <!-- 5 -->
    <g style="fill: #262626" transform="translate(743.082813 77.195312) scale(0.11 -0.11)">
     <use xlink:href="#DejaVuSans-35"/>
    </g>
   </g>
   <g id="text_49">
    <!-- 26 -->
    <g style="fill: #262626" transform="translate(784.223438 77.195312) scale(0.11 -0.11)">
     <use xlink:href="#DejaVuSans-32"/>
     <use xlink:href="#DejaVuSans-36" x="63.623047"/>
    </g>
   </g>
   <g id="text_50">
    <!-- 4 -->
    <g style="fill: #262626" transform="translate(162.762812 121.835312) scale(0.11 -0.11)">
     <use xlink:href="#DejaVuSans-34"/>
    </g>
   </g>
   <g id="text_51">
    <!-- 5 -->
    <g style="fill: #262626" transform="translate(207.402813 121.835312) scale(0.11 -0.11)">
     <use xlink:href="#DejaVuSans-35"/>
    </g>
   </g>
   <g id="text_52">
    <!-- 3 -->
    <g style="fill: #262626" transform="translate(252.042813 121.835312) scale(0.11 -0.11)">
     <use xlink:href="#DejaVuSans-33"/>
    </g>
   </g>
   <g id="text_53">
    <!-- 7 -->
    <g style="fill: #262626" transform="translate(296.682813 121.835312) scale(0.11 -0.11)">
     <use xlink:href="#DejaVuSans-37"/>
    </g>
   </g>
   <g id="text_54">
    <!-- 1 -->
    <g style="fill: #262626" transform="translate(341.322813 121.835312) scale(0.11 -0.11)">
     <use xlink:href="#DejaVuSans-31"/>
    </g>
   </g>
   <g id="text_55">
    <!-- 32 -->
    <g style="fill: #262626" transform="translate(382.463438 121.835312) scale(0.11 -0.11)">
     <use xlink:href="#DejaVuSans-33"/>
     <use xlink:href="#DejaVuSans-32" x="63.623047"/>
    </g>
   </g>
   <g id="text_56">
    <!-- 8 -->
    <g style="fill: #262626" transform="translate(430.602813 121.835312) scale(0.11 -0.11)">
     <use xlink:href="#DejaVuSans-38"/>
    </g>
   </g>
   <g id="text_57">
    <!-- 9 -->
    <g style="fill: #262626" transform="translate(475.242813 121.835312) scale(0.11 -0.11)">
     <use xlink:href="#DejaVuSans-39"/>
    </g>
   </g>
   <g id="text_58">
    <!-- 8 -->
    <g style="fill: #262626" transform="translate(519.882813 121.835312) scale(0.11 -0.11)">
     <use xlink:href="#DejaVuSans-38"/>
    </g>
   </g>
   <g id="text_59">
    <!-- 10 -->
    <g style="fill: #262626" transform="translate(561.023438 121.835312) scale(0.11 -0.11)">
     <use xlink:href="#DejaVuSans-31"/>
     <use xlink:href="#DejaVuSans-30" x="63.623047"/>
    </g>
   </g>
   <g id="text_60">
    <!-- 7 -->
    <g style="fill: #262626" transform="translate(609.162813 121.835312) scale(0.11 -0.11)">
     <use xlink:href="#DejaVuSans-37"/>
    </g>
   </g>
   <g id="text_61">
    <!-- 8 -->
    <g style="fill: #262626" transform="translate(653.802813 121.835312) scale(0.11 -0.11)">
     <use xlink:href="#DejaVuSans-38"/>
    </g>
   </g>
   <g id="text_62">
    <!-- 3 -->
    <g style="fill: #262626" transform="translate(698.442813 121.835312) scale(0.11 -0.11)">
     <use xlink:href="#DejaVuSans-33"/>
    </g>
   </g>
   <g id="text_63">
    <!-- 12 -->
    <g style="fill: #262626" transform="translate(739.583438 121.835312) scale(0.11 -0.11)">
     <use xlink:href="#DejaVuSans-31"/>
     <use xlink:href="#DejaVuSans-32" x="63.623047"/>
    </g>
   </g>
   <g id="text_64">
    <!-- 13 -->
    <g style="fill: #262626" transform="translate(784.223438 121.835312) scale(0.11 -0.11)">
     <use xlink:href="#DejaVuSans-31"/>
     <use xlink:href="#DejaVuSans-33" x="63.623047"/>
    </g>
   </g>
   <g id="text_65">
    <!-- 4 -->
    <g style="fill: #262626" transform="translate(162.762812 166.475312) scale(0.11 -0.11)">
     <use xlink:href="#DejaVuSans-34"/>
    </g>
   </g>
   <g id="text_66">
    <!-- 1 -->
    <g style="fill: #262626" transform="translate(207.402813 166.475312) scale(0.11 -0.11)">
     <use xlink:href="#DejaVuSans-31"/>
    </g>
   </g>
   <g id="text_67">
    <!-- 2 -->
    <g style="fill: #262626" transform="translate(252.042813 166.475312) scale(0.11 -0.11)">
     <use xlink:href="#DejaVuSans-32"/>
    </g>
   </g>
   <g id="text_68">
    <!-- 3 -->
    <g style="fill: #262626" transform="translate(296.682813 166.475312) scale(0.11 -0.11)">
     <use xlink:href="#DejaVuSans-33"/>
    </g>
   </g>
   <g id="text_69">
    <!-- 0 -->
    <g style="fill: #262626" transform="translate(341.322813 166.475312) scale(0.11 -0.11)">
     <use xlink:href="#DejaVuSans-30"/>
    </g>
   </g>
   <g id="text_70">
    <!-- 18 -->
    <g style="fill: #262626" transform="translate(382.463438 166.475312) scale(0.11 -0.11)">
     <use xlink:href="#DejaVuSans-31"/>
     <use xlink:href="#DejaVuSans-38" x="63.623047"/>
    </g>
   </g>
   <g id="text_71">
    <!-- 1 -->
    <g style="fill: #262626" transform="translate(430.602813 166.475312) scale(0.11 -0.11)">
     <use xlink:href="#DejaVuSans-31"/>
    </g>
   </g>
   <g id="text_72">
    <!-- 11 -->
    <g style="fill: #262626" transform="translate(471.743438 166.475312) scale(0.11 -0.11)">
     <use xlink:href="#DejaVuSans-31"/>
     <use xlink:href="#DejaVuSans-31" x="63.623047"/>
    </g>
   </g>
   <g id="text_73">
    <!-- 2 -->
    <g style="fill: #262626" transform="translate(519.882813 166.475312) scale(0.11 -0.11)">
     <use xlink:href="#DejaVuSans-32"/>
    </g>
   </g>
   <g id="text_74">
    <!-- 5 -->
    <g style="fill: #262626" transform="translate(564.522813 166.475312) scale(0.11 -0.11)">
     <use xlink:href="#DejaVuSans-35"/>
    </g>
   </g>
   <g id="text_75">
    <!-- 9 -->
    <g style="fill: #262626" transform="translate(609.162813 166.475312) scale(0.11 -0.11)">
     <use xlink:href="#DejaVuSans-39"/>
    </g>
   </g>
   <g id="text_76">
    <!-- 6 -->
    <g style="fill: #262626" transform="translate(653.802813 166.475312) scale(0.11 -0.11)">
     <use xlink:href="#DejaVuSans-36"/>
    </g>
   </g>
   <g id="text_77">
    <!-- 3 -->
    <g style="fill: #262626" transform="translate(698.442813 166.475312) scale(0.11 -0.11)">
     <use xlink:href="#DejaVuSans-33"/>
    </g>
   </g>
   <g id="text_78">
    <!-- 13 -->
    <g style="fill: #262626" transform="translate(739.583438 166.475312) scale(0.11 -0.11)">
     <use xlink:href="#DejaVuSans-31"/>
     <use xlink:href="#DejaVuSans-33" x="63.623047"/>
    </g>
   </g>
   <g id="text_79">
    <!-- 11 -->
    <g style="fill: #262626" transform="translate(784.223438 166.475312) scale(0.11 -0.11)">
     <use xlink:href="#DejaVuSans-31"/>
     <use xlink:href="#DejaVuSans-31" x="63.623047"/>
    </g>
   </g>
  </g>
 </g>
</svg>
